<svg xmlns="http://www.w3.org/2000/svg" width="16" height="16" fill="none" viewBox="0 0 16 16">
  <g clip-path="url(#a)">
    <path fill="#242526" d="M12.666 3.333a.67.67 0 0 0-1.14-.473l-.907.91c-1 1-2.357 1.563-3.771 1.563H4c-.736 0-1.333.598-1.333 1.334v2C2.667 9.402 3.264 10 4 10v2.667c0 .368.298.666.667.666H6a.666.666 0 0 0 .667-.666V10h.18c1.415 0 2.772.563 3.772 1.563l.908.908a.667.667 0 0 0 1.14-.473V8.923c.387-.183.666-.677.666-1.258 0-.582-.279-1.075-.667-1.259V3.333Zm-1.333 1.598v5.471a6.664 6.664 0 0 0-4.485-1.735h-.181v-2h.18a6.663 6.663 0 0 0 4.486-1.736Z"/>
  </g>
  <defs>
    <clipPath id="a">
      <path fill="#fff" d="M2.667 2.667h10.667v10.667H2.667z"/>
    </clipPath>
  </defs>
</svg>
