<svg xmlns="http://www.w3.org/2000/svg" width="16" height="16" fill="none" viewBox="0 0 16 16">
  <g clip-path="url(#a)">
    <path fill="#242526" d="M2.142 2.773a.5.5 0 0 0-.617.787l12.334 9.667a.5.5 0 0 0 .616-.787l-1.879-1.473c.004-.009.008-.02.013-.027a.665.665 0 0 0-.11-.717l-.155-.173a4.006 4.006 0 0 1-1.01-2.658V7a3.335 3.335 0 0 0-2.667-3.267v-.4a.666.666 0 1 0-1.333 0v.4a3.335 3.335 0 0 0-2.125 1.444L2.142 2.773Zm7.654 8.56-5.129-4.04v.1c0 .98-.36 1.926-1.01 2.659l-.155.173A.664.664 0 0 0 4 11.333h5.796Zm-.852 1.61c.25-.25.39-.589.39-.943H6.667a1.334 1.334 0 0 0 2.277.944Z"/>
  </g>
  <defs>
    <clipPath id="a">
      <path fill="#fff" d="M1.333 2.667h13.333v10.667H1.333z"/>
    </clipPath>
  </defs>
</svg>
