<svg xmlns="http://www.w3.org/2000/svg" width="16" height="16" fill="none" viewBox="0 0 16 16">
  <g clip-path="url(#a)">
    <path fill="#242526" d="M2.142 2.773a.5.5 0 0 0-.617.787l12.334 9.667a.5.5 0 0 0 .616-.787l-2.191-1.717c.825-.846 1.383-1.794 1.664-2.467a.663.663 0 0 0 0-.512c-.31-.744-.962-1.827-1.937-2.732C11.03 4.1 9.684 3.333 8 3.333c-1.422 0-2.605.548-3.528 1.267l-2.33-1.827Zm3.84 3.008a3 3 0 0 1 4.656 3.65l-.804-.629a2 2 0 0 0-1.746-2.8c-.121-.004-.192.127-.154.244a1.327 1.327 0 0 1-.069 1.012L5.984 5.783l-.002-.002Zm3.122 5.009A3 3 0 0 1 5.03 7.58L3.065 6.03a7.882 7.882 0 0 0-1.013 1.713.663.663 0 0 0 0 .512c.31.744.963 1.827 1.938 2.732.979.912 2.327 1.679 4.01 1.679.996 0 1.873-.27 2.63-.678l-1.526-1.2Z"/>
  </g>
  <defs>
    <clipPath id="a">
      <path fill="#fff" d="M1.333 2.667h13.333v10.667H1.333z"/>
    </clipPath>
  </defs>
</svg>
