<svg xmlns="http://www.w3.org/2000/svg" width="16" height="16" fill="none" viewBox="0 0 16 16">
  <g clip-path="url(#a)">
    <path fill="#242526" d="M8 3.333a.83.83 0 0 1 .719.413l4.5 7.666a.832.832 0 0 1-.719 1.255h-9a.835.835 0 0 1-.719-1.255l4.5-7.666A.832.832 0 0 1 8 3.333ZM8 6c-.277 0-.5.223-.5.5v2.333a.499.499 0 1 0 1 0V6.5c0-.277-.223-.5-.5-.5Zm.667 4.667a.667.667 0 1 0-1.334 0 .667.667 0 0 0 1.334 0Z"/>
  </g>
  <defs>
    <clipPath id="a">
      <path fill="#fff" d="M2.667 2.667h10.667v10.667H2.667z"/>
    </clipPath>
  </defs>
</svg>
