<svg xmlns="http://www.w3.org/2000/svg" width="24" height="24" fill="none" viewBox="0 0 24 24">
  <g clip-path="url(#a)">
    <path fill="#242526" d="M10.666 5.012a1 1 0 0 1 .822 1.15L11.18 8h2.972l.36-2.166a1 1 0 0 1 1.971.328L16.181 8H18a.999.999 0 1 1 0 2h-2.153l-.666 4H17a.999.999 0 1 1 0 2h-2.153l-.36 2.166a1 1 0 0 1-1.971-.329l.306-1.834H9.85l-.36 2.166a1 1 0 0 1-1.971-.328l.3-1.841H6a.999.999 0 1 1 0-2h2.153l.666-4H7a.999.999 0 1 1 0-2h2.153l.36-2.166a1 1 0 0 1 1.15-.822h.003Zm.18 4.988-.665 4h2.972l.666-4h-2.972Z"/>
  </g>
  <defs>
    <clipPath id="a">
      <path fill="#fff" d="M5 4h14v16H5z"/>
    </clipPath>
  </defs>
</svg>
