<svg xmlns="http://www.w3.org/2000/svg" width="24" height="24" fill="none" viewBox="0 0 24 24">
  <g clip-path="url(#a)">
    <path fill="#242526" d="M13 4a.999.999 0 1 0-2 0v2H8a3 3 0 0 0-3 3v7a3 3 0 0 0 3 3h8a3 3 0 0 0 3-3V9a3 3 0 0 0-3-3h-3V4ZM7 15.5c0-.416.334-.75.75-.75h1c.416 0 .75.334.75.75s-.334.75-.75.75h-1A.748.748 0 0 1 7 15.5Zm3.75 0c0-.416.334-.75.75-.75h1c.416 0 .75.334.75.75s-.334.75-.75.75h-1a.748.748 0 0 1-.75-.75Zm3.75 0c0-.416.334-.75.75-.75h1c.416 0 .75.334.75.75s-.334.75-.75.75h-1a.748.748 0 0 1-.75-.75ZM9 9.5a1.5 1.5 0 1 1 0 3 1.5 1.5 0 0 1 0-3Zm4.5 1.5a1.5 1.5 0 1 1 3 0 1.5 1.5 0 0 1-3 0ZM4 11a.999.999 0 1 0-2 0v3a.999.999 0 1 0 2 0v-3Zm17-1a1 1 0 0 0-1 1v3a.999.999 0 1 0 2 0v-3a1 1 0 0 0-1-1Z"/>
  </g>
  <defs>
    <clipPath id="a">
      <path fill="#fff" d="M2 4h20v16H2z"/>
    </clipPath>
  </defs>
</svg>
