<svg xmlns="http://www.w3.org/2000/svg" width="16" height="16" fill="none" viewBox="0 0 16 16">
  <path fill="#242526" d="M4.729 4.855a2.712 2.712 0 0 1 1.569.34l.23.146.123.093c.09.07.176.149.257.232a2.485 2.485 0 0 1 .381-.325l.23-.146c.251-.141.523-.24.804-.297a3.176 3.176 0 0 0-.103 1.154 1.636 1.636 0 0 0-.59.418l-.044.05-.001-.001-.274.31H7.31l-.006.007-.007.008a.766.766 0 0 0-.002.002l.003-.005-.005.007-.005.006a.538.538 0 0 1-.759 0l-.032-.034v-.005l-.304-.34-.005-.005a1.643 1.643 0 0 0-2.87 1.095v.058c.001.476.2.933.55 1.257l3.04 2.823L9.95 8.88c.068-.063.128-.133.184-.205.344.147.72.233 1.115.249a2.783 2.783 0 0 1-.566.745l-3.117 2.893v.002l-.045.04a.903.903 0 0 1-1.225 0l-.044-.04-.001-.002L3.135 9.67a2.792 2.792 0 0 1-.892-2.046v-.059c0-1.305.928-2.426 2.211-2.67l.275-.039Zm2.032 7.866.147.013a.79.79 0 0 1-.147-.013Zm-.303-.128.017.01a.774.774 0 0 1-.104-.08l.087.07Zm4.15-3.006.17-.174.011-.015a2.671 2.671 0 0 1-.182.189Zm.783-6.432c.294 0 .533.239.533.533V4.99h1.3a.533.533 0 1 1 0 1.067h-1.3v1.3a.533.533 0 0 1-1.067 0v-1.3h-1.3a.534.534 0 0 1 0-1.067h1.3v-1.3c0-.295.239-.534.534-.534Zm-4.164 3.6-.016.017c.005-.006.012-.01.017-.017l.316-.356-.317.356Zm2.271-.905.059.005a.335.335 0 0 1-.06-.006h.001Zm-.268-.395a.342.342 0 0 0-.006.067l.006.068a.33.33 0 0 0 0-.136v.001Zm2.494-1.767-.005-.06-.002-.006a.338.338 0 0 1 .007.066Z"/>
</svg>
