<svg xmlns="http://www.w3.org/2000/svg" width="16" height="16" fill="none" viewBox="0 0 16 16">
  <g clip-path="url(#a)">
    <path stroke="#242526" d="M2.667 5.833A3.333 3.333 0 0 1 6 2.5h4a3.333 3.333 0 0 1 3.333 3.333v2.328A3.333 3.333 0 0 1 10 11.495h-.303a.333.333 0 0 0-.21.075l-2.715 2.209a.167.167 0 0 1-.272-.13v-1.988a.167.167 0 0 0-.167-.166H6A3.333 3.333 0 0 1 2.667 8.16V5.833Z"/>
    <path fill="#242526" d="M10.143 4.854a.5.5 0 0 1 .781.625l-3.2 4a.5.5 0 0 1-.69.087l-1.6-1.2a.5.5 0 0 1 .6-.8l1.211.91 2.898-3.622Z"/>
  </g>
  <defs>
    <clipPath id="a">
      <path fill="#fff" d="M0 0h16v16H0z"/>
    </clipPath>
  </defs>
</svg>
