<svg xmlns="http://www.w3.org/2000/svg" width="16" height="16" fill="none" viewBox="0 0 16 16">
  <g clip-path="url(#a)">
    <path fill="#242526" d="M12 8a4 4 0 1 0-8 0 4 4 0 0 0 8 0Zm1 0A5 5 0 1 1 3 8a5 5 0 0 1 10 0ZM7.5 1.667v-1a.5.5 0 0 1 1 0v1a.5.5 0 0 1-1 0Zm0 13.666v-1a.5.5 0 1 1 1 0v1a.5.5 0 0 1-1 0ZM15.334 7.5a.5.5 0 0 1 0 1h-1a.5.5 0 0 1 0-1h1Zm-13.667 0a.5.5 0 1 1 0 1h-1a.5.5 0 0 1 0-1h1Zm10.458-4.332.707-.707a.5.5 0 1 1 .707.707l-.707.707a.5.5 0 1 1-.707-.707ZM2.46 12.832l.708-.707a.5.5 0 1 1 .707.707l-.707.707a.5.5 0 1 1-.707-.707Zm11.08 0a.5.5 0 0 1-.708.707l-.707-.707a.5.5 0 1 1 .707-.707l.707.707ZM3.875 3.168a.5.5 0 1 1-.707.707l-.707-.707a.5.5 0 1 1 .707-.707l.707.707Z"/>
    <path fill="#EC8875" d="M6.366 9.294A2.2 2.2 0 0 0 8 10c.775 0 1.316-.365 1.633-.706a.5.5 0 0 1 .736.677A3.19 3.19 0 0 1 8.002 11a3.179 3.179 0 0 1-2.367-1.03.498.498 0 0 1 .03-.706.498.498 0 0 1 .706.03h-.005ZM5.675 7a.667.667 0 1 1 1.333 0 .667.667 0 0 1-1.333 0Zm4-.667a.667.667 0 1 1 0 1.333.667.667 0 0 1 0-1.333Z"/>
  </g>
  <defs>
    <clipPath id="a">
      <path fill="#fff" d="M0 0h16v16H0z"/>
    </clipPath>
  </defs>
</svg>
