<svg xmlns="http://www.w3.org/2000/svg" width="32" height="32" fill="none" viewBox="0 0 32 32">
  <g clip-path="url(#a)">
    <path fill="#242526" d="M16 5.333c-.738 0-1.333.596-1.333 1.334v.8A6.67 6.67 0 0 0 9.333 14v.783a8.02 8.02 0 0 1-2.02 5.317l-.309.346A1.336 1.336 0 0 0 8 22.667h16a1.336 1.336 0 0 0 .996-2.221l-.308-.346a8.011 8.011 0 0 1-2.021-5.317V14a6.67 6.67 0 0 0-5.334-6.533v-.8c0-.738-.595-1.334-1.333-1.334Zm1.887 20.554c.5-.5.78-1.179.78-1.887h-5.334c0 .708.28 1.387.78 1.887s1.179.78 1.887.78 1.387-.28 1.887-.78Z"/>
  </g>
  <defs>
    <clipPath id="a">
      <path fill="#fff" d="M5.333 5.333h21.333v21.333H5.333z"/>
    </clipPath>
  </defs>
</svg>
