<svg xmlns="http://www.w3.org/2000/svg" width="32" height="32" fill="none" viewBox="0 0 32 32">
  <path fill="#242526" d="M16 5.333c-.738 0-1.334.596-1.334 1.334v.8A6.67 6.67 0 0 0 9.333 14v1.058a8.34 8.34 0 0 1-1.825 5.204l-.62.78a1 1 0 0 0 .78 1.625h16.665a1 1 0 0 0 .78-1.625l-.622-.775a8.362 8.362 0 0 1-1.825-5.209V14a6.67 6.67 0 0 0-5.333-6.533v-.8c0-.738-.596-1.334-1.333-1.334Zm0 4A4.664 4.664 0 0 1 20.666 14v1.058c0 1.996.58 3.942 1.655 5.609H9.679a10.349 10.349 0 0 0 1.654-5.609V14A4.664 4.664 0 0 1 16 9.333ZM18.666 24h-5.333A2.666 2.666 0 0 0 16 26.667c.708 0 1.387-.28 1.887-.78s.78-1.179.78-1.887Z"/>
</svg>
