<svg xmlns="http://www.w3.org/2000/svg" width="32" height="32" fill="none" viewBox="0 0 32 32">
  <g clip-path="url(#a)">
    <path stroke="#242526" stroke-width="2" d="M16.017 6.333a.52.52 0 0 1 .156.023.242.242 0 0 1 .077.036l10.623 9.338.002.002a.49.49 0 0 1 .122.14l-.005.052v.055a.326.326 0 0 1-.102.237.337.337 0 0 1-.231.1H24.32l.005 1.005.028 6.675c0 .063-.005.136-.015.223l-.005.055v.73a.667.667 0 0 1-.668.667h-.712l-.081-.008-.082.006-.103.001-1.352-.004h-1.002a.666.666 0 0 1-.668-.666v-3.667A2.331 2.331 0 0 0 17.334 19h-2.668a2.332 2.332 0 0 0-2.332 2.333V25a.666.666 0 0 1-.668.666H9.337a2.02 2.02 0 0 1-.12-.006l-.075-.005-.075.006c-.026.003-.041.005-.054.005h-.68A.666.666 0 0 1 7.667 25v-4.69l.001-.009.004-.03v-3.958H5.337a.328.328 0 0 1-.239-.093.336.336 0 0 1-.094-.245c0-.114.025-.188.112-.28L15.757 6.42l.026-.022.024-.025a.072.072 0 0 1 .024-.018.034.034 0 0 1 .015-.007.644.644 0 0 1 .171-.015Z"/>
  </g>
  <defs>
    <clipPath id="a">
      <path fill="#fff" d="M4 5.333h24v21.333H4z"/>
    </clipPath>
  </defs>
</svg>
