<svg xmlns="http://www.w3.org/2000/svg" width="32" height="32" fill="none" viewBox="0 0 32 32">
  <g clip-path="url(#a)">
    <path fill="#242526" d="M5.333 22.666V10.333c0-.554.446-1 1-1 .555 0 1 .446 1 1v12c0 .554.446 1 1 1 .555 0 1-.446 1-1v-13A2.67 2.67 0 0 1 12 6.666h12a2.67 2.67 0 0 1 2.667 2.667v13.333A2.67 2.67 0 0 1 24 25.334H8a2.67 2.67 0 0 1-2.667-2.666Zm6.667-12v2.667c0 .738.596 1.333 1.334 1.333H16c.738 0 1.334-.595 1.334-1.333v-2.667c0-.737-.596-1.333-1.334-1.333h-2.666c-.738 0-1.334.596-1.334 1.333Zm1 10c-.554 0-1 .446-1 1 0 .555.446 1 1 1h10c.554 0 1-.445 1-1 0-.554-.446-1-1-1H13Zm-1-3c0 .555.446 1 1 1h10c.554 0 1-.445 1-1 0-.554-.446-1-1-1H13c-.554 0-1 .446-1 1Zm8.334-5c-.555 0-1 .446-1 1 0 .555.445 1 1 1H23c.554 0 1-.445 1-1 0-.554-.446-1-1-1h-2.666Z"/>
  </g>
  <defs>
    <clipPath id="a">
      <path fill="#fff" d="M5.333 5.333h21.333v21.333H5.333z"/>
    </clipPath>
  </defs>
</svg>
