<svg preserveAspectRatio="none" width="100%" height="100%" overflow="visible" style="display: block;" viewBox="0 0 8 11" fill="none" xmlns="http://www.w3.org/2000/svg">
<g id="award" clip-path="url(#clip0_7498_15330)">
<path id="Primary" d="M3.62059 0.114744C3.84976 -0.0373393 4.14976 -0.0373393 4.37892 0.114744L4.74976 0.358494C4.87476 0.439744 5.02059 0.479327 5.16851 0.470994L5.61226 0.443911C5.88726 0.427244 6.14559 0.577244 6.26851 0.823077L6.46851 1.22099C6.53517 1.35433 6.64351 1.46058 6.77476 1.52724L7.17684 1.72933C7.42267 1.85224 7.57267 2.11058 7.55601 2.38558L7.52892 2.82933C7.52059 2.97724 7.56017 3.12516 7.64142 3.24808L7.88726 3.61891C8.03934 3.84808 8.03934 4.14808 7.88726 4.37724L7.64142 4.75016C7.56017 4.87516 7.52059 5.02099 7.52892 5.16891L7.55601 5.61266C7.57267 5.88766 7.42267 6.14599 7.17684 6.26891L6.77892 6.46891C6.64559 6.53558 6.53934 6.64391 6.47267 6.77516L6.27059 7.17724C6.14767 7.42308 5.88934 7.57308 5.61434 7.55641L5.17059 7.52933C5.02267 7.52099 4.87476 7.56058 4.75184 7.64183L4.38101 7.88766C4.15184 8.03974 3.85184 8.03974 3.62267 7.88766L3.24976 7.64183C3.12476 7.56058 2.97892 7.52099 2.83101 7.52933L2.38726 7.55641C2.11226 7.57308 1.85392 7.42308 1.73101 7.17724L1.53101 6.77933C1.46434 6.64599 1.35601 6.53974 1.22476 6.47308L0.822672 6.27099C0.576838 6.14808 0.426838 5.88974 0.443505 5.61474L0.470588 5.17099C0.478922 5.02308 0.439338 4.87516 0.358088 4.75224L0.114338 4.37933C-0.037745 4.15016 -0.037745 3.85016 0.114338 3.62099L0.358088 3.25016C0.439338 3.12516 0.478922 2.97933 0.470588 2.83141L0.443505 2.38766C0.426838 2.11266 0.576838 1.85433 0.822672 1.73141L1.22059 1.53141C1.35392 1.46266 1.46226 1.35433 1.52892 1.22099L1.72892 0.823077C1.85184 0.577244 2.11017 0.427244 2.38517 0.443911L2.82892 0.470994C2.97684 0.479327 3.12476 0.439744 3.24767 0.358494L3.62059 0.114744ZM5.66642 4.00016C5.66642 3.55813 5.49083 3.13421 5.17827 2.82165C4.86571 2.50909 4.44178 2.33349 3.99976 2.33349C3.55773 2.33349 3.1338 2.50909 2.82124 2.82165C2.50868 3.13421 2.33309 3.55813 2.33309 4.00016C2.33309 4.44219 2.50868 4.86611 2.82124 5.17867C3.1338 5.49123 3.55773 5.66683 3.99976 5.66683C4.44178 5.66683 4.86571 5.49123 5.17827 5.17867C5.49083 4.86611 5.66642 4.44219 5.66642 4.00016ZM0.0268384 9.20433L0.924755 7.06891C0.928922 7.07099 0.931005 7.07308 0.933088 7.07724L1.13309 7.47516C1.37684 7.95849 1.88309 8.25224 2.42476 8.22099L2.86851 8.19391C2.87267 8.19391 2.87892 8.19391 2.88309 8.19808L3.25392 8.44391C3.36017 8.51266 3.47267 8.56683 3.58934 8.60433L2.80601 10.4647C2.75809 10.5793 2.65184 10.6564 2.52892 10.6668C2.40601 10.6772 2.28726 10.621 2.22059 10.5168L1.54976 9.48974L0.381005 9.66266C0.262255 9.67933 0.143505 9.63141 0.068505 9.53766C-0.00649496 9.44391 -0.0210783 9.31474 0.024755 9.20433H0.0268384ZM5.19351 10.4627L4.41017 8.60433C4.52684 8.56683 4.63934 8.51474 4.74559 8.44391L5.11642 8.19808C5.12059 8.19599 5.12476 8.19391 5.13101 8.19391L5.57476 8.22099C6.11642 8.25224 6.62267 7.95849 6.86642 7.47516L7.06642 7.07724C7.06851 7.07308 7.07059 7.07099 7.07476 7.06891L7.97476 9.20433C8.02059 9.31474 8.00392 9.44183 7.93101 9.53766C7.85809 9.63349 7.73726 9.68141 7.61851 9.66266L6.44976 9.48974L5.77892 10.5147C5.71226 10.6189 5.59351 10.6752 5.47059 10.6647C5.34767 10.6543 5.24142 10.5752 5.19351 10.4627Z" fill="var(--fill-0, #242526)"/>
</g>
<defs>
<clipPath id="clip0_7498_15330">
<rect width="8" height="10.6667" fill="white"/>
</clipPath>
</defs>
</svg>
