<svg preserveAspectRatio="none" width="100%" height="100%" overflow="visible" style="display: block;" viewBox="0 0 12 11" fill="none" xmlns="http://www.w3.org/2000/svg">
<g id="crown" clip-path="url(#clip0_7493_14015)">
<path id="Primary" d="M6.43752 2.20839C6.67502 2.06256 6.83336 1.79797 6.83336 1.50006C6.83336 1.03964 6.46044 0.666724 6.00002 0.666724C5.53961 0.666724 5.16669 1.03964 5.16669 1.50006C5.16669 1.80006 5.32502 2.06256 5.56252 2.20839L4.36877 4.59589C4.17919 4.97506 3.68752 5.08339 3.35627 4.81881L1.50002 3.33339C1.60419 3.19381 1.66669 3.02089 1.66669 2.83339C1.66669 2.37297 1.29377 2.00006 0.833358 2.00006C0.372941 2.00006 2.44141e-05 2.37297 2.44141e-05 2.83339C2.44141e-05 3.29381 0.372941 3.66672 0.833358 3.66672C0.837524 3.66672 0.843774 3.66672 0.847941 3.66672L1.80002 8.90422C1.91461 9.53756 2.46669 10.0001 3.11252 10.0001H8.88752C9.53127 10.0001 10.0834 9.53964 10.2 8.90422L11.1521 3.66672C11.1563 3.66672 11.1625 3.66672 11.1667 3.66672C11.6271 3.66672 12 3.29381 12 2.83339C12 2.37297 11.6271 2.00006 11.1667 2.00006C10.7063 2.00006 10.3334 2.37297 10.3334 2.83339C10.3334 3.02089 10.3959 3.19381 10.5 3.33339L8.64377 4.81881C8.31252 5.08339 7.82086 4.97506 7.63127 4.59589L6.43752 2.20839Z" fill="var(--fill-0, #242526)"/>
</g>
<defs>
<clipPath id="clip0_7493_14015">
<rect width="12" height="10.6667" fill="white"/>
</clipPath>
</defs>
</svg>
