<svg preserveAspectRatio="none" width="100%" height="100%" overflow="visible" style="display: block;" viewBox="0 0 12 11" fill="none" xmlns="http://www.w3.org/2000/svg">
<g id="hand-holding-heart" clip-path="url(#clip0_7493_13711)">
<path id="Primary" d="M5.825 0.645833C5.53125 0.239583 5.06042 0 4.56042 0C3.69792 0 3 0.697917 3 1.56042V1.61042C3 2.95208 4.70833 4.38958 5.54583 5.0125C5.81667 5.21458 6.18125 5.21458 6.45208 5.0125C7.28958 4.3875 8.99792 2.95208 8.99792 1.61042V1.56042C8.99792 0.697917 8.3 0 7.4375 0C6.9375 0 6.46667 0.239583 6.17292 0.645833L6 0.889583L5.825 0.645833ZM2.27708 7.11458L1.38958 8H0.666667C0.297917 8 0 8.29792 0 8.66667V10C0 10.3687 0.297917 10.6667 0.666667 10.6667H7.34375C7.94792 10.6667 8.5375 10.4729 9.025 10.1146L11.6625 8.17083C12.0333 7.89792 12.1125 7.37708 11.8396 7.00625C11.5667 6.63542 11.0458 6.55625 10.675 6.82917L8.17917 8.66667H5.83333C5.55625 8.66667 5.33333 8.44375 5.33333 8.16667C5.33333 7.88958 5.55625 7.66667 5.83333 7.66667H7.33333C7.70208 7.66667 8 7.36875 8 7C8 6.63125 7.70208 6.33333 7.33333 6.33333H4.1625C3.45625 6.33333 2.77708 6.61458 2.27708 7.11458Z" fill="var(--fill-0, black)"/>
</g>
<defs>
<clipPath id="clip0_7493_13711">
<rect width="12" height="10.6667" fill="white"/>
</clipPath>
</defs>
</svg>
