<svg preserveAspectRatio="none" width="100%" height="100%" overflow="visible" style="display: block;" viewBox="0 0 11 11" fill="none" xmlns="http://www.w3.org/2000/svg">
<g id="medal" clip-path="url(#clip0_7498_15324)">
<path id="Primary" d="M0.0854167 0.795833C0.0291667 0.7125 0 0.6125 0 0.5125C0 0.229167 0.229167 0 0.5125 0H2.78958C3.02292 0 3.24167 0.122917 3.36042 0.322917L4.7875 2.7C3.78333 2.82708 2.88542 3.29583 2.21667 3.98958L0.0854167 0.795833ZM10.5792 0.795833L8.45 3.98958C7.78125 3.29583 6.88333 2.82708 5.87917 2.7L7.30625 0.322917C7.42708 0.122917 7.64375 0 7.87708 0H10.1542C10.4375 0 10.6667 0.229167 10.6667 0.5125C10.6667 0.6125 10.6375 0.7125 10.5812 0.795833H10.5792ZM1.66667 7C1.66667 6.02754 2.05298 5.09491 2.74061 4.40727C3.42824 3.71964 4.36087 3.33333 5.33333 3.33333C6.30579 3.33333 7.23842 3.71964 7.92606 4.40727C8.61369 5.09491 9 6.02754 9 7C9 7.97246 8.61369 8.90509 7.92606 9.59272C7.23842 10.2804 6.30579 10.6667 5.33333 10.6667C4.36087 10.6667 3.42824 10.2804 2.74061 9.59272C2.05298 8.90509 1.66667 7.97246 1.66667 7ZM5.50833 5.02292C5.4375 4.87708 5.23125 4.87708 5.15833 5.02292L4.69167 5.96875C4.6625 6.02708 4.60833 6.06667 4.54583 6.075L3.5 6.22708C3.33958 6.25 3.27708 6.44583 3.39167 6.56042L4.14792 7.29792C4.19375 7.34375 4.21458 7.40625 4.20417 7.47083L4.025 8.51042C3.99792 8.66875 4.16458 8.79167 4.30833 8.71667L5.24167 8.225C5.29792 8.19583 5.36667 8.19583 5.42292 8.225L6.35625 8.71667C6.5 8.79167 6.66667 8.67083 6.63958 8.51042L6.46042 7.47083C6.45 7.40833 6.47083 7.34375 6.51667 7.29792L7.27292 6.56042C7.38958 6.44792 7.325 6.25208 7.16458 6.22708L6.12083 6.075C6.05833 6.06667 6.00208 6.025 5.975 5.96875L5.50833 5.02292Z" fill="var(--fill-0, #242526)"/>
</g>
<defs>
<clipPath id="clip0_7498_15324">
<rect width="10.6667" height="10.6667" fill="white"/>
</clipPath>
</defs>
</svg>
