<svg preserveAspectRatio="none" width="100%" height="100%" overflow="visible" style="display: block;" viewBox="0 0 12 11" fill="none" xmlns="http://www.w3.org/2000/svg">
<g id="star" clip-path="url(#clip0_7498_15327)">
<path id="Primary" d="M5.9979 2.44141e-05C6.18957 2.44141e-05 6.36457 0.108358 6.44791 0.281274L7.87707 3.22502L11.0687 3.69586C11.2562 3.72294 11.4125 3.85419 11.4708 4.03544C11.5292 4.21669 11.4812 4.41252 11.3479 4.54586L9.03332 6.84169L9.57915 10.0834C9.6104 10.2709 9.53332 10.4604 9.37707 10.5729C9.22082 10.6854 9.01665 10.6979 8.84999 10.6084L5.99582 9.08336L3.14582 10.6063C2.97707 10.6959 2.77291 10.6834 2.61874 10.5709C2.46457 10.4584 2.38541 10.2688 2.41666 10.0813L2.96249 6.83961L0.647905 4.54586C0.512489 4.41252 0.466655 4.21461 0.524989 4.03544C0.583322 3.85627 0.739572 3.72502 0.927072 3.69586L4.11874 3.22502L5.54791 0.281274C5.63332 0.108358 5.80624 2.44141e-05 5.9979 2.44141e-05ZM5.9979 1.64586L4.90416 3.90002C4.83124 4.04794 4.69166 4.15211 4.52707 4.17711L2.06249 4.53961L3.85207 6.31252C3.96666 6.42711 4.02082 6.58961 3.99374 6.75002L3.57082 9.24377L5.76249 8.07294C5.91041 7.99377 6.08749 7.99377 6.23332 8.07294L8.42499 9.24377L8.00416 6.75211C7.97707 6.59169 8.02916 6.42919 8.14582 6.31461L9.93541 4.54169L7.47082 4.17711C7.30832 4.15211 7.16666 4.05002 7.09374 3.90002L5.9979 1.64586Z" fill="var(--fill-0, #242526)"/>
</g>
<defs>
<clipPath id="clip0_7498_15327">
<rect width="12" height="10.6667" fill="white"/>
</clipPath>
</defs>
</svg>
