<svg preserveAspectRatio="none" width="100%" height="100%" overflow="visible" style="display: block;" viewBox="0 0 11 11" fill="none" xmlns="http://www.w3.org/2000/svg">
<path id="Primary" d="M9.66667 0.127532C9.86458 -0.049551 10.1667 -0.0412177 10.3542 0.146282L10.5208 0.312949C10.7083 0.500449 10.7167 0.802532 10.5396 1.00045L8.75208 2.99837C8.69792 3.05878 8.66667 3.13795 8.66667 3.22128V3.66712C8.66667 3.85045 8.51667 4.00045 8.33333 4.00045H8.00417C7.90833 4.00045 7.81875 4.04003 7.75625 4.11087L2.09792 10.4359C1.96458 10.5838 1.77708 10.6671 1.57917 10.6671C1.39583 10.6671 1.21875 10.5942 1.08958 10.4629L0.202083 9.57753C0.0729167 9.44628 0 9.27128 0 9.08795C0 8.89003 0.0833333 8.70253 0.23125 8.57128L2.55625 6.49212C2.62708 6.42962 2.66667 6.33795 2.66667 6.2442V5.6692C2.66667 5.48587 2.81667 5.33587 3 5.33587H3.72083C3.80208 5.33587 3.88125 5.30462 3.94375 5.25045L9.66667 0.127532ZM9 6.00045C9.075 6.00045 9.13958 6.05045 9.16042 6.12128L9.46875 7.19837L10.5458 7.5067C10.6167 7.52753 10.6667 7.59212 10.6667 7.66712C10.6667 7.74212 10.6167 7.8067 10.5458 7.82753L9.46875 8.13587L9.16042 9.21295C9.13958 9.28378 9.075 9.33378 9 9.33378C8.925 9.33378 8.86042 9.28378 8.83958 9.21295L8.53125 8.13587L7.45417 7.82753C7.38333 7.8067 7.33333 7.74212 7.33333 7.66712C7.33333 7.59212 7.38333 7.52753 7.45417 7.5067L8.53125 7.19837L8.83958 6.12128C8.86042 6.05045 8.925 6.00045 9 6.00045ZM1.82708 1.45462L2.13542 2.5317L3.2125 2.84003C3.28333 2.86087 3.33333 2.92545 3.33333 3.00045C3.33333 3.07545 3.28333 3.14003 3.2125 3.16087L2.13542 3.4692L1.82708 4.54628C1.80625 4.61712 1.74167 4.66712 1.66667 4.66712C1.59167 4.66712 1.52708 4.61712 1.50625 4.54628L1.19792 3.4692L0.120833 3.16087C0.05 3.14003 0 3.07545 0 3.00045C0 2.92545 0.05 2.86087 0.120833 2.84003L1.19792 2.5317L1.50625 1.45462C1.52708 1.38378 1.59167 1.33378 1.66667 1.33378C1.74167 1.33378 1.80625 1.38378 1.82708 1.45462ZM4.33333 0.000448996C4.41042 0.000448996 4.47708 0.0525323 4.49583 0.127532L4.6375 0.696282L5.20625 0.837949C5.28125 0.856699 5.33333 0.923366 5.33333 1.00045C5.33333 1.07753 5.28125 1.1442 5.20625 1.16295L4.6375 1.30462L4.49583 1.87337C4.47708 1.94837 4.41042 2.00045 4.33333 2.00045C4.25625 2.00045 4.18958 1.94837 4.17083 1.87337L4.02917 1.30462L3.46042 1.16295C3.38542 1.1442 3.33333 1.07753 3.33333 1.00045C3.33333 0.923366 3.38542 0.856699 3.46042 0.837949L4.02917 0.696282L4.17083 0.127532C4.18958 0.0525323 4.25625 0.000448996 4.33333 0.000448996Z" fill="var(--fill-0, #14532D)"/>
</svg>
