<svg xmlns="http://www.w3.org/2000/svg" width="16" height="16" fill="none" viewBox="0 0 16 16">
  <g clip-path="url(#a)">
    <path fill="#242526" d="M12.333 8a4.334 4.334 0 1 0-8.667 0 4.334 4.334 0 0 0 8.667 0ZM2.667 8a5.333 5.333 0 1 1 10.666 0A5.333 5.333 0 0 1 2.667 8ZM5.13 9.213c-.087-.286.148-.546.446-.546h4.846c.298 0 .533.26.446.546a3.002 3.002 0 0 1-5.738 0Zm1.202-2.796A.582.582 0 0 0 5.75 7v.167a.418.418 0 0 1-.417.416.418.418 0 0 1-.417-.416V7A1.415 1.415 0 1 1 7.75 7v.167a.418.418 0 0 1-.417.416.418.418 0 0 1-.417-.416V7a.582.582 0 0 0-.583-.583ZM9.083 7v.167a.417.417 0 0 1-.417.416.418.418 0 0 1-.416-.416V7a1.415 1.415 0 1 1 2.833 0v.167a.418.418 0 0 1-.833 0V7a.582.582 0 1 0-1.167 0Z"/>
  </g>
  <defs>
    <clipPath id="a">
      <path fill="#fff" d="M2.667 2.667h10.667v10.667H2.667z"/>
    </clipPath>
  </defs>
</svg>
