<svg xmlns="http://www.w3.org/2000/svg" width="16" height="16" fill="none" viewBox="0 0 16 16">
  <g clip-path="url(#a)">
    <path fill="#2563EB" d="M8 13.333A5.333 5.333 0 1 0 8 2.667a5.333 5.333 0 0 0 0 10.666ZM4.783 9.208c-.077-.285.156-.541.452-.541h5.53c.295 0 .529.256.451.541a3.335 3.335 0 0 1-6.433 0Zm1.55-3.125a.582.582 0 0 0-.583.584v.166c0 .23-.188.417-.417.417a.418.418 0 0 1-.417-.417v-.166a1.415 1.415 0 1 1 2.834 0v.166c0 .23-.188.417-.417.417a.418.418 0 0 1-.417-.417v-.166a.582.582 0 0 0-.583-.584Zm2.75.584v.166c0 .23-.187.417-.417.417a.418.418 0 0 1-.416-.417v-.166a1.415 1.415 0 1 1 2.833 0v.166c0 .23-.187.417-.417.417a.418.418 0 0 1-.416-.417v-.166a.582.582 0 1 0-1.167 0Z"/>
  </g>
  <defs>
    <clipPath id="a">
      <path fill="#fff" d="M2.667 2.667h10.667v10.667H2.667z"/>
    </clipPath>
  </defs>
</svg>
