<svg xmlns="http://www.w3.org/2000/svg" width="16" height="16" fill="none" viewBox="0 0 16 16">
  <g clip-path="url(#a)">
    <path fill="#242526" d="m7.37 12.42-.051-.047-3.65-3.39a3.137 3.137 0 0 1-1.002-2.3v-.068A3.054 3.054 0 0 1 8 4.58a2.963 2.963 0 0 1 .52-.465 3.056 3.056 0 0 1 4.813 2.498v.07c0 .872-.362 1.706-1.002 2.3l-3.65 3.389-.052.048a.918.918 0 0 1-1.258 0Zm.278-6.732a.11.11 0 0 1-.021-.023l-.37-.417-.003-.002a2.054 2.054 0 0 0-3.587 1.369v.068c0 .594.247 1.163.683 1.567L8 11.64l3.65-3.39a2.14 2.14 0 0 0 .683-1.567v-.068a2.054 2.054 0 0 0-3.585-1.369l-.002.002-.002.002-.371.417c-.006.008-.015.014-.021.023a.498.498 0 0 1-.704 0v-.002Z"/>
  </g>
  <defs>
    <clipPath id="a">
      <path fill="#fff" d="M2.667 2.667h10.667v10.667H2.667z"/>
    </clipPath>
  </defs>
</svg>
