<svg xmlns="http://www.w3.org/2000/svg" width="16" height="16" fill="none" viewBox="0 0 16 16">
  <path fill="#242526" d="M9.714 10.25C10.24 8.806 12 7.842 12 5.762c0-2.14-1.79-3.845-4-3.845S4 3.625 4 5.762c0 2.08 1.76 3.044 2.286 4.488h3.428Z"/>
  <path fill="#242526" d="M9.714 10.25v.5a.5.5 0 0 0 .47-.329l-.47-.17ZM12 5.762h-.5.5ZM6.286 10.25l-.47.171a.5.5 0 0 0 .47.33v-.5ZM12 5.762h.5c0-2.435-2.035-4.345-4.5-4.345v1c1.953 0 3.5 1.502 3.5 3.345h.5ZM8 1.917v-.5c-2.465 0-4.5 1.912-4.5 4.345h1c0-1.841 1.547-3.345 3.5-3.345v-.5ZM6.286 10.25v.5h3.428v-1H6.286v.5ZM4 5.762h-.5c0 1.2.514 2.066 1.044 2.78.132.178.267.349.395.511.13.164.25.32.365.475.227.31.404.597.512.893l.47-.17.47-.172c-.156-.426-.396-.802-.646-1.143-.125-.17-.258-.339-.386-.502-.13-.165-.255-.324-.377-.488-.481-.649-.847-1.303-.847-2.184H4Zm5.714 4.488.47.171c.108-.296.285-.583.513-.894.113-.155.235-.31.364-.474.128-.162.263-.334.395-.51.53-.715 1.044-1.582 1.044-2.78h-1c0 .88-.366 1.534-.847 2.183-.122.164-.248.323-.377.488-.128.163-.26.331-.386.502-.25.341-.49.717-.646 1.143l.47.171Z"/>
  <path fill="#fff" d="M7.5 7.75a.5.5 0 0 1 1 0v3h-1v-3Z"/>
  <path fill="#fff" d="M6.243 5.154a.5.5 0 0 1 .686.172l1.5 2.5a.5.5 0 0 1-.858.515l-1.5-2.5a.5.5 0 0 1 .172-.687Z"/>
  <path fill="#fff" d="M9.723 5.136a.5.5 0 0 0-.67.224c-.245.49-.474.832-.718 1.195-.246.366-.506.754-.782 1.305a.5.5 0 0 0 .894.447c.245-.49.474-.832.718-1.195.246-.366.507-.754.782-1.305a.5.5 0 0 0-.224-.67Z"/>
  <path fill="#242526" d="M9.667 11.417a.5.5 0 0 1 0 1H6.334a.5.5 0 1 1 0-1h3.333Zm-.334 1.667a.5.5 0 0 1 0 1H6.666a.5.5 0 0 1 0-1h2.667Z"/>
</svg>
