<svg xmlns="http://www.w3.org/2000/svg" width="24" height="24" fill="none" viewBox="0 0 24 24">
  <path fill="#242526" d="M10.506 6.019 8.91 7.616a3.267 3.267 0 0 0-1.297.703l-.83.74A1.75 1.75 0 0 1 5.62 9.5H5v4a2.5 2.5 0 0 1 1.697.731l1.112 1.113.22.219.843.843a.502.502 0 0 0 .822-.181.752.752 0 0 1 .54-.478.743.743 0 0 1 .694.203l.338.331a.924.924 0 0 0 1.578-.606.75.75 0 0 1 1.187-.572.75.75 0 0 0 .966-1.14l-2.369-2.37-1.119 1.032a2.257 2.257 0 0 1-3.08-3.3l2.19-2.069a4.617 4.617 0 0 1 6.225-.094l.94.838H21.5c.275 0 .5.225.5.5V15a1 1 0 0 1-1 1h-1a.997.997 0 0 1-.866-.5h-2.653a2.257 2.257 0 0 1-2.39 1.212 2.433 2.433 0 0 1-3.594.884 2 2 0 0 1-2.688-.127l-.84-.844-.219-.219-1.112-1.112a1.007 1.007 0 0 0-.638-.29A1 1 0 0 1 4 16H3a1 1 0 0 1-1-1V8.5c0-.275.225-.5.5-.5h3.119a.242.242 0 0 0 .165-.063l.829-.737A4.765 4.765 0 0 1 9.771 6h.322c.137 0 .278.006.412.019ZM19 14V9.5h-1.5a.742.742 0 0 1-.497-.19L15.85 8.283a3.114 3.114 0 0 0-4.2.063l-2.19 2.069a.757.757 0 0 0 1.031 1.106l2.247-2.075a.748.748 0 0 1 1.059.044.748.748 0 0 1-.044 1.059l-.025.025 2.325 2.325c.313.313.516.697.606 1.097h2.338L19 14Zm-15 .5a.5.5 0 1 0-1 0 .5.5 0 0 0 1 0Zm16.5.5a.5.5 0 1 0 0-1 .5.5 0 0 0 0 1Z"/>
</svg>
