<svg xmlns="http://www.w3.org/2000/svg" width="24" height="24" fill="none" viewBox="0 0 24 24">
  <path fill="#242526" d="M11 4a1 1 0 0 1 1 1v6.5h-2V5a1 1 0 0 1 1-1Zm3 5a1 1 0 0 1 1 1v2a.999.999 0 1 1-2 0v-2a1 1 0 0 1 1-1Zm2 2a.999.999 0 1 1 2 0v2a.999.999 0 1 1-2 0v-2ZM6.916 5.6l2.58 5.9H7.313L5.084 6.4A.998.998 0 0 1 5.6 5.084a.997.997 0 0 1 1.316.516Zm.843 6.916-.006-.016h3a1.25 1.25 0 1 1 0 2.5h-1.75c-.275 0-.5.225-.5.5s.225.5.5.5h1.75a2.249 2.249 0 0 0 2.25-2.25v-.019a2 2 0 0 0 2.113-.069 2 2 0 0 0 2.887 1.07V15c0 2.762-2.237 5-5 5h-1.928a5 5 0 0 1-3.534-1.466l-.363-.362A3.983 3.983 0 0 1 6 15.344V14.5a2 2 0 0 1 1.76-1.984Z"/>
</svg>
