<svg xmlns="http://www.w3.org/2000/svg" width="24" height="24" fill="none" viewBox="0 0 24 24">
  <path fill="#242526" d="M4.25 6.75a1.75 1.75 0 1 1 3.5 0 1.75 1.75 0 0 1-3.5 0ZM4 11.678c-.313.35-.5.816-.5 1.322 0 .506.188.972.5 1.322v-2.647.003Zm4.512-1.54A4.48 4.48 0 0 0 7 13.5a4.48 4.48 0 0 0 1 2.828V17a1 1 0 0 1-1 1H5a1 1 0 0 1-1-1v-.837A3.502 3.502 0 0 1 5.5 9.5h1c.75 0 1.444.234 2.012.634v.003ZM16 17v-.672a4.48 4.48 0 0 0 1-2.828c0-1.338-.584-2.54-1.512-3.366A3.485 3.485 0 0 1 17.5 9.5h1a3.502 3.502 0 0 1 1.5 6.663V17a1 1 0 0 1-1 1h-2a1 1 0 0 1-1-1Zm.25-10.25a1.75 1.75 0 1 1 3.5 0 1.75 1.75 0 0 1-3.5 0ZM20 11.678v2.647c.313-.353.5-.816.5-1.322a1.98 1.98 0 0 0-.5-1.322v-.003ZM12 5a2 2 0 1 1 0 4 2 2 0 0 1 0-4Zm-2.5 8.5c0 .506.188.969.5 1.322v-2.647c-.313.353-.5.816-.5 1.322v.003Zm4.5-1.322v2.647c.313-.353.5-.816.5-1.322a1.98 1.98 0 0 0-.5-1.322v-.003Zm2 1.322c0 1.397-.819 2.6-2 3.163V18a1 1 0 0 1-1 1h-2a1 1 0 0 1-1-1v-1.337A3.502 3.502 0 0 1 11.5 10h1c1.934 0 3.5 1.566 3.5 3.5Z"/>
</svg>
