<svg xmlns="http://www.w3.org/2000/svg" width="24" height="24" fill="none" viewBox="0 0 24 24">
  <g clip-path="url(#a)">
    <path fill="#242526" d="M5 8a4 4 0 1 1 8 0 4 4 0 0 1-8 0ZM2 19.072A5.57 5.57 0 0 1 7.572 13.5h2.856A5.57 5.57 0 0 1 16 19.072a.928.928 0 0 1-.928.928H2.928A.928.928 0 0 1 2 19.072Zm15.75-5.322v-2h-2A.748.748 0 0 1 15 11c0-.416.334-.75.75-.75h2v-2c0-.416.334-.75.75-.75s.75.334.75.75v2h2c.416 0 .75.334.75.75s-.334.75-.75.75h-2v2c0 .416-.334.75-.75.75a.748.748 0 0 1-.75-.75Z"/>
  </g>
  <defs>
    <clipPath id="a">
      <path fill="#fff" d="M2 4h20v16H2z"/>
    </clipPath>
  </defs>
</svg>
