<svg preserveAspectRatio="none" width="100%" height="100%" overflow="visible" style="display: block;" viewBox="0 0 14 11" fill="none" xmlns="http://www.w3.org/2000/svg">
<g id="comments" clip-path="url(#clip0_7498_15341)">
<path id="Primary" d="M4.33322 7.33333C6.72697 7.33333 8.66655 5.69167 8.66655 3.66667C8.66655 1.64167 6.72697 0 4.33322 0C1.93947 0 -0.000114005 1.64167 -0.000114005 3.66667C-0.000114005 4.47083 0.306136 5.21458 0.824886 5.82083C0.751969 6.01667 0.643636 6.18958 0.529053 6.33542C0.429053 6.46458 0.326969 6.56458 0.251969 6.63333C0.214469 6.66667 0.183219 6.69375 0.162386 6.71042C0.151969 6.71875 0.143636 6.725 0.139469 6.72708L0.135303 6.73125C0.0207193 6.81667 -0.0292807 6.96667 0.0165527 7.10208C0.062386 7.2375 0.189469 7.33333 0.333219 7.33333C0.787386 7.33333 1.24572 7.21667 1.62697 7.07292C1.81864 7 1.9978 6.91875 2.15197 6.83542C2.79364 7.15208 3.53739 7.33333 4.33322 7.33333ZM9.33322 3.66667C9.33322 6.00625 7.26864 7.76875 4.8228 7.97917C5.32905 9.52917 7.00822 10.6667 8.99989 10.6667C9.79572 10.6667 10.5395 10.4854 11.1811 10.1688C11.3374 10.2521 11.5145 10.3333 11.7061 10.4063C12.0874 10.55 12.5457 10.6667 12.9999 10.6667C13.1436 10.6667 13.2728 10.5729 13.3166 10.4354C13.3603 10.2979 13.3124 10.1479 13.1957 10.0625L13.1916 10.0583C13.1874 10.0542 13.1791 10.05 13.1686 10.0417C13.1478 10.025 13.1166 10 13.0791 9.96458C13.0041 9.89583 12.902 9.79583 12.802 9.66667C12.6874 9.52083 12.5791 9.34583 12.5061 9.15208C13.0249 8.54792 13.3311 7.80417 13.3311 6.99792C13.3311 5.06458 11.5624 3.47917 9.31864 3.34167C9.32697 3.44792 9.33114 3.55625 9.33114 3.66458L9.33322 3.66667Z" fill="var(--fill-0, #242526)"/>
</g>
<defs>
<clipPath id="clip0_7498_15341">
<rect width="13.3333" height="10.6667" fill="white"/>
</clipPath>
</defs>
</svg>
