<svg preserveAspectRatio="none" width="100%" height="100%" overflow="visible" style="display: block;" viewBox="0 0 11 11" fill="none" xmlns="http://www.w3.org/2000/svg">
<g id="envelope" clip-path="url(#clip0_7498_15347)">
<path id="Primary" d="M0.99998 1.33337C0.447896 1.33337 -2.02656e-05 1.78129 -2.02656e-05 2.33337C-2.02656e-05 2.64796 0.147896 2.94379 0.39998 3.13337L4.93331 6.53337C5.17081 6.71046 5.49581 6.71046 5.73331 6.53337L10.2666 3.13337C10.5187 2.94379 10.6666 2.64796 10.6666 2.33337C10.6666 1.78129 10.2187 1.33337 9.66665 1.33337H0.99998ZM-2.02656e-05 3.66671V8.00004C-2.02656e-05 8.73546 0.597896 9.33337 1.33331 9.33337H9.33331C10.0687 9.33337 10.6666 8.73546 10.6666 8.00004V3.66671L6.13331 7.06671C5.65831 7.42296 5.00831 7.42296 4.53331 7.06671L-2.02656e-05 3.66671Z" fill="var(--fill-0, #242526)"/>
</g>
<defs>
<clipPath id="clip0_7498_15347">
<rect width="10.6667" height="10.6667" fill="white"/>
</clipPath>
</defs>
</svg>
