<svg preserveAspectRatio="none" width="100%" height="100%" overflow="visible" style="display: block;" viewBox="0 0 11 11" fill="none" xmlns="http://www.w3.org/2000/svg">
<g id="inbox" clip-path="url(#clip0_7498_15356)">
<path id="Primary" d="M2.52081 0.666707C1.90831 0.666707 1.37498 1.08337 1.22706 1.67712L0.0395631 6.42504C0.0124797 6.53129 -2.02656e-05 6.63962 -2.02656e-05 6.74796V8.66671C-2.02656e-05 9.40212 0.597896 10 1.33331 10H9.33331C10.0687 10 10.6666 9.40212 10.6666 8.66671V6.74796C10.6666 6.63962 10.6541 6.53129 10.6271 6.42504L9.43956 1.67712C9.29165 1.08337 8.75831 0.666707 8.14581 0.666707H2.52081ZM2.52081 2.00004H8.14581L9.14581 6.00004H8.07915C7.82706 6.00004 7.59581 6.14171 7.48331 6.36879L7.1854 6.96462C7.0729 7.18962 6.84165 7.33337 6.58956 7.33337H4.08123C3.82915 7.33337 3.5979 7.19171 3.4854 6.96462L3.18748 6.36879C3.07498 6.14379 2.84373 6.00004 2.59165 6.00004H1.52081L2.52081 2.00004Z" fill="var(--fill-0, #242526)"/>
</g>
<defs>
<clipPath id="clip0_7498_15356">
<rect width="10.6667" height="10.6667" fill="white"/>
</clipPath>
</defs>
</svg>
