<svg preserveAspectRatio="none" width="100%" height="100%" overflow="visible" style="display: block;" viewBox="0 0 11 11" fill="none" xmlns="http://www.w3.org/2000/svg">
<g id="message" clip-path="url(#clip0_7498_15353)">
<path id="Primary" d="M3.33333 7.66667C3.88542 7.66667 4.33333 8.11458 4.33333 8.66667V9L5.84375 7.86667C6.01667 7.7375 6.22708 7.66667 6.44375 7.66667H9.33333C9.51667 7.66667 9.66667 7.51667 9.66667 7.33333V1.33333C9.66667 1.15 9.51667 1 9.33333 1H1.33333C1.15 1 1 1.15 1 1.33333V7.33333C1 7.51667 1.15 7.66667 1.33333 7.66667H3.33333ZM4.33333 10.25L4.32917 10.2542L4.22292 10.3333L3.86667 10.6C3.76667 10.675 3.63125 10.6875 3.51667 10.6313C3.40208 10.575 3.33333 10.4604 3.33333 10.3333V9.88958V9.75625V9.75V9.66667V8.66667H2.33333H1.33333C0.597917 8.66667 0 8.06875 0 7.33333V1.33333C0 0.597917 0.597917 0 1.33333 0H9.33333C10.0688 0 10.6667 0.597917 10.6667 1.33333V7.33333C10.6667 8.06875 10.0688 8.66667 9.33333 8.66667H6.44375L4.33333 10.25Z" fill="var(--fill-0, #242526)"/>
</g>
<defs>
<clipPath id="clip0_7498_15353">
<rect width="10.6667" height="10.6667" fill="white"/>
</clipPath>
</defs>
</svg>
