<svg preserveAspectRatio="none" width="100%" height="100%" overflow="visible" style="display: block;" viewBox="0 0 11 11" fill="none" xmlns="http://www.w3.org/2000/svg">
<g id="paper-plane" clip-path="url(#clip0_7498_15344)">
<path id="Primary" d="M10.377 0.116627C10.5874 0.26246 10.6978 0.514543 10.6582 0.766627L9.32489 9.43329C9.29364 9.63538 9.17073 9.81246 8.99156 9.91246C8.81239 10.0125 8.59781 10.025 8.40823 9.94579L5.91656 8.91038L4.48948 10.4541C4.30406 10.6562 4.01239 10.7229 3.75614 10.6229C3.49989 10.5229 3.33323 10.275 3.33323 9.99996V8.25829C3.33323 8.17496 3.36448 8.09579 3.42073 8.03329L6.91239 4.22496C7.03322 4.09371 7.02906 3.89163 6.90406 3.76663C6.77906 3.64163 6.57697 3.63329 6.44572 3.75204L2.20822 7.51663L0.368642 6.59579C0.147808 6.48538 0.00614151 6.26454 -0.000108495 6.01871C-0.0063585 5.77288 0.122808 5.54371 0.335308 5.42079L9.66864 0.0874602C9.89156 -0.0396232 10.1666 -0.0271232 10.377 0.116627Z" fill="var(--fill-0, #242526)"/>
</g>
<defs>
<clipPath id="clip0_7498_15344">
<rect width="10.6667" height="10.6667" fill="white"/>
</clipPath>
</defs>
</svg>
