<svg preserveAspectRatio="none" width="100%" height="100%" overflow="visible" style="display: block;" viewBox="0 0 11 11" fill="none" xmlns="http://www.w3.org/2000/svg">
<g id="reply" clip-path="url(#clip0_7498_15359)">
<path id="Primary" d="M4.27081 0.725054C4.5104 0.831304 4.66665 1.07089 4.66665 1.33339V2.66672H6.99998C9.02498 2.66672 10.6666 4.30839 10.6666 6.33339C10.6666 8.6938 8.96873 9.74797 8.57915 9.96047C8.52706 9.98964 8.46873 10.0001 8.4104 10.0001C8.18331 10.0001 7.99998 9.81464 7.99998 9.58964C7.99998 9.43339 8.08956 9.28964 8.20415 9.18339C8.39998 9.00005 8.66665 8.63339 8.66665 8.00214C8.66665 6.89797 7.77081 6.00214 6.66665 6.00214H4.66665V7.33547C4.66665 7.59797 4.51248 7.83755 4.27081 7.9438C4.02915 8.05005 3.74998 8.0063 3.55415 7.8313L0.220813 4.8313C0.0812297 4.70214 -2.02656e-05 4.52297 -2.02656e-05 4.33339C-2.02656e-05 4.1438 0.0812297 3.96464 0.220813 3.83755L3.55415 0.837554C3.74998 0.66047 4.03123 0.61672 4.27081 0.725054Z" fill="var(--fill-0, #242526)"/>
</g>
<defs>
<clipPath id="clip0_7498_15359">
<rect width="10.6667" height="10.6667" fill="white"/>
</clipPath>
</defs>
</svg>
