<svg preserveAspectRatio="none" width="100%" height="100%" overflow="visible" style="display: block;" viewBox="0 0 10 11" fill="none" xmlns="http://www.w3.org/2000/svg">
<g id="hashtag" clip-path="url(#clip0_7498_15336)">
<path id="Primary" d="M3.7771 0.675024C4.1396 0.73544 4.38544 1.07919 4.32502 1.44169L4.12085 2.66669H6.1021L6.34169 1.22294C6.4021 0.86044 6.74585 0.614607 7.10835 0.675024C7.47085 0.73544 7.71669 1.07919 7.65627 1.44169L7.45419 2.66669H8.66669C9.03544 2.66669 9.33335 2.96461 9.33335 3.33336C9.33335 3.70211 9.03544 4.00002 8.66669 4.00002H7.23127L6.78752 6.66669H8.00002C8.36877 6.66669 8.66669 6.96461 8.66669 7.33336C8.66669 7.70211 8.36877 8.00002 8.00002 8.00002H6.5646L6.32502 9.44377C6.2646 9.80627 5.92085 10.0521 5.55835 9.99169C5.19585 9.93127 4.95002 9.58752 5.01044 9.22502L5.2146 8.00211H3.23335L2.99377 9.44586C2.93335 9.80836 2.5896 10.0542 2.2271 9.99377C1.8646 9.93336 1.61877 9.58961 1.67919 9.22711L1.87919 8.00002H0.666687C0.297937 8.00002 2.04444e-05 7.70211 2.04444e-05 7.33336C2.04444e-05 6.96461 0.297937 6.66669 0.666687 6.66669H2.1021L2.54585 4.00002H1.33335C0.964604 4.00002 0.666687 3.70211 0.666687 3.33336C0.666687 2.96461 0.964604 2.66669 1.33335 2.66669H2.76877L3.00835 1.22294C3.06877 0.86044 3.41252 0.614607 3.77502 0.675024H3.7771ZM3.89794 4.00002L3.45419 6.66669H5.43544L5.87919 4.00002H3.89794Z" fill="var(--fill-0, #242526)"/>
<g id="message">
<path id="Primary_2" d="M8.08303 5.09998C8.53353 5.09998 8.90023 5.46592 8.90041 5.91638V8.54138C8.90041 8.99199 8.53364 9.35876 8.08303 9.35876H6.8965L5.83205 10.1576L5.8301 10.1586C5.71647 10.2421 5.5636 10.258 5.43459 10.1937C5.30588 10.1294 5.22463 9.99736 5.22463 9.85388V9.35876H4.58303C4.13257 9.35859 3.76662 8.99188 3.76662 8.54138V5.91638C3.7668 5.46603 4.13267 5.10015 4.58303 5.09998H8.08303Z" fill="var(--fill-0, #242526)" stroke="var(--stroke-0, white)" stroke-width="0.466667"/>
</g>
</g>
<defs>
<clipPath id="clip0_7498_15336">
<rect width="9.33333" height="10.6667" fill="white"/>
</clipPath>
</defs>
</svg>
