<svg xmlns="http://www.w3.org/2000/svg" width="24" height="24" fill="none" viewBox="0 0 24 24">
  <g clip-path="url(#a)">
    <path fill="#242526" d="M15 12c0 .694-.037 1.363-.103 2h-5.79a19.538 19.538 0 0 1 0-4h5.79c.069.637.103 1.306.103 2Zm.9-2h3.847c.166.64.253 1.31.253 2s-.087 1.36-.253 2H15.9c.066-.644.1-1.313.1-2 0-.688-.034-1.356-.1-2Zm3.519-1h-3.647c-.313-1.997-.931-3.669-1.728-4.737A8.016 8.016 0 0 1 19.416 9h.003Zm-4.66 0H9.241c.19-1.138.484-2.144.843-2.96.329-.737.694-1.271 1.047-1.609.35-.331.64-.431.869-.431.228 0 .519.1.869.431.353.338.719.872 1.047 1.61.362.812.653 1.818.843 2.959ZM8.23 9H4.58a8.02 8.02 0 0 1 5.375-4.737C9.16 5.33 8.541 7.003 8.228 9Zm-3.976 1H8.1c-.066.644-.1 1.313-.1 2 0 .688.034 1.356.1 2H4.253A7.972 7.972 0 0 1 4 12c0-.69.088-1.36.253-2Zm5.831 7.956c-.362-.812-.653-1.819-.843-2.956h5.518c-.19 1.137-.484 2.144-.843 2.956-.329.738-.694 1.272-1.047 1.61-.35.334-.64.434-.869.434-.228 0-.519-.1-.869-.431-.353-.338-.719-.872-1.047-1.61v-.003ZM8.228 15c.313 1.997.931 3.669 1.728 4.738A8.02 8.02 0 0 1 4.581 15h3.647Zm11.19 0a8.022 8.022 0 0 1-5.371 4.738c.797-1.07 1.412-2.741 1.728-4.738h3.647-.003Z"/>
  </g>
  <defs>
    <clipPath id="a">
      <path fill="#fff" d="M4 4h16v16H4z"/>
    </clipPath>
  </defs>
</svg>
