<svg xmlns="http://www.w3.org/2000/svg" width="24" height="24" fill="none" viewBox="0 0 24 24">
  <g clip-path="url(#a)">
    <path fill="#242526" d="m15.512 4.572-1.74 1.744 3.912 3.912 1.74-1.74a1.748 1.748 0 0 0 0-2.475l-1.437-1.441a1.748 1.748 0 0 0-2.475 0ZM13 6.956l-.288.088-4.503 1.35a1.998 1.998 0 0 0-1.322 1.281L4.12 17.931a.998.998 0 0 0 .228 1.013l4.8-4.797a1.5 1.5 0 1 1 .706.706l-4.8 4.8a.99.99 0 0 0 1.012.228l8.26-2.768a2.005 2.005 0 0 0 1.281-1.322l1.35-4.504.084-.287L13 6.956Z"/>
  </g>
  <defs>
    <clipPath id="a">
      <path fill="#fff" d="M4 4h16v16H4z"/>
    </clipPath>
  </defs>
</svg>
