<svg preserveAspectRatio="none" width="100%" height="100%" overflow="visible" style="display: block;" viewBox="0 0 22 22" fill="none" xmlns="http://www.w3.org/2000/svg">
<g id="bell" clip-path="url(#clip0_7498_15374)">
<path id="Primary" d="M10.6666 2.0504e-05C9.92914 2.0504e-05 9.33331 0.595854 9.33331 1.33335V2.13335C6.29164 2.75002 3.99998 5.44169 3.99998 8.66669V9.45002C3.99998 11.4084 3.27914 13.3 1.97914 14.7667L1.67081 15.1125C1.32081 15.5042 1.23748 16.0667 1.44998 16.5459C1.66248 17.025 2.14164 17.3334 2.66664 17.3334H18.6666C19.1916 17.3334 19.6666 17.025 19.8833 16.5459C20.1 16.0667 20.0125 15.5042 19.6625 15.1125L19.3541 14.7667C18.0541 13.3 17.3333 11.4125 17.3333 9.45002V8.66669C17.3333 5.44169 15.0416 2.75002 12 2.13335V1.33335C12 0.595854 11.4041 2.0504e-05 10.6666 2.0504e-05ZM12.5541 20.5542C13.0541 20.0542 13.3333 19.375 13.3333 18.6667H10.6666H7.99998C7.99998 19.375 8.27914 20.0542 8.77914 20.5542C9.27914 21.0542 9.95831 21.3334 10.6666 21.3334C11.375 21.3334 12.0541 21.0542 12.5541 20.5542Z" fill="var(--fill-0, #242526)"/>
</g>
<defs>
<clipPath id="clip0_7498_15374">
<rect width="21.3333" height="21.3333" fill="white"/>
</clipPath>
</defs>
</svg>
