<svg preserveAspectRatio="none" width="100%" height="100%" overflow="visible" style="display: block;" viewBox="0 0 19 22" fill="none" xmlns="http://www.w3.org/2000/svg">
<path id="Primary" d="M9.3324 0C8.5949 0 7.99907 0.595833 7.99907 1.33333V2.13333C4.9574 2.75 2.66574 5.44167 2.66574 8.66667V9.725C2.66574 11.6167 2.0199 13.4542 0.840735 14.9292L0.219902 15.7083C-0.0217651 16.0083 -0.0675984 16.4208 0.0990683 16.7667C0.265735 17.1125 0.615735 17.3333 0.999068 17.3333H17.6657C18.0491 17.3333 18.3991 17.1125 18.5657 16.7667C18.7324 16.4208 18.6866 16.0083 18.4449 15.7083L17.8241 14.9333C16.6449 13.4542 15.9991 11.6167 15.9991 9.725V8.66667C15.9991 5.44167 13.7074 2.75 10.6657 2.13333V1.33333C10.6657 0.595833 10.0699 0 9.3324 0ZM9.3324 4C11.9116 4 13.9991 6.0875 13.9991 8.66667V9.725C13.9991 11.7208 14.5782 13.6667 15.6532 15.3333H3.01157C4.08657 13.6667 4.66574 11.7208 4.66574 9.725V8.66667C4.66574 6.0875 6.75324 4 9.3324 4ZM11.9991 18.6667H9.3324H6.66574C6.66574 19.375 6.9449 20.0542 7.4449 20.5542C7.9449 21.0542 8.62407 21.3333 9.3324 21.3333C10.0407 21.3333 10.7199 21.0542 11.2199 20.5542C11.7199 20.0542 11.9991 19.375 11.9991 18.6667Z" fill="var(--fill-0, #242526)"/>
</svg>
