<svg preserveAspectRatio="none" width="100%" height="100%" overflow="visible" style="display: block;" viewBox="0 0 22 22" fill="none" xmlns="http://www.w3.org/2000/svg">
<g id="comment">
<path id="Primary" d="M5.1554 16.3042C5.6929 15.9125 6.38874 15.8125 7.01374 16.0375C8.1179 16.4375 9.3554 16.6667 10.6721 16.6667C15.8679 16.6667 19.3387 13.3125 19.3387 10C19.3387 6.68752 15.8679 3.33335 10.6721 3.33335C5.47624 3.33335 2.0054 6.68752 2.0054 10C2.0054 11.3334 2.52207 12.6167 3.4929 13.7167C3.85124 14.1209 4.02624 14.6542 3.98457 15.1959C3.92624 15.95 3.74707 16.6417 3.51374 17.2542C4.22207 16.925 4.80957 16.5584 5.1554 16.3084V16.3042ZM0.888736 17.9959C0.963736 17.8834 1.03457 17.7709 1.10124 17.6584C1.5179 16.9667 1.91374 16.0584 1.9929 15.0375C0.742902 13.6167 0.0054023 11.8792 0.0054023 10C0.0054023 5.21252 4.7804 1.33335 10.6721 1.33335C16.5637 1.33335 21.3387 5.21252 21.3387 10C21.3387 14.7875 16.5637 18.6667 10.6721 18.6667C9.12624 18.6667 7.65957 18.4 6.33457 17.9209C5.83874 18.2834 5.0304 18.7792 4.07207 19.1959C3.4429 19.4709 2.72624 19.7209 1.98457 19.8667C1.95124 19.875 1.9179 19.8792 1.88457 19.8875C1.70124 19.9209 1.52207 19.95 1.33457 19.9667C1.32624 19.9667 1.31374 19.9709 1.3054 19.9709C1.0929 19.9917 0.880402 20.0042 0.667902 20.0042C0.397069 20.0042 0.155402 19.8417 0.0512356 19.5917C-0.052931 19.3417 0.00540229 19.0584 0.192902 18.8667C0.363736 18.6917 0.517902 18.5042 0.663736 18.3042C0.734569 18.2084 0.801236 18.1125 0.863736 18.0167L0.876236 17.9959H0.888736Z" fill="var(--fill-0, #242526)"/>
</g>
</svg>
