<svg preserveAspectRatio="none" width="100%" height="100%" overflow="visible" style="display: block;" viewBox="0 0 22 22" fill="none" xmlns="http://www.w3.org/2000/svg">
<g id="comment" clip-path="url(#clip0_7498_15365)">
<path id="Primary" d="M21.3332 10C21.3332 14.7875 16.5582 18.6667 10.6666 18.6667C9.12073 18.6667 7.65406 18.4 6.32906 17.9209C5.83323 18.2834 5.02489 18.7792 4.06656 19.1959C3.06656 19.6292 1.86239 20 0.66656 20C0.395726 20 0.15406 19.8375 0.049893 19.5875C-0.0542737 19.3375 0.00405967 19.0542 0.19156 18.8625L0.20406 18.85C0.21656 18.8375 0.233226 18.8209 0.258226 18.7917C0.30406 18.7417 0.374893 18.6625 0.462393 18.5542C0.633226 18.3459 0.862393 18.0375 1.09573 17.6542C1.51239 16.9625 1.90823 16.0542 1.98739 15.0334C0.737393 13.6167 -0.000106985 11.8792 -0.000106985 10C-0.000106985 5.21252 4.77489 1.33335 10.6666 1.33335C16.5582 1.33335 21.3332 5.21252 21.3332 10Z" fill="var(--fill-0, #242526)"/>
</g>
<defs>
<clipPath id="clip0_7498_15365">
<rect width="21.3333" height="21.3333" fill="white"/>
</clipPath>
</defs>
</svg>
