<svg preserveAspectRatio="none" width="100%" height="100%" overflow="visible" style="display: block;" viewBox="0 0 27 27" fill="none" xmlns="http://www.w3.org/2000/svg">
<g id="compass">
<path id="Primary" d="M22 13.3333C22 11.0348 21.0869 8.83037 19.4616 7.20505C17.8363 5.57974 15.6319 4.66665 13.3334 4.66665C11.0348 4.66665 8.83043 5.57974 7.20512 7.20505C5.5798 8.83037 4.66671 11.0348 4.66671 13.3333C4.66671 15.6319 5.5798 17.8363 7.20512 19.4616C8.83043 21.0869 11.0348 22 13.3334 22C15.6319 22 17.8363 21.0869 19.4616 19.4616C21.0869 17.8363 22 15.6319 22 13.3333ZM2.66671 13.3333C2.66671 10.5043 3.79051 7.79123 5.7909 5.79084C7.79129 3.79045 10.5044 2.66665 13.3334 2.66665C16.1624 2.66665 18.8755 3.79045 20.8758 5.79084C22.8762 7.79123 24 10.5043 24 13.3333C24 16.1623 22.8762 18.8754 20.8758 20.8758C18.8755 22.8762 16.1624 24 13.3334 24C10.5044 24 7.79129 22.8762 5.7909 20.8758C3.79051 18.8754 2.66671 16.1623 2.66671 13.3333ZM15.4459 16.2125L9.43337 18.525C8.62504 18.8375 7.82921 18.0416 8.14171 17.2333L10.4542 11.2208C10.5917 10.8666 10.8667 10.5916 11.2209 10.4541L17.2334 8.14165C18.0417 7.82915 18.8375 8.62498 18.525 9.43331L16.2125 15.4458C16.075 15.8 15.8 16.075 15.4459 16.2125ZM14.6667 13.3333C14.6667 12.9797 14.5262 12.6406 14.2762 12.3905C14.0261 12.1405 13.687 12 13.3334 12C12.9798 12 12.6406 12.1405 12.3906 12.3905C12.1405 12.6406 12 12.9797 12 13.3333C12 13.6869 12.1405 14.0261 12.3906 14.2761C12.6406 14.5262 12.9798 14.6666 13.3334 14.6666C13.687 14.6666 14.0261 14.5262 14.2762 14.2761C14.5262 14.0261 14.6667 13.6869 14.6667 13.3333Z" fill="var(--fill-0, #242526)"/>
</g>
</svg>
