<svg preserveAspectRatio="none" width="100%" height="100%" overflow="visible" style="display: block;" viewBox="0 0 22 22" fill="none" xmlns="http://www.w3.org/2000/svg">
<g id="compass" clip-path="url(#clip0_7498_15382)">
<path id="Primary" d="M10.6667 21.3333C13.4956 21.3333 16.2088 20.2095 18.2091 18.2091C20.2095 16.2088 21.3333 13.4956 21.3333 10.6667C21.3333 7.83769 20.2095 5.12458 18.2091 3.12419C16.2088 1.12381 13.4956 0 10.6667 0C7.83769 0 5.12458 1.12381 3.12419 3.12419C1.12381 5.12458 0 7.83769 0 10.6667C0 13.4956 1.12381 16.2088 3.12419 18.2091C5.12458 20.2095 7.83769 21.3333 10.6667 21.3333ZM12.7792 13.5458L6.76667 15.8583C5.95833 16.1708 5.1625 15.375 5.475 14.5667L7.7875 8.55417C7.925 8.2 8.2 7.925 8.55417 7.7875L14.5667 5.475C15.375 5.1625 16.1708 5.95833 15.8583 6.76667L13.5458 12.7792C13.4125 13.1333 13.1333 13.4083 12.7792 13.5458ZM12 10.6667C12 10.313 11.8595 9.97391 11.6095 9.72386C11.3594 9.47381 11.0203 9.33333 10.6667 9.33333C10.313 9.33333 9.97391 9.47381 9.72386 9.72386C9.47381 9.97391 9.33333 10.313 9.33333 10.6667C9.33333 11.0203 9.47381 11.3594 9.72386 11.6095C9.97391 11.8595 10.313 12 10.6667 12C11.0203 12 11.3594 11.8595 11.6095 11.6095C11.8595 11.3594 12 11.0203 12 10.6667Z" fill="var(--fill-0, #242526)"/>
</g>
<defs>
<clipPath id="clip0_7498_15382">
<rect width="21.3333" height="21.3333" fill="white"/>
</clipPath>
</defs>
</svg>
