<svg preserveAspectRatio="none" width="100%" height="100%" overflow="visible" style="display: block;" viewBox="0 0 24 22" fill="none" xmlns="http://www.w3.org/2000/svg">
<g id="house-outline" clip-path="url(#clip0_7498_15394)">
<path id="Primary" d="M12.0169 1.00002C12.0706 1.00004 12.126 1.00789 12.1732 1.02248C12.2166 1.03596 12.24 1.05135 12.2493 1.05861L22.8734 10.3965L22.8753 10.3985C22.9615 10.4739 22.9892 10.5234 22.9964 10.5381L22.9915 10.5908V10.6455C22.9915 10.7346 22.9564 10.8175 22.89 10.8828C22.8207 10.951 22.7346 10.9834 22.6585 10.9834H20.3206L20.3255 11.9873L20.3538 18.6631C20.3536 18.7261 20.3489 18.7986 20.3392 18.8858L20.3333 18.9405V19.6709C20.3333 20.0394 20.0349 20.3379 19.6663 20.3379H18.971C18.9636 20.3379 18.9584 20.337 18.9544 20.3369C18.9461 20.3367 18.947 20.3373 18.9535 20.3379L18.8724 20.3301L18.7913 20.336C18.7745 20.3372 18.7519 20.3369 18.6878 20.3369L17.3363 20.333H16.3333C15.9649 20.333 15.6665 20.0354 15.6663 19.667V16C15.6663 14.7102 14.6231 13.667 13.3333 13.667H10.6663C9.37674 13.6672 8.33333 14.7104 8.33333 16V19.667C8.33316 20.0354 8.03478 20.333 7.66634 20.333H5.33724C5.31366 20.333 5.28395 20.3317 5.21615 20.3272L5.14193 20.3223L5.06673 20.3281C5.04038 20.3303 5.02583 20.3322 5.01302 20.333H4.33333C3.96492 20.333 3.66652 20.0354 3.66634 19.667V14.9776L3.66732 14.9678L3.67122 14.9385V10.9795H1.33724C1.22834 10.9794 1.15008 10.9389 1.09798 10.8867C1.04586 10.8345 1.00423 10.7544 1.00423 10.6416C1.00424 10.5274 1.02883 10.4534 1.11556 10.3623L11.7572 1.08693L11.7826 1.06447L11.807 1.04006C11.8199 1.02711 11.8282 1.02282 11.8304 1.0215C11.8329 1.02004 11.8374 1.01727 11.846 1.01467C11.8684 1.00801 11.9146 1.00002 12.0169 1.00002Z" stroke="var(--stroke-0, #242526)" stroke-width="2"/>
</g>
<defs>
<clipPath id="clip0_7498_15394">
<rect width="24" height="21.3333" fill="white"/>
</clipPath>
</defs>
</svg>
