<svg preserveAspectRatio="none" width="100%" height="100%" overflow="visible" style="display: block;" viewBox="0 0 22 22" fill="none" xmlns="http://www.w3.org/2000/svg">
<g id="magnifying-glass" clip-path="url(#clip0_7498_15362)">
<path id="Primary" d="M17.3333 8.66667C17.3333 10.5792 16.7125 12.3458 15.6667 13.7792L20.9417 19.0583C21.4625 19.5792 21.4625 20.425 20.9417 20.9458C20.4208 21.4667 19.575 21.4667 19.0542 20.9458L13.7792 15.6667C12.3458 16.7167 10.5792 17.3333 8.66667 17.3333C3.87917 17.3333 0 13.4542 0 8.66667C0 3.87917 3.87917 0 8.66667 0C13.4542 0 17.3333 3.87917 17.3333 8.66667ZM8.66667 14.6667C9.4546 14.6667 10.2348 14.5115 10.9628 14.2099C11.6907 13.9084 12.3522 13.4665 12.9093 12.9093C13.4665 12.3522 13.9084 11.6907 14.2099 10.9628C14.5115 10.2348 14.6667 9.4546 14.6667 8.66667C14.6667 7.87874 14.5115 7.09852 14.2099 6.37057C13.9084 5.64261 13.4665 4.98118 12.9093 4.42403C12.3522 3.86687 11.6907 3.42492 10.9628 3.12339C10.2348 2.82186 9.4546 2.66667 8.66667 2.66667C7.87874 2.66667 7.09852 2.82186 6.37057 3.12339C5.64261 3.42492 4.98118 3.86687 4.42403 4.42403C3.86687 4.98118 3.42492 5.64261 3.12339 6.37057C2.82186 7.09852 2.66667 7.87874 2.66667 8.66667C2.66667 9.4546 2.82186 10.2348 3.12339 10.9628C3.42492 11.6907 3.86687 12.3522 4.42403 12.9093C4.98118 13.4665 5.64261 13.9084 6.37057 14.2099C7.09852 14.5115 7.87874 14.6667 8.66667 14.6667Z" fill="var(--fill-0, #242526)"/>
</g>
<defs>
<clipPath id="clip0_7498_15362">
<rect width="21.3333" height="21.3333" fill="white"/>
</clipPath>
</defs>
</svg>
