<svg preserveAspectRatio="none" width="100%" height="100%" overflow="visible" style="display: block;" viewBox="0 0 27 22" fill="none" xmlns="http://www.w3.org/2000/svg">
<g id="users" clip-path="url(#clip0_7498_15388)">
<path id="Primary" d="M10.8877 15.667H15.7754C18.2942 15.6672 20.3329 17.707 20.333 20.2207C20.333 20.2834 20.2826 20.333 20.2207 20.333H6.44141C6.38569 20.3329 6.34227 20.2927 6.33301 20.2402V20.2207C6.33308 17.7064 8.37336 15.667 10.8877 15.667ZM13.333 6.33301C14.1287 6.33301 14.8925 6.6493 15.4551 7.21191C16.0175 7.77443 16.3329 8.53755 16.333 9.33301C16.333 10.1287 16.0177 10.8925 15.4551 11.4551C14.8925 12.0177 14.1287 12.333 13.333 12.333C12.5376 12.3329 11.7744 12.0175 11.2119 11.4551C10.6493 10.8925 10.333 10.1287 10.333 9.33301C10.3331 8.53748 10.6494 7.77445 11.2119 7.21191C11.7744 6.64938 12.5375 6.33309 13.333 6.33301ZM20.4414 9H22.2207C24.0848 9 25.6044 10.4833 25.6641 12.333H18.9072C19.3884 11.4396 19.6621 10.4181 19.6621 9.33301C19.6621 9.25056 19.6594 9.16889 19.6562 9.08789C19.9071 9.03009 20.1698 9.00002 20.4414 9ZM4.44629 9H6.22461C6.4941 9 6.75669 9.03139 7.00879 9.08984C7.0059 9.17102 7.00391 9.25211 7.00391 9.33301C7.00391 10.4189 7.28041 11.4402 7.76172 12.333H1.00293C1.06257 10.4833 2.58217 9 4.44629 9ZM6 1C6.61884 1 7.21281 1.24601 7.65039 1.68359C8.0877 2.12107 8.33292 2.71444 8.33301 3.33301C8.33301 3.95177 8.08787 4.54583 7.65039 4.9834C7.21281 5.42098 6.61884 5.66699 6 5.66699C5.38116 5.66699 4.78719 5.42098 4.34961 4.9834C3.91213 4.54583 3.66699 3.95177 3.66699 3.33301C3.66708 2.71444 3.9123 2.12107 4.34961 1.68359C4.78719 1.24601 5.38116 1 6 1ZM21.333 1C21.9518 1 22.5458 1.24601 22.9834 1.68359C23.4208 2.12109 23.6669 2.71436 23.667 3.33301C23.667 3.95185 23.421 4.54581 22.9834 4.9834C22.5458 5.42098 21.9518 5.66699 21.333 5.66699C20.7144 5.66691 20.1211 5.4208 19.6836 4.9834C19.246 4.54581 19 3.95185 19 3.33301C19.0001 2.71429 19.2461 2.1211 19.6836 1.68359C20.1211 1.24609 20.7143 1.00009 21.333 1Z" stroke="var(--stroke-0, #242526)" stroke-width="2"/>
</g>
<defs>
<clipPath id="clip0_7498_15388">
<rect width="26.6667" height="21.3333" fill="white"/>
</clipPath>
</defs>
</svg>
