<svg preserveAspectRatio="none" width="100%" height="100%" overflow="visible" style="display: block;" viewBox="0 0 27 22" fill="none" xmlns="http://www.w3.org/2000/svg">
<g id="users" clip-path="url(#clip0_7498_15391)">
<path id="Primary" d="M6 0C6.88406 0 7.7319 0.351189 8.35702 0.976311C8.98214 1.60143 9.33333 2.44928 9.33333 3.33333C9.33333 4.21739 8.98214 5.06523 8.35702 5.69036C7.7319 6.31548 6.88406 6.66667 6 6.66667C5.11595 6.66667 4.2681 6.31548 3.64298 5.69036C3.01786 5.06523 2.66667 4.21739 2.66667 3.33333C2.66667 2.44928 3.01786 1.60143 3.64298 0.976311C4.2681 0.351189 5.11595 0 6 0ZM21.3333 0C22.2174 0 23.0652 0.351189 23.6904 0.976311C24.3155 1.60143 24.6667 2.44928 24.6667 3.33333C24.6667 4.21739 24.3155 5.06523 23.6904 5.69036C23.0652 6.31548 22.2174 6.66667 21.3333 6.66667C20.4493 6.66667 19.6014 6.31548 18.9763 5.69036C18.3512 5.06523 18 4.21739 18 3.33333C18 2.44928 18.3512 1.60143 18.9763 0.976311C19.6014 0.351189 20.4493 0 21.3333 0ZM0 12.4458C0 9.99167 1.99167 8 4.44583 8H6.225C6.8875 8 7.51667 8.14583 8.08333 8.40417C8.02917 8.70417 8.00417 9.01667 8.00417 9.33333C8.00417 10.925 8.70417 12.3542 9.80833 13.3333C9.8 13.3333 9.79167 13.3333 9.77917 13.3333H0.8875C0.4 13.3333 0 12.9333 0 12.4458ZM16.8875 13.3333C16.8792 13.3333 16.8708 13.3333 16.8583 13.3333C17.9667 12.3542 18.6625 10.925 18.6625 9.33333C18.6625 9.01667 18.6333 8.70833 18.5833 8.40417C19.15 8.14167 19.7792 8 20.4417 8H22.2208C24.675 8 26.6667 9.99167 26.6667 12.4458C26.6667 12.9375 26.2667 13.3333 25.7792 13.3333H16.8917H16.8875ZM9.33333 9.33333C9.33333 8.27247 9.75476 7.25505 10.5049 6.50491C11.2551 5.75476 12.2725 5.33333 13.3333 5.33333C14.3942 5.33333 15.4116 5.75476 16.1618 6.50491C16.9119 7.25505 17.3333 8.27247 17.3333 9.33333C17.3333 10.3942 16.9119 11.4116 16.1618 12.1618C15.4116 12.9119 14.3942 13.3333 13.3333 13.3333C12.2725 13.3333 11.2551 12.9119 10.5049 12.1618C9.75476 11.4116 9.33333 10.3942 9.33333 9.33333ZM5.33333 20.2208C5.33333 17.1542 7.82083 14.6667 10.8875 14.6667H15.775C18.8458 14.6667 21.3333 17.1542 21.3333 20.2208C21.3333 20.8333 20.8375 21.3333 20.2208 21.3333H6.44167C5.82917 21.3333 5.32917 20.8375 5.32917 20.2208H5.33333Z" fill="var(--fill-0, #242526)"/>
</g>
<defs>
<clipPath id="clip0_7498_15391">
<rect width="26.6667" height="21.3333" fill="white"/>
</clipPath>
</defs>
</svg>
