<svg xmlns="http://www.w3.org/2000/svg" width="24" height="24" fill="none" viewBox="0 0 24 24">
  <g clip-path="url(#a)">
    <path fill="#000" d="M12 20a8 8 0 1 0 0-16.001A8 8 0 0 0 12 20ZM9.219 9.219a.747.747 0 0 1 1.06 0l1.718 1.719 1.719-1.72a.75.75 0 0 1 1.06 1.06l-1.72 1.719 1.719 1.719a.75.75 0 0 1-1.06 1.06l-1.718-1.72-1.719 1.719a.75.75 0 0 1-1.06-1.06l1.72-1.718-1.72-1.719a.747.747 0 0 1 0-1.06Z"/>
  </g>
  <defs>
    <clipPath id="a">
      <path fill="#fff" d="M4 4h16v16H4z"/>
    </clipPath>
  </defs>
</svg>
