<svg xmlns="http://www.w3.org/2000/svg" width="24" height="24" fill="none" viewBox="0 0 24 24">
  <g clip-path="url(#a)">
    <path fill="#242526" d="M19.497 9.206a.71.71 0 0 1-.2.769l-1.353 1.231a6.057 6.057 0 0 1 0 1.588l1.353 1.231a.71.71 0 0 1 .2.769 7.734 7.734 0 0 1-.494 1.072l-.147.253a7.95 7.95 0 0 1-.69.975.708.708 0 0 1-.766.212l-1.74-.553a6.07 6.07 0 0 1-1.376.794l-.39 1.784a.706.706 0 0 1-.57.556 8.072 8.072 0 0 1-2.655 0 .706.706 0 0 1-.57-.556l-.39-1.784a6.012 6.012 0 0 1-1.375-.794l-1.737.556a.713.713 0 0 1-.766-.212 7.96 7.96 0 0 1-.69-.975l-.147-.253a7.654 7.654 0 0 1-.494-1.072.708.708 0 0 1 .2-.769l1.353-1.231a6.044 6.044 0 0 1 0-1.59L4.7 9.974a.708.708 0 0 1-.2-.769c.137-.372.303-.728.494-1.072l.146-.253a8.09 8.09 0 0 1 .691-.975c.184-.225.49-.3.766-.212l1.74.553c.42-.322.882-.59 1.375-.794l.39-1.784a.706.706 0 0 1 .57-.556 8.074 8.074 0 0 1 2.656-.003.706.706 0 0 1 .569.556l.39 1.784c.494.203.957.472 1.375.794l1.74-.553a.713.713 0 0 1 .767.212c.253.306.484.631.69.975l.147.253c.19.344.356.7.494 1.072l-.003.003ZM12 14.5a2.5 2.5 0 1 0 0-5 2.5 2.5 0 0 0 0 5Z"/>
  </g>
  <defs>
    <clipPath id="a">
      <path fill="#fff" d="M4 4h16v16H4z"/>
    </clipPath>
  </defs>
</svg>
