<svg xmlns="http://www.w3.org/2000/svg" width="24" height="24" fill="none" viewBox="0 0 24 24">
  <g clip-path="url(#a)">
    <path fill="#242526" d="M20.119 12.366a4.517 4.517 0 0 0 0-6.391 4.518 4.518 0 0 0-5.822-.481l-.05.034a.997.997 0 0 0-.231 1.394 1 1 0 0 0 1.393.231l.05-.034a2.518 2.518 0 0 1 3.244 3.831l-3.506 3.513a2.518 2.518 0 0 1-3.831-3.244l.034-.05a1 1 0 0 0-1.625-1.163l-.034.05a4.517 4.517 0 0 0 6.869 5.819l3.509-3.51ZM3.88 11.634a4.517 4.517 0 0 0 0 6.391 4.518 4.518 0 0 0 5.822.481l.05-.034a.997.997 0 0 0 .231-1.394 1 1 0 0 0-1.393-.231l-.05.034a2.515 2.515 0 0 1-3.244-.268 2.522 2.522 0 0 1 0-3.566l3.506-3.51a2.52 2.52 0 0 1 3.831 3.247l-.034.05a1 1 0 0 0 1.625 1.163l.034-.05A4.517 4.517 0 0 0 7.39 8.125l-3.509 3.51Z"/>
  </g>
  <defs>
    <clipPath id="a">
      <path fill="#fff" d="M2 4h20v16H2z"/>
    </clipPath>
  </defs>
</svg>
