<svg xmlns="http://www.w3.org/2000/svg" width="24" height="24" fill="none" viewBox="0 0 24 24">
  <g clip-path="url(#a)">
    <path fill="#242526" d="M9.225 4.553A.996.996 0 0 1 10.119 4h3.762c.378 0 .725.213.894.553L15 5h3a.999.999 0 1 1 0 2H6a.999.999 0 1 1 0-2h3l.225-.447ZM6 8h12v10c0 1.103-.897 2-2 2H8c-1.103 0-2-.897-2-2V8Zm3 2c-.275 0-.5.225-.5.5v7c0 .275.225.5.5.5s.5-.225.5-.5v-7c0-.275-.225-.5-.5-.5Zm3 0c-.275 0-.5.225-.5.5v7c0 .275.225.5.5.5s.5-.225.5-.5v-7c0-.275-.225-.5-.5-.5Zm3 0c-.275 0-.5.225-.5.5v7c0 .275.225.5.5.5s.5-.225.5-.5v-7c0-.275-.225-.5-.5-.5Z"/>
  </g>
  <defs>
    <clipPath id="a">
      <path fill="#fff" d="M5 4h14v16H5z"/>
    </clipPath>
  </defs>
</svg>
