<svg xmlns="http://www.w3.org/2000/svg" width="24" height="24" fill="none" viewBox="0 0 24 24">
  <g clip-path="url(#a)">
    <path fill="#242526" d="M3.213 4.16a.75.75 0 0 0-.925 1.18l18.5 14.5a.75.75 0 0 0 .925-1.18L17.043 15a.994.994 0 0 0 .77-.416.995.995 0 0 0 .137-.9l-.031-.093a5.251 5.251 0 0 0-2.484-2.96L15.078 6H16a.999.999 0 1 0 0-2H8a.999.999 0 1 0 0 2h.922l-.19 2.484-5.52-4.325ZM12.153 15l-4.618-3.638a5.225 5.225 0 0 0-1.454 2.229l-.03.093a.994.994 0 0 0 .137.9c.187.26.49.416.812.416h5.153ZM11 16v3a.999.999 0 1 0 2 0v-3h-2Z"/>
  </g>
  <defs>
    <clipPath id="a">
      <path fill="#fff" d="M2 4h20v16H2z"/>
    </clipPath>
  </defs>
</svg>
