<svg xmlns="http://www.w3.org/2000/svg" width="24" height="24" fill="none" viewBox="0 0 24 24">
  <g clip-path="url(#a)">
    <path fill="#242526" d="M14.75 4h4.5c.416 0 .75.334.75.75v4.5a.749.749 0 0 1-1.281.531L17.5 8.562l-2.719 2.72a.747.747 0 0 1-1.06 0l-1-1a.747.747 0 0 1 0-1.06l2.72-2.719-1.222-1.222A.751.751 0 0 1 14.75 4Zm-5.5 16h-4.5a.748.748 0 0 1-.75-.75v-4.5a.75.75 0 0 1 1.281-.531L6.5 15.438l2.719-2.72a.747.747 0 0 1 1.06 0l1 1a.747.747 0 0 1 0 1.06l-2.72 2.719 1.22 1.219a.751.751 0 0 1-.532 1.28L9.25 20Z"/>
  </g>
  <defs>
    <clipPath id="a">
      <path fill="#fff" d="M4 4h16v16H4z"/>
    </clipPath>
  </defs>
</svg>
