<svg xmlns="http://www.w3.org/2000/svg" width="24" height="24" fill="none" viewBox="0 0 24 24">
  <g clip-path="url(#a)">
    <path fill="#242526" d="M15 14a4.999 4.999 0 0 0 4.806-6.381c-.097-.338-.512-.413-.76-.166l-2.4 2.4a.502.502 0 0 1-.352.147H14.5a.501.501 0 0 1-.5-.5V7.706a.5.5 0 0 1 .147-.353l2.4-2.4c.247-.247.169-.662-.166-.76A4.999 4.999 0 0 0 10 9c0 .598.106 1.173.297 1.704l-5.675 5.675a2.122 2.122 0 1 0 3 3l5.675-5.675A4.964 4.964 0 0 0 15 14Zm-8.5 2.75a.75.75 0 1 1 0 1.5.75.75 0 0 1 0-1.5Z"/>
  </g>
  <defs>
    <clipPath id="a">
      <path fill="#fff" d="M4 4h16v16H4z"/>
    </clipPath>
  </defs>
</svg>
