<svg xmlns="http://www.w3.org/2000/svg" width="24" height="24" fill="none" viewBox="0 0 24 24">
  <path fill="#242526" d="M6.887 7.307a4.07 4.07 0 0 1 2.904.704h.001a4.2 4.2 0 0 1 .57.488 3.996 3.996 0 0 1 .572-.488l.17-.114a4.09 4.09 0 0 1 1.383-.552 4.763 4.763 0 0 0-.157 1.73 2.46 2.46 0 0 0-.884.63l-.007.006-.003.002h.001l-.059.066-.413.464-.008.01c-.005.006-.011.01-.013.012l-.004.006-.008.008a.807.807 0 0 1-1.138 0l-.048-.049v-.007L9.29 9.71l-.007-.006a2.465 2.465 0 0 0-4.305 1.643v.087c.001.713.3 1.398.823 1.884l4.562 4.237 4.561-4.237a2.51 2.51 0 0 0 .277-.307c.518.22 1.083.35 1.676.374a4.176 4.176 0 0 1-.853 1.117l-4.675 4.342-.067.061a1.344 1.344 0 0 1-1.838 0l-.067-.061-4.675-4.342a4.188 4.188 0 0 1-1.337-3.068v-.088A4.078 4.078 0 0 1 6.68 7.34l.206-.034ZM4.815 14.38l4.676 4.342.066.06-.066-.061-4.676-4.342Zm6.42 4.34-.066.062.067-.06 4.675-4.342v-.001l-4.675 4.342Zm5.85-13.989a.8.8 0 0 1 .8.8v1.95h1.95a.8.8 0 1 1 0 1.6h-1.95v1.95a.8.8 0 1 1-1.6 0v-1.95h-1.95a.8.8 0 1 1 0-1.6h1.95v-1.95a.8.8 0 0 1 .8-.8Zm-6.271 5.43a.64.64 0 0 1-.098.08l.098-.08c.008-.01.018-.019.026-.03-.008.01-.018.019-.026.03Zm-1.406-.568.003.002.474.534v-.001l-.474-.533-.003-.003Z"/>
</svg>
