<svg xmlns="http://www.w3.org/2000/svg" width="24" height="24" fill="none" viewBox="0 0 24 24">
  <path fill="#F472B6" d="m11.056 18.631-.078-.072-5.475-5.084A4.706 4.706 0 0 1 4 10.025v-.103a4.58 4.58 0 0 1 8-3.05 4.04 4.04 0 0 1 .422-.416 4.583 4.583 0 0 1 3.853-1.037A4.584 4.584 0 0 1 20 9.922v.103c0 1.31-.544 2.56-1.503 3.45l-5.475 5.084-.078.072a1.391 1.391 0 0 1-.944.372c-.35 0-.688-.131-.944-.372Zm.416-10.1a.165.165 0 0 1-.031-.034l-.557-.625-.003-.003A3.08 3.08 0 0 0 5.5 9.922v.103c0 .89.372 1.744 1.025 2.35L12 17.459l5.475-5.084a3.21 3.21 0 0 0 1.025-2.35v-.103a3.08 3.08 0 0 0-5.378-2.053l-.003.003-.003.003-.557.625c-.009.012-.021.022-.03.034a.747.747 0 0 1-1.057 0v-.003Z"/>
</svg>
