<svg xmlns="http://www.w3.org/2000/svg" width="24" height="24" fill="none" viewBox="0 0 24 24">
  <g clip-path="url(#a)">
    <path fill="#242526" stroke="#242526" stroke-width="1.5" d="M4 8.75a5 5 0 0 1 5-5h6a5 5 0 0 1 5 5v3.492a5 5 0 0 1-5 5h-.454a.5.5 0 0 0-.316.112l-4.072 3.314a.25.25 0 0 1-.408-.194v-2.982a.25.25 0 0 0-.25-.25H9a5 5 0 0 1-5-5V8.75Z"/>
    <path fill="#fff" d="M15.214 7.281a.75.75 0 0 1 1.172.938l-4.8 6a.75.75 0 0 1-1.036.13l-2.4-1.8a.75.75 0 0 1 .9-1.2l1.817 1.365 4.347-5.433Z"/>
  </g>
  <defs>
    <clipPath id="a">
      <path fill="#fff" d="M0 0h24v24H0z"/>
    </clipPath>
  </defs>
</svg>
