<svg xmlns="http://www.w3.org/2000/svg" width="24" height="24" fill="none" viewBox="0 0 24 24">
  <path fill="#242526" d="M14.571 15.375C15.36 13.208 18 11.762 18 8.644c0-3.21-2.686-5.769-6-5.769S6 5.437 6 8.644c0 3.119 2.64 4.564 3.429 6.731h5.142Z"/>
  <path fill="#242526" d="M14.571 15.375v.75a.75.75 0 0 0 .705-.493l-.705-.257ZM18 8.644h-.75.75Zm-8.571 6.731-.705.257a.75.75 0 0 0 .705.493v-.75ZM18 8.644h.75c0-3.654-3.052-6.519-6.75-6.519v1.5c2.93 0 5.25 2.253 5.25 5.019H18Zm-6-5.769v-.75c-3.698 0-6.75 2.869-6.75 6.519h1.5c0-2.763 2.32-5.019 5.25-5.019v-.75Zm-2.571 12.5v.75h5.142v-1.5H9.43v.75ZM6 8.644h-.75c0 1.798.772 3.099 1.566 4.17.198.265.4.522.592.765.194.247.377.48.547.712.342.466.607.896.769 1.34l.705-.256.704-.257c-.232-.639-.593-1.202-.968-1.714a27.556 27.556 0 0 0-.579-.753c-.194-.247-.383-.486-.565-.732-.723-.973-1.271-1.955-1.271-3.275H6Zm8.571 6.731.705.257c.162-.444.427-.875.769-1.34.17-.233.353-.466.547-.713.192-.243.395-.5.592-.766.794-1.07 1.566-2.372 1.566-4.17h-1.5c0 1.321-.548 2.303-1.27 3.276-.183.246-.372.485-.566.732-.193.244-.391.497-.58.753-.374.512-.735 1.075-.967 1.714l.704.257Z"/>
  <path fill="#fff" d="M11.25 11.625a.75.75 0 0 1 1.5 0v4.5h-1.5v-4.5Z"/>
  <path fill="#fff" d="M9.364 7.731a.75.75 0 0 1 1.03.258l2.25 3.75a.75.75 0 0 1-1.288.772l-2.25-3.75a.75.75 0 0 1 .258-1.03Z"/>
  <path fill="#fff" d="M14.585 7.704a.75.75 0 0 0-1.006.336c-.367.734-.711 1.247-1.077 1.792-.369.549-.76 1.13-1.173 1.958a.75.75 0 0 0 1.342.67c.367-.735.711-1.247 1.077-1.792.369-.549.76-1.13 1.173-1.958a.75.75 0 0 0-.336-1.006Z"/>
  <path fill="#242526" d="M14.5 17.125a.75.75 0 0 1 0 1.5h-5a.75.75 0 0 1 0-1.5h5Zm-.5 2.5a.75.75 0 0 1 0 1.5h-4a.75.75 0 0 1 0-1.5h4Z"/>
</svg>
