<svg xmlns="http://www.w3.org/2000/svg" width="24" height="24" fill="none" viewBox="0 0 24 24">
  <g clip-path="url(#a)">
    <path fill="#242526" d="M18 12a6 6 0 1 0-12 0 6 6 0 0 0 12 0Zm1.5 0a7.5 7.5 0 1 1-15 0 7.5 7.5 0 0 1 15 0Zm-8.25-9.5V1a.75.75 0 0 1 1.5 0v1.5a.75.75 0 0 1-1.5 0Zm0 20.5v-1.5a.75.75 0 0 1 1.5 0V23a.75.75 0 0 1-1.5 0ZM23 11.25a.75.75 0 0 1 0 1.5h-1.5a.75.75 0 0 1 0-1.5H23Zm-20.5 0a.75.75 0 0 1 0 1.5H1a.75.75 0 0 1 0-1.5h1.5Zm15.687-6.498 1.061-1.06a.75.75 0 0 1 1.06 1.06l-1.06 1.06a.75.75 0 0 1-1.06-1.06ZM3.692 19.248l1.06-1.06a.75.75 0 0 1 1.061 1.06l-1.06 1.06a.75.75 0 1 1-1.061-1.06Zm16.616 0a.75.75 0 0 1-1.06 1.06l-1.061-1.06a.75.75 0 1 1 1.06-1.06l1.061 1.06ZM5.813 4.752a.75.75 0 0 1-1.061 1.06l-1.06-1.06a.75.75 0 0 1 1.06-1.06l1.06 1.06Z"/>
    <path fill="#EC8875" d="M9.55 13.94A3.292 3.292 0 0 0 12 15a3.292 3.292 0 0 0 2.45-1.06.75.75 0 0 1 1.103 1.016 4.785 4.785 0 0 1-3.55 1.544 4.769 4.769 0 0 1-3.55-1.544.748.748 0 0 1 .044-1.06.748.748 0 0 1 1.06.045H9.55ZM8.512 10.5a1 1 0 1 1 2 0 1 1 0 0 1-2 0Zm6-1a1 1 0 1 1 0 2 1 1 0 0 1 0-2Z"/>
  </g>
  <defs>
    <clipPath id="a">
      <path fill="#fff" d="M0 0h24v24H0z"/>
    </clipPath>
  </defs>
</svg>
