<svg xmlns="http://www.w3.org/2000/svg" width="24" height="24" fill="none" viewBox="0 0 24 24">
  <path fill="#242526" d="M3 7c0-1.103.897-2 2-2h14c1.103 0 2 .897 2 2v10c0 1.103-.897 2-2 2H5c-1.103 0-2-.897-2-2V7Zm6.25 3.5c.444 0 .844.19 1.119.5a.75.75 0 0 0 1.119-1 3 3 0 1 0-2.234 5 2.99 2.99 0 0 0 2.234-1 .751.751 0 0 0-1.12-1 1.5 1.5 0 1 1-1.119-2.5Zm4.5 1.5a1.5 1.5 0 0 1 2.619-1 .75.75 0 0 0 1.119-1 3 3 0 1 0-2.234 5 2.99 2.99 0 0 0 2.234-1 .751.751 0 0 0-1.12-1 1.5 1.5 0 0 1-2.619-1Z"/>
</svg>
