<svg xmlns="http://www.w3.org/2000/svg" width="24" height="24" fill="none" viewBox="0 0 24 24">
  <g clip-path="url(#a)">
    <path fill="#242526" d="M6.5 4.75A.748.748 0 0 0 5.75 4a.748.748 0 0 0-.75.75v14.5c0 .416.334.75.75.75s.75-.334.75-.75v-3.125l2.51-.628a5.557 5.557 0 0 1 3.828.419 5.535 5.535 0 0 0 4.428.23l1.084-.405a1 1 0 0 0 .65-.938v-8.74a.967.967 0 0 0-1.4-.866l-.3.15a5.13 5.13 0 0 1-4.597 0 5.14 5.14 0 0 0-3.547-.39L6.5 5.624V4.75Zm0 2.422 3.019-.756a3.659 3.659 0 0 1 2.512.275 6.645 6.645 0 0 0 5.469.212v7.556l-.762.285a4.054 4.054 0 0 1-3.232-.169 7.058 7.058 0 0 0-4.862-.534l-2.144.537V7.172Z"/>
  </g>
  <defs>
    <clipPath id="a">
      <path fill="#fff" d="M5 4h14v16H5z"/>
    </clipPath>
  </defs>
</svg>
