<svg xmlns="http://www.w3.org/2000/svg" width="24" height="24" fill="none" viewBox="0 0 24 24">
  <g clip-path="url(#a)">
    <path fill="#242526" d="M16.381 6.619c-.762-.763-2-.763-2.762 0l-5.75 5.75a3.367 3.367 0 1 0 4.762 4.762l4.75-4.75a.877.877 0 0 1 1.238 0c.34.34.34.897 0 1.238l-4.75 4.75c-2 2-5.238 2-7.238 0s-2-5.238 0-7.238l5.75-5.75a3.702 3.702 0 0 1 5.238 0 3.702 3.702 0 0 1 0 5.238l-5.5 5.5A2.29 2.29 0 0 1 8.88 12.88l4.5-4.5a.877.877 0 0 1 1.238 0c.34.34.34.897 0 1.238l-4.5 4.5a.541.541 0 0 0 0 .762c.21.21.553.21.762 0l5.5-5.5c.763-.762.763-2 0-2.762Z"/>
  </g>
  <defs>
    <clipPath id="a">
      <path fill="#fff" d="M5 4h14v16H5z"/>
    </clipPath>
  </defs>
</svg>
