<svg xmlns="http://www.w3.org/2000/svg" width="24" height="24" fill="none" viewBox="0 0 24 24">
  <g clip-path="url(#a)">
    <path fill="#242526" d="m16.822 11.219.353-.353-1.06-1.06-1.94-1.94-1.06-1.06-.352.353-.707.707-6.225 6.225a2.771 2.771 0 0 0-.693 1.168L4.03 19.023a.74.74 0 0 0 .191.74.757.757 0 0 0 .74.191l3.76-1.106c.44-.131.844-.369 1.169-.694l6.225-6.225.706-.71ZM9 16.48l-.284.71a1.316 1.316 0 0 1-.416.215l-2.444.72.72-2.442c.043-.153.118-.293.215-.415l.71-.284v1c0 .274.224.5.5.5h1v-.004Zm6.335-11.897-.45.454-.707.706-.356.353 1.06 1.06 1.94 1.94 1.06 1.06.353-.354.706-.706.453-.453a2 2 0 0 0 0-2.828l-1.228-1.232a2 2 0 0 0-2.828 0h-.003Zm-1.482 5.25-4.5 4.5a.502.502 0 0 1-.706 0 .502.502 0 0 1 0-.706l4.5-4.5a.502.502 0 0 1 .706 0 .502.502 0 0 1 0 .706Z"/>
  </g>
  <defs>
    <clipPath id="a">
      <path fill="#fff" d="M4 4h16v16H4z"/>
    </clipPath>
  </defs>
</svg>
