<svg xmlns="http://www.w3.org/2000/svg" width="24" height="24" fill="none" viewBox="0 0 24 24">
  <g clip-path="url(#a)">
    <path fill="#242526" d="M19 5a1.004 1.004 0 0 0-1.71-.71l-1.362 1.366A8 8 0 0 1 10.272 8H6c-1.103 0-2 .897-2 2v3c0 1.103.897 2 2 2v4a1 1 0 0 0 1 1h2a1 1 0 0 0 1-1v-4h.272a8 8 0 0 1 5.656 2.344l1.363 1.362a.996.996 0 0 0 1.09.216 1 1 0 0 0 .619-.925v-4.613c.581-.275 1-1.015 1-1.887 0-.872-.419-1.613-1-1.888V5Zm-2 2.397v8.206A9.996 9.996 0 0 0 10.272 13H10v-3h.272c2.494 0 4.89-.931 6.728-2.603Z"/>
  </g>
  <defs>
    <clipPath id="a">
      <path fill="#fff" d="M4 4h16v16H4z"/>
    </clipPath>
  </defs>
</svg>
