<svg xmlns="http://www.w3.org/2000/svg" width="24" height="24" fill="none" viewBox="0 0 24 24">
  <rect width="23" height="23" x=".5" y=".5" fill="#FFEEA3" rx="11.5"/>
  <rect width="23" height="23" x=".5" y=".5" stroke="#fff" rx="11.5"/>
  <g clip-path="url(#a)">
    <path fill="#FFC50E" d="M13.714 14.5C14.24 13.056 16 12.092 16 10.012c0-2.14-1.79-3.845-4-3.845s-4 1.708-4 3.845c0 2.08 1.76 3.044 2.286 4.488h3.428Z"/>
    <path fill="#FFC50E" d="M13.714 14.5v.5a.5.5 0 0 0 .47-.329l-.47-.17ZM16 10.012h-.5.5ZM10.286 14.5l-.47.171a.5.5 0 0 0 .47.33v-.5ZM16 10.012h.5c0-2.435-2.035-4.345-4.5-4.345v1c1.953 0 3.5 1.502 3.5 3.345h.5Zm-4-3.845v-.5c-2.465 0-4.5 1.912-4.5 4.345h1c0-1.841 1.547-3.345 3.5-3.345v-.5ZM10.286 14.5v.5h3.428v-1h-3.428v.5ZM8 10.012h-.5c0 1.2.514 2.066 1.044 2.78.132.178.267.349.395.511.13.164.25.32.365.474.227.311.404.598.512.894l.47-.17.47-.172c-.156-.426-.396-.802-.646-1.143-.125-.17-.258-.339-.386-.502-.13-.164-.255-.324-.377-.488-.481-.649-.847-1.303-.847-2.184H8Zm5.714 4.488.47.171c.108-.296.285-.583.513-.893.113-.155.235-.31.364-.475.128-.162.263-.334.395-.51.53-.715 1.044-1.582 1.044-2.78h-1c0 .88-.366 1.534-.847 2.183-.122.164-.248.323-.377.488-.128.163-.26.331-.386.502-.25.341-.49.717-.646 1.143l.47.171Z"/>
    <path fill="#584700" d="M11.5 12a.5.5 0 0 1 1 0v3h-1v-3Z"/>
    <path fill="#584700" d="M10.243 9.404a.5.5 0 0 1 .686.172l1.5 2.5a.5.5 0 0 1-.858.515l-1.5-2.5a.5.5 0 0 1 .172-.687Z"/>
    <path fill="#584700" d="M13.723 9.386a.5.5 0 0 0-.67.224c-.245.49-.474.831-.718 1.195-.246.366-.507.753-.782 1.305a.5.5 0 0 0 .894.447c.245-.49.475-.832.718-1.195.246-.366.507-.754.782-1.306a.5.5 0 0 0-.224-.67Zm-.056 6.281a.5.5 0 1 1 0 1h-3.333a.5.5 0 1 1 0-1h3.333Zm-.334 1.666a.5.5 0 1 1 0 1h-2.667a.5.5 0 0 1 0-1h2.667Z"/>
  </g>
  <defs>
    <clipPath id="a">
      <path fill="#fff" d="M4 4h16v16H4z"/>
    </clipPath>
  </defs>
</svg>
