<svg xmlns="http://www.w3.org/2000/svg" width="24" height="24" fill="none" viewBox="0 0 24 24">
  <path fill="#242526" d="M7.863 16.228a1.503 1.503 0 0 1 1.393-.2A8.06 8.06 0 0 0 12 16.5c3.897 0 6.5-2.516 6.5-5s-2.603-5-6.5-5-6.5 2.516-6.5 5c0 1 .388 1.963 1.116 2.787.269.304.4.704.369 1.11a5.534 5.534 0 0 1-.354 1.544 7.84 7.84 0 0 0 1.232-.71v-.003Zm-3.2 1.269a5.86 5.86 0 0 0 .159-.253c.313-.519.61-1.2.669-1.966C4.553 14.212 4 12.91 4 11.5 4 7.91 7.58 5 12 5c4.418 0 8 2.91 8 6.5S16.418 18 12 18c-1.16 0-2.26-.2-3.254-.56a9.254 9.254 0 0 1-1.697.957 7.66 7.66 0 0 1-1.565.503l-.075.016a4.519 4.519 0 0 1-.413.059l-.022.003c-.16.016-.319.025-.478.025a.5.5 0 0 1-.356-.853 4.49 4.49 0 0 0 .503-.637l.01-.016h.009Z"/>
</svg>
