<svg xmlns="http://www.w3.org/2000/svg" width="24" height="24" fill="none" viewBox="0 0 24 24">
  <g clip-path="url(#a)">
    <path stroke="#242526" stroke-width="1.5" d="M12.013 4.75c.04 0 .082.006.117.017l.058.028 7.966 7.003h.002c.034.03.056.054.07.072l.022.034-.005.038v.042a.246.246 0 0 1-.076.178.253.253 0 0 1-.174.075H18.24l.003.754.023 5.006c0 .047-.005.102-.012.167l-.004.041v.548a.5.5 0 0 1-.5.5h-.535l-.06-.005-.062.004h-.077l-1.014-.002h-.752a.5.5 0 0 1-.5-.5V16A1.75 1.75 0 0 0 13 14.25h-2A1.75 1.75 0 0 0 9.25 16v2.75a.5.5 0 0 1-.5.5H7.003l-.09-.005-.057-.004-.056.005-.041.003-.009.001h-.5a.5.5 0 0 1-.5-.5v-3.524l.003-.022v-2.97h-1.75a.246.246 0 0 1-.18-.069.252.252 0 0 1-.07-.184c0-.085.018-.14.083-.208l7.981-6.958.02-.016.018-.019a.111.111 0 0 1 .017-.014l.012-.004a.472.472 0 0 1 .129-.012Z"/>
  </g>
  <defs>
    <clipPath id="a">
      <path fill="#fff" d="M3 4h18v16H3z"/>
    </clipPath>
  </defs>
</svg>
