<svg xmlns="http://www.w3.org/2000/svg" width="24" height="24" fill="none" viewBox="0 0 24 24">
  <path fill="#242526" d="M9.25 6.5a.748.748 0 0 0-.75.75v9.5c0 .262-.044.516-.128.75h9.378c.416 0 .75-.334.75-.75v-9.5a.748.748 0 0 0-.75-.75h-8.5Zm-3 12.5A2.249 2.249 0 0 1 4 16.75V7.5c0-.416.334-.75.75-.75s.75.334.75.75v9.25c0 .416.334.75.75.75s.75-.334.75-.75v-9.5A2.249 2.249 0 0 1 9.25 5h8.5A2.249 2.249 0 0 1 20 7.25v9.5A2.249 2.249 0 0 1 17.75 19H6.25ZM10 8.75c0-.416.334-.75.75-.75h1.5c.416 0 .75.334.75.75v1.5c0 .416-.334.75-.75.75h-1.5a.748.748 0 0 1-.75-.75v-1.5Zm4.75.75h1.5c.416 0 .75.334.75.75s-.334.75-.75.75h-1.5a.748.748 0 0 1-.75-.75c0-.416.334-.75.75-.75Zm-4 2.5h5.5c.416 0 .75.334.75.75s-.334.75-.75.75h-5.5a.748.748 0 0 1-.75-.75c0-.416.334-.75.75-.75Zm0 2.5h5.5c.416 0 .75.334.75.75s-.334.75-.75.75h-5.5a.748.748 0 0 1-.75-.75c0-.416.334-.75.75-.75Z"/>
</svg>
