<svg xmlns="http://www.w3.org/2000/svg" width="24" height="24" fill="none" viewBox="0 0 24 24">
  <g clip-path="url(#a)">
    <path fill="#242526" d="M6.5 4a2.5 2.5 0 1 1 0 5 2.5 2.5 0 0 1 0-5ZM18 4a2.5 2.5 0 1 1 0 5 2.5 2.5 0 0 1 0-5ZM2 13.334A3.336 3.336 0 0 1 5.334 10H6.67c.497 0 .969.11 1.394.303A4.001 4.001 0 0 0 9.357 14H2.665A.668.668 0 0 1 2 13.334ZM14.666 14h-.022a3.99 3.99 0 0 0 1.353-3 4.28 4.28 0 0 0-.06-.697A3.304 3.304 0 0 1 17.331 10h1.335A3.336 3.336 0 0 1 22 13.334c0 .37-.3.666-.666.666h-6.668ZM9 11a3 3 0 1 1 6 0 3 3 0 0 1-6 0Zm-3 8.166C6 16.866 7.866 15 10.166 15h3.665A4.167 4.167 0 0 1 18 19.166a.834.834 0 0 1-.834.834H6.83a.834.834 0 0 1-.834-.834H6Z"/>
  </g>
  <defs>
    <clipPath id="a">
      <path fill="#fff" d="M2 4h20v16H2z"/>
    </clipPath>
  </defs>
</svg>
