<svg xmlns="http://www.w3.org/2000/svg" width="24" height="24" fill="none" viewBox="0 0 24 24">
  <g clip-path="url(#a)">
    <path stroke="#242526" stroke-width="1.5" d="M10.166 15.75h3.665c1.89 0 3.419 1.53 3.419 3.416a.084.084 0 0 1-.084.084H6.831a.082.082 0 0 1-.081-.07v-.014a3.417 3.417 0 0 1 3.416-3.416Zm1.834-7a2.25 2.25 0 1 1 0 4.5 2.25 2.25 0 0 1 0-4.5Zm5.331 2h1.335a2.583 2.583 0 0 1 2.58 2.5h-5.065a4.74 4.74 0 0 0 .566-2.25c0-.061-.003-.122-.005-.183a2.64 2.64 0 0 1 .59-.067Zm-11.997 0h1.335c.202 0 .398.025.587.068L7.253 11c0 .814.206 1.58.567 2.25H2.754a2.583 2.583 0 0 1 2.58-2.5Zm1.166-6A1.75 1.75 0 0 1 8.25 6.5l-.009.173A1.75 1.75 0 0 1 6.5 8.25l-.173-.009A1.75 1.75 0 0 1 6.5 4.75Zm11.5 0a1.75 1.75 0 1 1 0 3.5 1.75 1.75 0 0 1 0-3.5Z"/>
  </g>
  <defs>
    <clipPath id="a">
      <path fill="#fff" d="M2 4h20v16H2z"/>
    </clipPath>
  </defs>
</svg>
