<svg xmlns="http://www.w3.org/2000/svg" width="16" height="16" fill="none" viewBox="0 0 16 16">
  <g clip-path="url(#a)">
    <path fill="#242526" d="m10.008 2.715-1.16 1.162 2.608 2.609 1.16-1.16a1.166 1.166 0 0 0 0-1.65l-.958-.961a1.166 1.166 0 0 0-1.65 0Zm-1.675 1.59-.192.058-3.002.9a1.332 1.332 0 0 0-.881.854L2.412 11.62a.665.665 0 0 0 .152.675l3.2-3.198a1 1 0 1 1 .471.47l-3.2 3.2c.18.174.44.234.675.153l5.506-1.846c.41-.137.73-.466.854-.881l.9-3.002.057-.192-2.694-2.696Z"/>
  </g>
  <defs>
    <clipPath id="a">
      <path fill="#fff" d="M2.667 2.667h10.667v10.667H2.667z"/>
    </clipPath>
  </defs>
</svg>
