<svg xmlns="http://www.w3.org/2000/svg" width="16" height="16" fill="none" viewBox="0 0 16 16">
  <g clip-path="url(#a)">
    <path fill="#242526" d="m10.206 4.54 2.558 2.558a.808.808 0 0 1 0 1.137l-2.558 2.559a.707.707 0 0 1-1.206-.5V9H6.333a.666.666 0 0 1-.667-.667V7c0-.369.298-.667.667-.667H9V5.04a.707.707 0 0 1 1.206-.5Zm-4.54-.207H4.333A.666.666 0 0 0 3.666 5v5.333c0 .37.298.667.667.667h1.333a.666.666 0 1 1 0 1.333H4.333a2 2 0 0 1-2-2V5a2 2 0 0 1 2-2h1.333a.666.666 0 1 1 0 1.333Z"/>
  </g>
  <defs>
    <clipPath id="a">
      <path fill="#fff" d="M2.667 2.667h10.667v10.667H2.667z"/>
    </clipPath>
  </defs>
</svg>
