<svg xmlns="http://www.w3.org/2000/svg" width="16" height="16" fill="none" viewBox="0 0 16 16">
  <g clip-path="url(#a)">
    <path fill="#242526" d="M7.62 2.782a.687.687 0 0 1 .759 0l.37.243a.696.696 0 0 0 .42.113l.443-.027a.688.688 0 0 1 .656.379l.2.398a.69.69 0 0 0 .307.306l.402.202a.688.688 0 0 1 .379.656l-.027.444a.69.69 0 0 0 .112.419l.246.37c.152.23.152.53 0 .759l-.246.373a.694.694 0 0 0-.112.419l.027.443a.688.688 0 0 1-.38.657l-.397.2a.691.691 0 0 0-.306.306l-.203.402a.688.688 0 0 1-.656.38l-.444-.028a.692.692 0 0 0-.418.113l-.371.246a.688.688 0 0 1-.758 0l-.373-.246a.696.696 0 0 0-.42-.113l-.443.027a.688.688 0 0 1-.656-.379l-.2-.398a.691.691 0 0 0-.306-.306l-.402-.202a.688.688 0 0 1-.38-.656l.027-.444a.691.691 0 0 0-.112-.419l-.244-.373a.687.687 0 0 1 0-.758l.244-.371a.695.695 0 0 0 .112-.419l-.027-.444a.688.688 0 0 1 .38-.656l.397-.2a.705.705 0 0 0 .309-.31l.2-.398a.688.688 0 0 1 .656-.38l.444.028a.691.691 0 0 0 .419-.113l.372-.243Zm2.046 3.885a1.667 1.667 0 1 0-3.333 0 1.667 1.667 0 0 0 3.333 0Zm-5.64 5.204.899-2.135a.016.016 0 0 1 .008.008l.2.398c.244.483.75.777 1.292.746l.443-.027c.005 0 .01 0 .015.004l.37.246c.107.069.22.123.336.16l-.783 1.86a.33.33 0 0 1-.277.203.33.33 0 0 1-.309-.15l-.67-1.027-1.17.172a.332.332 0 0 1-.356-.458h.003Zm5.167 1.258-.783-1.858c.117-.037.23-.09.335-.16l.371-.246a.033.033 0 0 1 .015-.004l.444.027a1.359 1.359 0 0 0 1.291-.746l.2-.398a.016.016 0 0 1 .009-.008l.9 2.135a.338.338 0 0 1-.044.333.33.33 0 0 1-.313.125l-1.168-.173-.671 1.025a.333.333 0 0 1-.585-.052Z"/>
  </g>
  <defs>
    <clipPath id="a">
      <path fill="#fff" d="M4 2.667h8v10.667H4z"/>
    </clipPath>
  </defs>
</svg>
