<svg xmlns="http://www.w3.org/2000/svg" width="16" height="16" fill="none" viewBox="0 0 16 16">
  <g clip-path="url(#a)">
    <path fill="#000" d="M8 13.333a5.333 5.333 0 0 0 5.148-6.735 2.46 2.46 0 0 0 .185-.931 2 2 0 0 0-2-2h-.06c-.052 0-.104.002-.154.006a5.308 5.308 0 0 0-3.12-1.006 5.308 5.308 0 0 0-3.118 1.006 1.906 1.906 0 0 0-.154-.006h-.06a2 2 0 0 0-2 2c0 .34.072.65.185.931-.12.446-.185.917-.185 1.402A5.333 5.333 0 0 0 8 13.333Zm2.723-3.898c.248-.077.498.132.408.378A3.336 3.336 0 0 1 8 12.003 3.338 3.338 0 0 1 4.869 9.81c-.09-.245.16-.454.408-.377A9.22 9.22 0 0 0 8 9.831a9.22 9.22 0 0 0 2.723-.398v.002Zm-1.33-4.768c.282 0 .553.112.75.31l.19.19.19-.19c.198-.198.469-.31.75-.31h.06a1 1 0 0 1 1 1c0 1.112-1.394 1.994-1.854 2.254a.292.292 0 0 1-.292 0c-.46-.26-1.854-1.142-1.854-2.254a1 1 0 0 1 1-1h.06Zm-3.916.31.19.19.19-.19a1.06 1.06 0 0 1 .75-.31h.06a1 1 0 0 1 1 1c0 1.112-1.394 1.994-1.855 2.254a.292.292 0 0 1-.291 0c-.46-.26-1.854-1.142-1.854-2.254a1 1 0 0 1 1-1h.06c.281 0 .552.112.75.31Z"/>
  </g>
  <defs>
    <clipPath id="a">
      <path fill="#fff" d="M2.667 2.667h10.667v10.667H2.667z"/>
    </clipPath>
  </defs>
</svg>
