<svg xmlns="http://www.w3.org/2000/svg" width="16" height="16" fill="none" viewBox="0 0 16 16">
  <g clip-path="url(#a)">
    <path fill="#000" d="M7.825 3.313A1.56 1.56 0 0 0 5 4.227v.05C5 5.62 6.708 7.057 7.546 7.68c.27.202.635.202.906 0 .838-.625 2.546-2.06 2.546-3.402v-.05a1.56 1.56 0 0 0-2.825-.914L8 3.556l-.175-.243ZM4.277 9.78l-.887.886h-.723a.666.666 0 0 0-.667.666v1.334c0 .369.298.666.667.666h6.677a2.84 2.84 0 0 0 1.681-.552l2.637-1.943a.832.832 0 1 0-.987-1.342l-2.496 1.837H7.833a.499.499 0 1 1 0-1h1.5a.666.666 0 1 0 0-1.333h-3.17c-.707 0-1.386.281-1.886.781Z"/>
  </g>
  <defs>
    <clipPath id="a">
      <path fill="#fff" d="M2 2.667h12v10.667H2z"/>
    </clipPath>
  </defs>
</svg>
