<svg xmlns="http://www.w3.org/2000/svg" width="16" height="16" fill="none" viewBox="0 0 16 16">
  <g clip-path="url(#a)">
    <path fill="#242526" d="M2.752 3.463a.512.512 0 0 1 .427-.796h2.277c.233 0 .452.123.57.323l1.428 2.377a4.32 4.32 0 0 0-2.57 1.29L2.751 3.462Zm10.494 0-2.13 3.193a4.32 4.32 0 0 0-2.57-1.29L9.973 2.99c.12-.2.337-.323.57-.323h2.278a.512.512 0 0 1 .427.796h-.002ZM4.333 9.667a3.667 3.667 0 1 1 7.334 0 3.667 3.667 0 0 1-7.334 0ZM8.175 7.69a.195.195 0 0 0-.35 0l-.467.946a.192.192 0 0 1-.146.106l-1.045.152a.196.196 0 0 0-.109.333l.756.738a.197.197 0 0 1 .057.173l-.18 1.04a.196.196 0 0 0 .284.205l.933-.491a.2.2 0 0 1 .181 0l.934.491a.195.195 0 0 0 .283-.206l-.18-1.04a.199.199 0 0 1 .057-.172l.756-.738a.195.195 0 0 0-.108-.333l-1.044-.152a.193.193 0 0 1-.146-.107l-.466-.945Z"/>
  </g>
  <defs>
    <clipPath id="a">
      <path fill="#fff" d="M2.667 2.667h10.667v10.667H2.667z"/>
    </clipPath>
  </defs>
</svg>
