<svg xmlns="http://www.w3.org/2000/svg" width="16" height="16" fill="none" viewBox="0 0 16 16">
  <g clip-path="url(#a)">
    <path fill="#242526" d="M8.602 3.042a.668.668 0 0 0-1.2 0l-1.34 2.756-2.991.442A.665.665 0 0 0 2.7 7.373l2.17 2.148-.512 3.035a.669.669 0 0 0 .973.7l2.673-1.427 2.673 1.427a.667.667 0 0 0 .973-.7l-.515-3.035 2.171-2.148a.666.666 0 0 0-.37-1.133l-2.994-.442-1.34-2.756Z"/>
  </g>
  <defs>
    <clipPath id="a">
      <path fill="#fff" d="M2 2.667h12v10.667H2z"/>
    </clipPath>
  </defs>
</svg>
