<svg xmlns="http://www.w3.org/2000/svg" width="16" height="16" fill="none" viewBox="0 0 16 16">
  <g clip-path="url(#a)">
    <path fill="#242526" d="M7.998 2.667a.5.5 0 0 1 .45.281l1.429 2.944 3.192.47a.502.502 0 0 1 .28.85l-2.316 2.296.546 3.242a.501.501 0 0 1-.73.525L7.997 11.75l-2.85 1.523a.497.497 0 0 1-.527-.035.505.505 0 0 1-.202-.49l.545-3.242-2.314-2.293a.499.499 0 0 1 .279-.85l3.192-.471 1.429-2.944a.5.5 0 0 1 .45-.281Zm0 1.646L6.904 6.567a.505.505 0 0 1-.377.277l-2.465.362 1.79 1.773a.501.501 0 0 1 .142.438L5.57 11.91l2.191-1.171a.496.496 0 0 1 .471 0l2.192 1.17-.421-2.491a.495.495 0 0 1 .142-.438l1.79-1.773-2.465-.364a.503.503 0 0 1-.377-.277L7.998 4.313Z"/>
  </g>
  <defs>
    <clipPath id="a">
      <path fill="#fff" d="M2 2.667h12v10.667H2z"/>
    </clipPath>
  </defs>
</svg>
