<svg xmlns="http://www.w3.org/2000/svg" width="16" height="16" fill="none" viewBox="0 0 16 16">
  <g clip-path="url(#a)">
    <path fill="#000" d="M12.569 2.669a.706.706 0 0 1 .554.208.706.706 0 0 1 .208.554 15.43 15.43 0 0 1-.964 4.16.328.328 0 0 1-.213.194l-1.685.507a.191.191 0 0 0 .056.375h.804c.25 0 .41.266.281.48-.083.14-.173.276-.264.41a.337.337 0 0 1-.175.126l-2.036.609a.191.191 0 0 0 .056.375h.334c.304 0 .437.362.183.529a4.685 4.685 0 0 1-3.8.652 2.058 2.058 0 0 1-.717-.373L3.666 13A.473.473 0 0 1 3 13a.473.473 0 0 1 0-.667l1.666-1.666.01.01a.32.32 0 0 1 .057-.075L8 7.333a.473.473 0 0 0 0-.666.473.473 0 0 0-.667 0L4.535 9.462c-.185.186-.5.092-.52-.17-.09-1.109.193-2.565 1.512-3.884 1.898-1.898 5.296-2.598 7.04-2.74h.002Z"/>
  </g>
  <defs>
    <clipPath id="a">
      <path fill="#fff" d="M2.667 2.667h10.667v10.667H2.667z"/>
    </clipPath>
  </defs>
</svg>
