<svg xmlns="http://www.w3.org/2000/svg" width="16" height="16" fill="none" viewBox="0 0 16 16">
  <g clip-path="url(#a)">
    <path fill="#000" d="M8 2.667a.68.68 0 0 1 .279.06l3.925 1.665c.458.193.8.646.798 1.191-.01 2.067-.86 5.848-4.45 7.567a1.273 1.273 0 0 1-1.1 0c-3.592-1.719-4.44-5.5-4.45-7.567-.002-.545.34-.998.798-1.191l3.923-1.665A.67.67 0 0 1 8 2.667Zm0 1.391v7.877c2.875-1.391 3.648-4.475 3.666-6.32L8 4.06v-.003Z"/>
  </g>
  <defs>
    <clipPath id="a">
      <path fill="#fff" d="M2.667 2.667h10.667v10.667H2.667z"/>
    </clipPath>
  </defs>
</svg>
