<svg xmlns="http://www.w3.org/2000/svg" width="16" height="16" fill="none" viewBox="0 0 16 16">
  <g clip-path="url(#a)">
    <path fill="#000" d="M8.28 2.727a.673.673 0 0 0-.56 0L3.799 4.392c-.458.193-.8.646-.798 1.191.01 2.067.86 5.848 4.45 7.567a1.27 1.27 0 0 0 1.1 0c3.592-1.719 4.442-5.5 4.45-7.567a1.293 1.293 0 0 0-.798-1.191L8.28 2.727ZM7.866 6.49 8 6.667l.133-.177a1.223 1.223 0 0 1 2.2.733v.11c0 1.023-1.37 2.044-2.01 2.465a.583.583 0 0 1-.644 0c-.64-.42-2.01-1.444-2.01-2.465v-.11a1.223 1.223 0 0 1 2.2-.733h-.002Z"/>
  </g>
  <defs>
    <clipPath id="a">
      <path fill="#fff" d="M2.667 2.667h10.667v10.667H2.667z"/>
    </clipPath>
  </defs>
</svg>
