<svg xmlns="http://www.w3.org/2000/svg" width="16" height="16" fill="none" viewBox="0 0 16 16">
  <g clip-path="url(#a)">
    <path fill="#000" d="M3.998 2.967a.332.332 0 0 0-.331-.3.336.336 0 0 0-.334.298l-.293 2.82a1.835 1.835 0 0 0 1.627 2.206v4.676a.666.666 0 1 0 1.333 0V7.992a1.835 1.835 0 0 0 1.627-2.207l-.296-2.82a.332.332 0 0 0-.662.002L6.385 5.79a.234.234 0 0 1-.23.21.235.235 0 0 1-.234-.212L5.665 2.97a.331.331 0 0 0-.332-.304.332.332 0 0 0-.33.304l-.257 2.817a.234.234 0 0 1-.465.002l-.283-2.823Zm8.002-.3c-.333 0-2.667.666-2.667 3.666v2.334c0 .735.598 1.333 1.334 1.333h.666v2.667a.666.666 0 1 0 1.334 0V3.333A.666.666 0 0 0 12 2.667Z"/>
  </g>
  <defs>
    <clipPath id="a">
      <path fill="#fff" d="M2.667 2.667h10.667v10.667H2.667z"/>
    </clipPath>
  </defs>
</svg>
