<svg xmlns="http://www.w3.org/2000/svg" width="16" height="16" fill="none" viewBox="0 0 16 16">
  <path fill="#14532D" d="M12.333 2.794a.5.5 0 0 1 .688.019l.166.166a.5.5 0 0 1 .02.688l-1.788 1.998a.334.334 0 0 0-.086.223v.446c0 .183-.15.333-.333.333h-.33a.328.328 0 0 0-.247.11l-5.659 6.325a.696.696 0 0 1-1.008.027l-.887-.885a.697.697 0 0 1-.203-.49c0-.197.084-.385.232-.516l2.325-2.08a.332.332 0 0 0 .11-.247v-.575c0-.184.15-.334.333-.334h.721c.082 0 .16-.03.223-.085l5.723-5.123Zm-.667 5.873c.075 0 .14.05.16.12l.31 1.078 1.076.308a.167.167 0 0 1 0 .321l-1.077.308-.308 1.078a.167.167 0 0 1-.32 0l-.31-1.078-1.076-.308a.167.167 0 0 1 0-.32l1.077-.31.308-1.076a.166.166 0 0 1 .16-.121ZM4.494 4.12l.308 1.077 1.077.309a.166.166 0 0 1 0 .32l-1.077.309-.308 1.077a.168.168 0 0 1-.16.12.168.168 0 0 1-.161-.12l-.309-1.077-1.077-.309a.167.167 0 0 1-.12-.16c0-.075.05-.14.12-.16l1.077-.309.309-1.077a.166.166 0 0 1 .32 0ZM7 2.667c.077 0 .144.052.162.127l.142.569.569.141a.167.167 0 0 1 0 .325l-.569.142-.142.569a.167.167 0 0 1-.325 0l-.141-.569-.57-.142a.167.167 0 0 1 0-.325l.57-.141.141-.569A.167.167 0 0 1 7 2.667Z"/>
</svg>
