<svg xmlns="http://www.w3.org/2000/svg" width="24" height="24" fill="none" viewBox="0 0 24 24">
  <path fill="#242526" d="M10.8 18.734c.337.12.7-.128.7-.484V6.456a.427.427 0 0 0-.156-.344C10.73 5.625 9.325 5 7.5 5c-1.578 0-3.053.416-3.934.753A.916.916 0 0 0 3 6.619V18.19c0 .372.4.63.753.515C4.737 18.378 6.297 18 7.5 18c1.06 0 2.469.438 3.3.734Zm2.4 0c.831-.297 2.24-.734 3.3-.734 1.203 0 2.762.378 3.747.706.353.119.753-.143.753-.515V6.619c0-.378-.212-.728-.566-.863C19.554 5.416 18.078 5 16.5 5c-1.825 0-3.231.625-3.844 1.112a.436.436 0 0 0-.156.344V18.25c0 .356.366.603.7.484Z"/>
</svg>
