<svg xmlns="http://www.w3.org/2000/svg" width="24" height="24" fill="none" viewBox="0 0 24 24">
  <g clip-path="url(#a)">
    <path fill="#242526" d="M9.978 4.169a.633.633 0 0 1 .866.003 25.22 25.22 0 0 1 2.428 2.625c.344-.45.734-.94 1.156-1.34a.635.635 0 0 1 .875.002c1.081 1.032 1.997 2.394 2.64 3.688.635 1.275 1.057 2.578 1.057 3.497C19 16.63 15.881 20 12 20c-3.925 0-7-3.372-7-7.36 0-1.2.556-2.665 1.419-4.115.872-1.472 2.103-3.006 3.56-4.356ZM12.053 17c.79 0 1.49-.219 2.15-.656 1.316-.919 1.669-2.756.878-4.2-.14-.281-.5-.3-.703-.063l-.787.916a.5.5 0 0 1-.772-.016 2133.19 2133.19 0 0 0-1.963-2.493.49.49 0 0 0-.772-.004c-1.056 1.329-1.587 2.166-1.587 3.107C8.5 15.73 10.08 17 12.053 17Z"/>
  </g>
  <defs>
    <clipPath id="a">
      <path fill="#fff" d="M5 4h14v16H5z"/>
    </clipPath>
  </defs>
</svg>
