<svg xmlns="http://www.w3.org/2000/svg" width="24" height="24" fill="none" viewBox="0 0 24 24">
  <path fill="#242526" d="M6.5 9a1 1 0 0 1 1 1v8a1 1 0 0 1-1 1H5a1 1 0 0 1-1-1v-8a1 1 0 0 1 1-1h1.5Zm5.956-4.5C13.31 4.5 14 5.19 14 6.044v.131c0 .213-.04.425-.119.622L13 9h5a1.5 1.5 0 0 1 .597 2.875 1.5 1.5 0 0 1-.316 2.847 1.497 1.497 0 0 1-.887 2.225A1.5 1.5 0 0 1 16 19h-2.747a4.994 4.994 0 0 1-3.122-1.097L9.75 17.6A1.994 1.994 0 0 1 9 16.037v-5.83c0-.466.11-.926.316-1.341l1.756-3.513a1.549 1.549 0 0 1 1.384-.853Z"/>
</svg>
