<svg xmlns="http://www.w3.org/2000/svg" width="32" height="32" fill="none" viewBox="0 0 32 32">
  <g clip-path="url(#a)">
    <path fill="#242526" d="M26.667 15.333C26.667 20.121 21.892 24 16 24c-1.546 0-3.013-.267-4.338-.746A12.34 12.34 0 0 1 9.4 24.529c-1 .433-2.204.804-3.4.804a.667.667 0 0 1-.475-1.137l.012-.013a4.906 4.906 0 0 0 .258-.296c.172-.208.4-.516.634-.9.417-.691.813-1.6.892-2.62-1.25-1.417-1.988-3.155-1.988-5.034 0-4.787 4.775-8.666 10.667-8.666 5.892 0 10.667 3.879 10.667 8.666Z"/>
  </g>
  <defs>
    <clipPath id="a">
      <path fill="#fff" d="M5.333 5.333h21.333v21.333H5.333z"/>
    </clipPath>
  </defs>
</svg>
