<svg xmlns="http://www.w3.org/2000/svg" width="32" height="32" fill="none" viewBox="0 0 32 32">
  <path fill="#242526" d="M10.483 21.637a2.003 2.003 0 0 1 1.859-.266c1.104.4 2.341.629 3.658.629 5.196 0 8.667-3.354 8.667-6.667 0-3.312-3.471-6.667-8.667-6.667s-8.666 3.355-8.666 6.667c0 1.333.516 2.617 1.487 3.717.358.404.533.937.492 1.479a7.379 7.379 0 0 1-.471 2.058 10.42 10.42 0 0 0 1.641-.945v-.005ZM6.217 23.33a6.96 6.96 0 0 0 .212-.338c.417-.691.813-1.6.892-2.62-1.25-1.421-1.987-3.159-1.987-5.038 0-4.787 4.774-8.666 10.666-8.666s10.667 3.879 10.667 8.666C26.667 20.121 21.892 24 16 24c-1.546 0-3.012-.267-4.337-.746-.496.362-1.305.858-2.263 1.275a10.16 10.16 0 0 1-2.087.67c-.034.01-.067.013-.1.022a6.014 6.014 0 0 1-.55.079c-.009 0-.021.004-.03.004-.212.02-.424.033-.637.033a.667.667 0 0 1-.475-1.137 5.1 5.1 0 0 0 .47-.563 5.93 5.93 0 0 0 .2-.287l.013-.021h.013Z"/>
</svg>
