<svg xmlns="http://www.w3.org/2000/svg" width="32" height="32" fill="none" viewBox="0 0 32 32">
  <path fill="#242526" d="M24.666 16a8.667 8.667 0 1 0-17.333 0 8.667 8.667 0 0 0 17.333 0ZM5.333 16a10.667 10.667 0 1 1 21.333 0 10.667 10.667 0 0 1-21.333 0Zm12.78 2.88L12.1 21.191c-.809.312-1.604-.483-1.292-1.292l2.313-6.012c.137-.354.412-.63.766-.767l6.013-2.313c.808-.312 1.604.484 1.291 1.292l-2.312 6.013a1.337 1.337 0 0 1-.767.766Zm-.78-2.88a1.333 1.333 0 1 0-2.667 0 1.333 1.333 0 0 0 2.667 0Z"/>
</svg>
