<svg xmlns="http://www.w3.org/2000/svg" width="32" height="32" fill="none" viewBox="0 0 32 32">
  <g clip-path="url(#a)">
    <path fill="#242526" d="M16 26.667a10.667 10.667 0 1 0 0-21.334 10.667 10.667 0 0 0 0 21.334Zm2.113-7.788L12.1 21.192c-.808.312-1.604-.484-1.291-1.292l2.312-6.013c.137-.354.412-.629.767-.766l6.012-2.313c.809-.312 1.604.484 1.292 1.292l-2.313 6.012a1.32 1.32 0 0 1-.766.767Zm-.78-2.88a1.334 1.334 0 1 0-2.667.001 1.334 1.334 0 0 0 2.668 0Z"/>
  </g>
  <defs>
    <clipPath id="a">
      <path fill="#fff" d="M5.333 5.333h21.333v21.333H5.333z"/>
    </clipPath>
  </defs>
</svg>
