<svg xmlns="http://www.w3.org/2000/svg" width="32" height="32" fill="none" viewBox="0 0 32 32">
  <g clip-path="url(#a)">
    <path fill="#242526" stroke="#242526" stroke-width="1.333" d="M16.017 6c.137 0 .265.031.362.081l.086.056 10.628 9.343h.001c.224.196.246.33.236.425l-.004.038v.036a.68.68 0 0 1-.667.67h-2.003l.003.67.029 6.675c0 .08-.006.165-.017.261l-.005.037v.712a1 1 0 0 1-1 1H23a.835.835 0 0 1-.077-.002l-.053-.005-.055.004c-.03.002-.065.002-.127.002L21.335 26h-1.002a1 1 0 0 1-1-1v-3.667c0-1.105-.894-2-2-2h-2.666c-1.106 0-2 .895-2 2V25a1 1 0 0 1-1 1h-2.33c-.036 0-.076-.002-.142-.007l-.05-.003-.05.003A1.187 1.187 0 0 1 9 26h-.666a1 1 0 0 1-1-1v-4.71l.003-.037v-3.607h-2a.65.65 0 0 1-.666-.671c0-.201.057-.361.213-.52L15.54 6.168l.016-.014.017-.017a.405.405 0 0 1 .179-.108.921.921 0 0 1 .266-.03Z"/>
  </g>
  <defs>
    <clipPath id="a">
      <path fill="#fff" d="M4 5.333h24v21.333H4z"/>
    </clipPath>
  </defs>
</svg>
