<svg xmlns="http://www.w3.org/2000/svg" width="32" height="32" fill="none" viewBox="0 0 32 32">
  <path fill="#242526" d="M12.334 8.666c-.555 0-1 .446-1 1v12.667c0 .35-.059.688-.171 1h12.504c.554 0 1-.446 1-1V9.667c0-.555-.446-1-1-1H12.333Zm-4 16.667c-1.659 0-3-1.341-3-3V10c0-.554.445-1 1-1 .554 0 1 .446 1 1v12.333c0 .554.445 1 1 1 .554 0 1-.446 1-1V9.667c0-1.659 1.341-3 3-3h11.333c1.658 0 3 1.341 3 3v12.666c0 1.659-1.342 3-3 3H8.333Zm5-13.666c0-.555.445-1 1-1h2c.554 0 1 .445 1 1v2c0 .554-.446 1-1 1h-2c-.555 0-1-.446-1-1v-2Zm6.333 1h2c.554 0 1 .445 1 1 0 .554-.446 1-1 1h-2c-.554 0-1-.446-1-1 0-.555.446-1 1-1ZM14.333 16h7.334c.554 0 1 .446 1 1s-.446 1-1 1h-7.334c-.554 0-1-.446-1-1s.446-1 1-1Zm0 3.333h7.334c.554 0 1 .446 1 1s-.446 1-1 1h-7.334c-.554 0-1-.446-1-1s.446-1 1-1Z"/>
</svg>
