<svg xmlns="http://www.w3.org/2000/svg" width="32" height="32" fill="none" viewBox="0 0 32 32">
  <g clip-path="url(#a)">
    <path fill="#242526" d="M22.667 14c0 1.912-.621 3.68-1.667 5.112l5.275 5.28a1.335 1.335 0 0 1-1.887 1.887L19.113 21A8.617 8.617 0 0 1 14 22.668 8.665 8.665 0 0 1 5.334 14 8.665 8.665 0 0 1 14 5.333 8.665 8.665 0 0 1 22.667 14ZM14 20a6 6 0 1 0 0-12.002A6 6 0 0 0 14 20Z"/>
  </g>
  <defs>
    <clipPath id="a">
      <path fill="#fff" d="M5.333 5.333h21.333v21.333H5.333z"/>
    </clipPath>
  </defs>
</svg>
