<svg xmlns="http://www.w3.org/2000/svg" width="32" height="32" fill="none" viewBox="0 0 32 32">
  <g clip-path="url(#a)">
    <path stroke="#242526" stroke-width="2" d="M13.554 21h4.888A4.556 4.556 0 0 1 23 25.554c0 .063-.05.112-.113.112H9.107A.11.11 0 0 1 9 25.573v-.019A4.555 4.555 0 0 1 13.554 21ZM16 11.666a3.002 3.002 0 0 1 2.123 5.122A3.001 3.001 0 1 1 16 11.666Zm7.109 2.667h1.78a3.447 3.447 0 0 1 3.443 3.333h-6.757a6.308 6.308 0 0 0 .749-3.245c.25-.058.513-.088.785-.088Zm-15.995 0H8.89c.27 0 .532.032.784.09a6.305 6.305 0 0 0 .753 3.243H3.67a3.447 3.447 0 0 1 3.444-3.333Zm1.553-8a2.335 2.335 0 1 1 0 4.67 2.335 2.335 0 0 1 0-4.67Zm15.334 0a2.335 2.335 0 1 1 0 4.67 2.335 2.335 0 0 1 0-4.67Z"/>
  </g>
  <defs>
    <clipPath id="a">
      <path fill="#fff" d="M2.667 5.333h26.667v21.333H2.667z"/>
    </clipPath>
  </defs>
</svg>
