<svg xmlns="http://www.w3.org/2000/svg" width="32" height="32" fill="none" viewBox="0 0 32 32">
  <g clip-path="url(#a)">
    <path fill="#242526" d="M8.666 5.333a3.333 3.333 0 1 1 0 6.667 3.333 3.333 0 0 1 0-6.667Zm15.334 0A3.334 3.334 0 1 1 24 12a3.334 3.334 0 0 1 0-6.667ZM2.666 17.78a4.447 4.447 0 0 1 4.446-4.446h1.78a4.47 4.47 0 0 1 1.858.404 5.335 5.335 0 0 0 1.725 4.93H3.554a.89.89 0 0 1-.887-.888Zm16.888.888h-.03a5.32 5.32 0 0 0 1.805-4c0-.317-.03-.625-.08-.93a4.406 4.406 0 0 1 1.86-.404h1.778a4.447 4.447 0 0 1 4.446 4.446c0 .492-.4.888-.887.888h-8.892Zm-7.554-4a4 4 0 1 1 8 0 4 4 0 0 1-8 0ZM8 25.554A5.555 5.555 0 0 1 13.554 20h4.888A5.556 5.556 0 0 1 24 25.554c0 .613-.496 1.113-1.113 1.113H9.108a1.112 1.112 0 0 1-1.112-1.113H8Z"/>
  </g>
  <defs>
    <clipPath id="a">
      <path fill="#fff" d="M2.667 5.333h26.667v21.333H2.667z"/>
    </clipPath>
  </defs>
</svg>
