<svg xmlns="http://www.w3.org/2000/svg" width="16" height="16" fill="none" viewBox="0 0 16 16">
  <g clip-path="url(#a)">
    <path fill="#242526" d="M2.142 2.773a.5.5 0 0 0-.617.787l12.334 9.667a.5.5 0 0 0 .616-.787L12.638 11a.503.503 0 0 0-.082-.48l-.31-.387a4.18 4.18 0 0 1-.912-2.604v-.696a3.167 3.167 0 0 0-2.667-3.127v-.373a.666.666 0 1 0-1.333 0v.373a3.172 3.172 0 0 0-2.175 1.431L2.142 2.773Zm3.81 2.985a2.164 2.164 0 0 1 1.882-1.091h.333c1.196 0 2.167.97 2.167 2.166v.696c0 .681.133 1.35.39 1.969l-4.772-3.74Zm3.844 5.575-1.269-1H4.842a5.171 5.171 0 0 0 .8-2.273l-.975-.766v.237a4.17 4.17 0 0 1-.913 2.602l-.31.388a.499.499 0 0 0 .39.812h5.962ZM9.334 12H6.667a1.334 1.334 0 1 0 2.667 0Z"/>
  </g>
  <defs>
    <clipPath id="a">
      <path fill="#fff" d="M1.333 2.667h13.333v10.667H1.333z"/>
    </clipPath>
  </defs>
</svg>
