<svg xmlns="http://www.w3.org/2000/svg" width="16" height="16" fill="none" viewBox="0 0 16 16">
  <g clip-path="url(#a)">
    <path fill="#242526" d="M8 4.333c-1.358 0-2.475.617-3.331 1.41A7.418 7.418 0 0 0 3.029 8a7.44 7.44 0 0 0 1.638 2.256c.858.794 1.975 1.41 3.333 1.41s2.475-.616 3.331-1.41A7.417 7.417 0 0 0 12.971 8a7.441 7.441 0 0 0-1.638-2.256C10.475 4.95 9.358 4.334 8 4.334Zm-4.013.68C4.97 4.1 6.317 3.332 8 3.332c1.683 0 3.031.767 4.012 1.68.976.906 1.628 1.987 1.938 2.73a.663.663 0 0 1 0 .513c-.31.744-.962 1.827-1.938 2.731-.98.913-2.329 1.68-4.012 1.68-1.683 0-3.031-.767-4.013-1.68C3.012 10.083 2.36 9 2.052 8.257a.663.663 0 0 1 0-.513c.308-.744.96-1.827 1.935-2.732ZM8 9.666a1.666 1.666 0 1 0 0-3.334h-.042a1.335 1.335 0 0 1-1.625 1.625V8c0 .92.746 1.667 1.667 1.667Zm0-4.334a2.667 2.667 0 1 1 0 5.334 2.667 2.667 0 0 1 0-5.334Z"/>
  </g>
  <defs>
    <clipPath id="a">
      <path fill="#fff" d="M2 2.667h12v10.667H2z"/>
    </clipPath>
  </defs>
</svg>
