<svg xmlns="http://www.w3.org/2000/svg" width="24" height="24" fill="none" viewBox="0 0 24 24">
  <g clip-path="url(#a)">
    <path fill="#000" d="M12 6c-3.313 0-6 2.688-6 6 0 3.313 2.688 6 6 6a.999.999 0 1 1 0 2 8 8 0 0 1-8-8 8 8 0 0 1 8-8 8 8 0 0 1 8 8v1a3 3 0 0 1-5.287 1.94 4 4 0 1 1-.378-6.187A.999.999 0 0 1 16 9.5V13a.999.999 0 1 0 1.999 0v-1c0-3.313-2.688-6-6-6Zm2 6a2 2 0 1 0-4 0 2 2 0 0 0 4 0Z"/>
  </g>
  <defs>
    <clipPath id="a">
      <path fill="#fff" d="M4 4h16v16H4z"/>
    </clipPath>
  </defs>
</svg>
