<svg xmlns="http://www.w3.org/2000/svg" width="24" height="24" fill="none" viewBox="0 0 24 24">
  <path fill="#242526" d="M3 7c0-1.103.897-2 2-2h14c1.103 0 2 .897 2 2v10c0 1.103-.897 2-2 2H5c-1.103 0-2-.897-2-2V7Zm4 6a1 1 0 1 0 0-2 1 1 0 0 0 0 2Zm1-4a1 1 0 1 0-2 0 1 1 0 0 0 2 0Zm-1 7a1 1 0 1 0 0-2 1 1 0 0 0 0 2Zm3-7.75a.748.748 0 0 0-.75.75c0 .416.334.75.75.75h7c.416 0 .75-.334.75-.75a.748.748 0 0 0-.75-.75h-7Zm0 3a.748.748 0 0 0-.75.75c0 .416.334.75.75.75h7c.416 0 .75-.334.75-.75a.748.748 0 0 0-.75-.75h-7Zm0 3a.748.748 0 0 0-.75.75c0 .416.334.75.75.75h7c.416 0 .75-.334.75-.75a.748.748 0 0 0-.75-.75h-7Z"/>
</svg>
