<svg xmlns="http://www.w3.org/2000/svg" width="16" height="16" fill="none" viewBox="0 0 16 16">
  <g clip-path="url(#a)">
    <path fill="#242526" d="M10.666 3.667c.184 0 .334.15.334.333v8c0 .183-.15.333-.334.333h-6A.334.334 0 0 1 4.333 12V4c0-.183.15-.333.333-.333h6Zm-6-1c-.735 0-1.333.598-1.333 1.333v8c0 .736.598 1.333 1.333 1.333h6c.736 0 1.334-.598 1.334-1.333V4c0-.735-.598-1.333-1.334-1.333h-6Zm3 5.166a1.167 1.167 0 1 0 0-2.333 1.167 1.167 0 0 0 0 2.333ZM7 8.667c-.921 0-1.667.746-1.667 1.666 0 .184.15.334.333.334h4c.184 0 .334-.15.334-.334 0-.92-.746-1.666-1.667-1.666H7Zm6.333-4.334A.334.334 0 0 0 13 4a.334.334 0 0 0-.334.333v1.334a.334.334 0 0 0 .667 0V4.333ZM13 6.667a.334.334 0 0 0-.334.333v1.333a.334.334 0 0 0 .667 0V7A.334.334 0 0 0 13 6.667Zm.333 3A.334.334 0 0 0 13 9.333a.334.334 0 0 0-.334.334V11a.334.334 0 0 0 .667 0V9.667Z"/>
  </g>
  <defs>
    <clipPath id="a">
      <path fill="#fff" d="M2.667 2.667h10.667v10.667H2.667z"/>
    </clipPath>
  </defs>
</svg>
