<svg xmlns="http://www.w3.org/2000/svg" width="16" height="16" fill="none" viewBox="0 0 16 16">
  <g clip-path="url(#a)">
    <path fill="#242526" d="M2.854 2.148a.498.498 0 0 0-.706 0 .504.504 0 0 0-.002.708l11 11a.5.5 0 0 0 .706-.706L8.038 7.333A2.168 2.168 0 0 0 8 3c-1.183 0-2.146.95-2.167 2.13L2.854 2.147ZM12 8.667c-.358 0-.702.07-1.014.2l3.541 3.541a.663.663 0 0 0 .14-.408v-.667A2.666 2.666 0 0 0 12 8.667ZM2.581 4.702A1.499 1.499 0 0 0 3.333 7.5c.555 0 1.038-.3 1.298-.748l-2.05-2.05Zm3.965 3.965a3.333 3.333 0 0 0-1.88 3V12c0 .369.299.667.667.667h5.213l-4-4ZM4 8.667a2.666 2.666 0 0 0-2.667 2.666V12c0 .369.298.667.667.667h1.806c-.09-.205-.14-.43-.14-.667v-.333A4.32 4.32 0 0 1 4.77 8.779 2.68 2.68 0 0 0 4 8.667ZM14.167 6a1.5 1.5 0 1 0-3 0 1.5 1.5 0 0 0 3 0Z"/>
  </g>
  <defs>
    <clipPath id="a">
      <path fill="#fff" d="M1.333 1.333h13.333v13.333H1.333z"/>
    </clipPath>
  </defs>
</svg>
