<svg xmlns="http://www.w3.org/2000/svg" width="24" height="24" fill="none" viewBox="0 0 24 24">
  <g clip-path="url(#a)">
    <path fill="#242526" d="M9.75 4.75A.748.748 0 0 0 9 4a.748.748 0 0 0-.75.75V6H7c-1.103 0-2 .897-2 2v10c0 1.103.897 2 2 2h10c1.103 0 2-.897 2-2V8c0-1.103-.897-2-2-2h-1.25V4.75A.748.748 0 0 0 15 4a.748.748 0 0 0-.75.75V6h-4.5V4.75ZM6.5 10H9v1.75H6.5V10Zm0 3.25H9v2H6.5v-2Zm4 0h3v2h-3v-2Zm4.5 0h2.5v2H15v-2Zm2.5-1.5H15V10h2.5v1.75Zm0 5V18c0 .275-.225.5-.5.5h-2v-1.75h2.5Zm-4 0v1.75h-3v-1.75h3Zm-4.5 0v1.75H7a.501.501 0 0 1-.5-.5v-1.25H9Zm4.5-5h-3V10h3v1.75Z"/>
  </g>
  <defs>
    <clipPath id="a">
      <path fill="#fff" d="M5 4h14v16H5z"/>
    </clipPath>
  </defs>
</svg>
