<svg xmlns="http://www.w3.org/2000/svg" width="24" height="24" fill="none" viewBox="0 0 24 24">
  <g clip-path="url(#a)">
    <path fill="#242526" d="M12 20a8 8 0 1 0 0-16.001A8 8 0 0 0 12 20Zm-.75-5.25v-2h-2A.748.748 0 0 1 8.5 12c0-.416.334-.75.75-.75h2v-2c0-.416.334-.75.75-.75s.75.334.75.75v2h2c.416 0 .75.334.75.75s-.334.75-.75.75h-2v2c0 .416-.334.75-.75.75a.748.748 0 0 1-.75-.75Z"/>
  </g>
  <defs>
    <clipPath id="a">
      <path fill="#fff" d="M4 4h16v16H4z"/>
    </clipPath>
  </defs>
</svg>
