<svg xmlns="http://www.w3.org/2000/svg" width="24" height="24" fill="none" viewBox="0 0 24 24">
  <path fill="#242526" d="M16 5.5c.275 0 .5.225.5.5v12c0 .275-.225.5-.5.5H7a.501.501 0 0 1-.5-.5V6c0-.275.225-.5.5-.5h9ZM7 4c-1.103 0-2 .897-2 2v12c0 1.103.897 2 2 2h9c1.103 0 2-.897 2-2V6c0-1.103-.897-2-2-2H7Zm4.5 7.75a1.75 1.75 0 1 0 0-3.502 1.75 1.75 0 0 0 0 3.502Zm-1 1.25A2.5 2.5 0 0 0 8 15.5c0 .275.225.5.5.5h6c.275 0 .5-.225.5-.5a2.5 2.5 0 0 0-2.5-2.5h-2ZM20 6.5c0-.275-.225-.5-.5-.5s-.5.225-.5.5v2c0 .275.225.5.5.5s.5-.225.5-.5v-2Zm-.5 3.5c-.275 0-.5.225-.5.5v2c0 .275.225.5.5.5s.5-.225.5-.5v-2c0-.275-.225-.5-.5-.5Zm.5 4.5c0-.275-.225-.5-.5-.5s-.5.225-.5.5v2c0 .275.225.5.5.5s.5-.225.5-.5v-2Z"/>
</svg>
