<svg xmlns="http://www.w3.org/2000/svg" width="24" height="24" fill="none" viewBox="0 0 24 24">
  <path fill="#242526" d="M4.281 3.222a.747.747 0 0 0-1.06 0 .756.756 0 0 0-.002 1.062l16.5 16.5a.75.75 0 0 0 1.06-1.06L12.055 11A3.251 3.251 0 1 0 8.75 7.694L4.281 3.222ZM18 13c-.538 0-1.053.106-1.522.3l5.313 5.312A.993.993 0 0 0 22 18v-1a4 4 0 0 0-4-4ZM3.872 7.053a2.249 2.249 0 1 0 3.075 3.075L3.872 7.053ZM9.819 13A5 5 0 0 0 7 17.5v.5a1 1 0 0 0 1 1h7.819l-6-6ZM6 13a4 4 0 0 0-4 4v1a1 1 0 0 0 1 1h2.71a2.48 2.48 0 0 1-.21-1v-.5c0-1.663.625-3.181 1.653-4.331A4.02 4.02 0 0 0 6 12.999Zm15.25-4a2.25 2.25 0 1 0-4.5 0 2.25 2.25 0 0 0 4.5 0Z"/>
</svg>
