<svg xmlns="http://www.w3.org/2000/svg" width="24" height="24" fill="none" viewBox="0 0 24 24">
  <g clip-path="url(#a)">
    <path fill="#242526" d="M5 8a4 4 0 1 1 8 0 4 4 0 0 1-8 0ZM2 19.072A5.57 5.57 0 0 1 7.572 13.5h2.856A5.57 5.57 0 0 1 16 19.072a.928.928 0 0 1-.928.928H2.928A.928.928 0 0 1 2 19.072Zm19.531-9.54-4 4a.747.747 0 0 1-1.06 0l-2-2a.75.75 0 0 1 1.06-1.06L17 11.94l3.469-3.472a.75.75 0 0 1 1.06 1.06l.002.002Z"/>
  </g>
  <defs>
    <clipPath id="a">
      <path fill="#fff" d="M2 4h20v16H2z"/>
    </clipPath>
  </defs>
</svg>
