<svg xmlns="http://www.w3.org/2000/svg" width="24" height="24" fill="none" viewBox="0 0 24 24">
  <g clip-path="url(#a)">
    <path fill="#242526" d="M3.213 4.16a.75.75 0 0 0-.925 1.18l18.5 14.5a.75.75 0 0 0 .925-1.18l-2.82-2.21.02-.04a.998.998 0 0 0-.166-1.076l-.231-.26A6.008 6.008 0 0 1 17 11.088V10.5a5.002 5.002 0 0 0-4-4.9V5a.999.999 0 1 0-2 0v.6a5.002 5.002 0 0 0-3.187 2.166l-4.6-3.607ZM14.693 17 7 10.94v.15c0 1.47-.54 2.888-1.515 3.988l-.232.26a1.004 1.004 0 0 0-.165 1.074c.159.36.518.588.912.588h8.694Zm-1.277 2.416A2 2 0 0 0 14 18h-4a2 2 0 0 0 .585 1.416A2 2 0 0 0 12 20a2 2 0 0 0 1.416-.584Z"/>
  </g>
  <defs>
    <clipPath id="a">
      <path fill="#fff" d="M2 4h20v16H2z"/>
    </clipPath>
  </defs>
</svg>
