<svg xmlns="http://www.w3.org/2000/svg" width="24" height="24" fill="none" viewBox="0 0 24 24">
  <g clip-path="url(#a)">
    <path fill="#242526" d="M3.213 4.16a.75.75 0 0 0-.925 1.18l18.5 14.5a.75.75 0 0 0 .925-1.18l-2.757-2.16a.755.755 0 0 0-.121-.719l-.466-.581A6.271 6.271 0 0 1 17 11.294V10.25a4.751 4.751 0 0 0-4-4.69V5a.999.999 0 1 0-2 0v.56a4.758 4.758 0 0 0-3.262 2.146L3.213 4.16Zm5.715 4.477A3.246 3.246 0 0 1 11.75 7h.5a3.252 3.252 0 0 1 3.25 3.25v1.044c0 1.022.2 2.025.585 2.953l-7.157-5.61ZM14.694 17l-1.903-1.5H7.263a7.756 7.756 0 0 0 1.2-3.41L7 10.94v.357A6.255 6.255 0 0 1 5.631 15.2l-.465.581A.748.748 0 0 0 5.75 17h8.944ZM14 18h-4a2 2 0 0 0 .585 1.416A2 2 0 0 0 12 20a2 2 0 0 0 1.416-.584A2 2 0 0 0 14 18Z"/>
  </g>
  <defs>
    <clipPath id="a">
      <path fill="#fff" d="M2 4h20v16H2z"/>
    </clipPath>
  </defs>
</svg>
