<svg xmlns="http://www.w3.org/2000/svg" width="24" height="24" fill="none" viewBox="0 0 24 24">
  <g clip-path="url(#a)">
    <path fill="#242526" d="M3.213 4.16a.75.75 0 0 0-.925 1.18l18.5 14.5a.75.75 0 0 0 .925-1.18l-3.288-2.576c1.238-1.268 2.075-2.69 2.497-3.7a.994.994 0 0 0 0-.768c-.466-1.116-1.444-2.741-2.906-4.097-1.469-1.37-3.49-2.52-6.016-2.52-2.131 0-3.906.823-5.29 1.9L3.213 4.16Zm5.759 4.512a4.501 4.501 0 0 1 6.984 5.475l-1.206-.944a3 3 0 0 0-2.619-4.2c-.18-.006-.287.19-.23.366a1.991 1.991 0 0 1-.103 1.519L8.974 8.674l-.003-.003Zm4.684 7.512a4.501 4.501 0 0 1-6.112-4.816l-2.947-2.32c-.712.928-1.222 1.853-1.519 2.569a.994.994 0 0 0 0 .768c.466 1.116 1.444 2.74 2.907 4.097C7.453 17.85 9.475 19 12 19c1.494 0 2.81-.403 3.944-1.016l-2.288-1.8Z"/>
  </g>
  <defs>
    <clipPath id="a">
      <path fill="#fff" d="M2 4h20v16H2z"/>
    </clipPath>
  </defs>
</svg>
