<svg xmlns="http://www.w3.org/2000/svg" width="24" height="24" fill="none" viewBox="0 0 24 24">
  <g clip-path="url(#a)">
    <path fill="#242526" d="M12 6.5c-2.037 0-3.712.925-4.997 2.116A11.162 11.162 0 0 0 4.543 12 11.186 11.186 0 0 0 7 15.384c1.288 1.191 2.963 2.116 5 2.116 2.038 0 3.713-.925 4.997-2.116 1.203-1.118 2.034-2.447 2.46-3.384A11.186 11.186 0 0 0 17 8.616C15.713 7.425 14.038 6.5 12 6.5ZM5.981 7.519C7.453 6.15 9.475 5 12.001 5c2.524 0 4.546 1.15 6.018 2.519 1.462 1.36 2.44 2.981 2.906 4.097a.994.994 0 0 1 0 .768c-.465 1.116-1.444 2.741-2.906 4.097C16.547 17.85 14.525 19 12 19s-4.547-1.15-6.019-2.519c-1.462-1.356-2.44-2.981-2.903-4.097a.994.994 0 0 1 0-.768C3.541 10.5 4.52 8.875 5.981 7.519Zm6.02 6.981a2.5 2.5 0 1 0 0-5h-.063A2.002 2.002 0 0 1 9.5 11.938V12a2.5 2.5 0 0 0 2.5 2.5ZM12 8a4 4 0 1 1 0 8 4 4 0 0 1 0-8Z"/>
  </g>
  <defs>
    <clipPath id="a">
      <path fill="#fff" d="M3 4h18v16H3z"/>
    </clipPath>
  </defs>
</svg>
