<svg xmlns="http://www.w3.org/2000/svg" width="24" height="24" fill="none" viewBox="0 0 24 24">
  <g clip-path="url(#a)">
    <path fill="#242526" d="M18.675 5.016A8.978 8.978 0 0 1 22 12a8.982 8.982 0 0 1-3.325 6.984.75.75 0 1 1-.947-1.165 7.47 7.47 0 0 0 2.772-5.82 7.481 7.481 0 0 0-2.772-5.821.753.753 0 0 1-.11-1.056.753.753 0 0 1 1.057-.11v.004Zm-1.89 2.328A5.995 5.995 0 0 1 19 12a5.996 5.996 0 0 1-2.216 4.656.75.75 0 1 1-.946-1.165A4.483 4.483 0 0 0 17.5 12c0-1.41-.647-2.666-1.662-3.494a.753.753 0 0 1-.11-1.056.753.753 0 0 1 1.056-.11v.004Zm-1.891 2.328a3.004 3.004 0 0 1 0 4.656.75.75 0 1 1-.947-1.166c.337-.275.553-.693.553-1.162s-.216-.888-.553-1.166a.753.753 0 0 1-.11-1.056.753.753 0 0 1 1.057-.11v.004Zm-3.485-4.585c.36.163.591.52.591.913v12a1.002 1.002 0 0 1-1.666.747L6.12 15H4c-1.103 0-2-.897-2-2v-2c0-1.103.897-2 2-2h2.119l4.215-3.747a1.004 1.004 0 0 1 1.075-.166Z"/>
  </g>
  <defs>
    <clipPath id="a">
      <path fill="#fff" d="M2 4h20v16H2z"/>
    </clipPath>
  </defs>
</svg>
