<svg xmlns="http://www.w3.org/2000/svg" width="16" height="16" fill="none" viewBox="0 0 16 16">
  <g clip-path="url(#a)">
    <path fill="#242526" d="M3.333 5.333a2.667 2.667 0 1 1 5.334 0 2.667 2.667 0 0 1-5.333 0Zm-2 7.382A3.714 3.714 0 0 1 5.048 9h1.904a3.714 3.714 0 0 1 3.715 3.715.619.619 0 0 1-.619.618H1.952a.619.619 0 0 1-.619-.618Zm12.694.618h-2.87c.112-.195.179-.422.179-.666V12.5c0-1.264-.565-2.4-1.455-3.162.05-.002.098-.005.148-.005h1.28a3.36 3.36 0 0 1 3.358 3.36.64.64 0 0 1-.64.64ZM10.334 8a2.33 2.33 0 0 1-1.653-.685c.41-.554.653-1.24.653-1.982 0-.558-.138-1.085-.382-1.548a2.332 2.332 0 0 1 3.715 1.882A2.332 2.332 0 0 1 10.334 8Z"/>
  </g>
  <defs>
    <clipPath id="a">
      <path fill="#fff" d="M1.333 2.667h13.333v10.667H1.333z"/>
    </clipPath>
  </defs>
</svg>
