<svg xmlns="http://www.w3.org/2000/svg" width="16" height="16" fill="none" viewBox="0 0 16 16">
  <g clip-path="url(#a)">
    <path fill="#242526" d="M7.004 4.013 5.94 5.077a2.178 2.178 0 0 0-.865.469l-.554.494c-.212.19-.49.293-.775.293h-.413V9c.425.012.83.185 1.132.488l.741.741.146.146.563.563a.334.334 0 0 0 .548-.121.502.502 0 0 1 .36-.32.495.495 0 0 1 .463.136l.225.221a.616.616 0 0 0 1.052-.404.5.5 0 0 1 .792-.381.5.5 0 0 0 .643-.76l-1.58-1.58-.745.688a1.504 1.504 0 0 1-2.054-2.2l1.46-1.38a3.078 3.078 0 0 1 4.15-.062l.627.558h2.478c.183 0 .333.15.333.334V10a.666.666 0 0 1-.667.667h-.666a.665.665 0 0 1-.578-.334h-1.768a1.505 1.505 0 0 1-1.594.808 1.622 1.622 0 0 1-2.396.59 1.332 1.332 0 0 1-1.792-.085l-.56-.563-.146-.146-.741-.741a.671.671 0 0 0-.425-.194c0 .367-.3.665-.667.665H2A.666.666 0 0 1 1.333 10V5.667c0-.184.15-.334.334-.334h2.079a.162.162 0 0 0 .11-.041L4.41 4.8c.58-.515 1.329-.8 2.106-.8h.214c.092 0 .186.004.275.013Zm5.663 5.32v-3h-1a.494.494 0 0 1-.331-.127l-.77-.683a2.076 2.076 0 0 0-2.8.042l-1.46 1.379a.505.505 0 0 0 .688.737l1.498-1.383a.498.498 0 0 1 .706.03.498.498 0 0 1-.03.705l-.016.017 1.55 1.55c.209.208.344.465.404.731h1.559l.002.002Zm-10 .334a.333.333 0 1 0-.667 0 .333.333 0 0 0 .667 0Zm11 .333a.333.333 0 1 0 0-.667.333.333 0 0 0 0 .667Z"/>
  </g>
  <defs>
    <clipPath id="a">
      <path fill="#fff" d="M1.333 2.667h13.333v10.667H1.333z"/>
    </clipPath>
  </defs>
</svg>
