<svg xmlns="http://www.w3.org/2000/svg" width="16" height="16" fill="none" viewBox="0 0 16 16">
  <g clip-path="url(#a)">
    <path fill="#242526" d="M7.333 2.667c.369 0 .667.298.667.666v4.334H6.666V3.333c0-.368.298-.666.667-.666Zm2 3.333c.369 0 .667.298.667.667V8a.666.666 0 1 1-1.334 0V6.667c0-.369.298-.667.667-.667Zm1.333 1.333a.666.666 0 1 1 1.334 0v1.334a.666.666 0 1 1-1.334 0V7.333Zm-6.056-3.6 1.72 3.934H4.876l-1.486-3.4a.665.665 0 1 1 1.221-.534Zm.563 4.61-.005-.01h2a.833.833 0 1 1 0 1.667H6.002a.334.334 0 0 0-.334.333c0 .184.15.334.334.334h1.166c.83 0 1.5-.671 1.5-1.5v-.013a1.334 1.334 0 0 0 1.409-.046 1.334 1.334 0 0 0 1.925.713V10a3.332 3.332 0 0 1-3.334 3.332H7.383a3.334 3.334 0 0 1-2.356-.977l-.242-.241A2.655 2.655 0 0 1 4 10.229v-.562c0-.681.512-1.244 1.173-1.323Z"/>
  </g>
  <defs>
    <clipPath id="a">
      <path fill="#fff" d="M2.667 2.667h10.667v10.667H2.667z"/>
    </clipPath>
  </defs>
</svg>
