<svg xmlns="http://www.w3.org/2000/svg" width="16" height="16" fill="none" viewBox="0 0 16 16">
  <g clip-path="url(#a)">
    <path fill="#242526" d="M9.854 8.354a.498.498 0 0 0 0-.706l-3-3.002A.5.5 0 0 0 6 5v1.667H3.667a1 1 0 0 0-1 1v.666a1 1 0 0 0 1 1H6V11a.5.5 0 0 0 .854.354l3-3Zm.146 2.98a.666.666 0 1 0 0 1.333h1.333a2 2 0 0 0 2-2V5.333a2 2 0 0 0-2-2H10a.666.666 0 1 0 0 1.334h1.333c.369 0 .667.298.667.666v5.334a.666.666 0 0 1-.667.666H10Z"/>
  </g>
  <defs>
    <clipPath id="a">
      <path fill="#fff" d="M2.667 2.667h10.667v10.667H2.667z"/>
    </clipPath>
  </defs>
</svg>
