<svg xmlns="http://www.w3.org/2000/svg" width="16" height="16" fill="none" viewBox="0 0 16 16">
  <g clip-path="url(#a)">
    <path fill="#242526" d="M2.833 4.5a1.167 1.167 0 1 1 2.334 0 1.167 1.167 0 0 1-2.333 0Zm-.166 3.285a1.32 1.32 0 0 0-.333.882c0 .337.124.648.333.88V7.784v.002Zm3.008-1.027A2.987 2.987 0 0 0 4.667 9c0 .714.25 1.37.667 1.885v.448a.666.666 0 0 1-.667.667H3.334a.666.666 0 0 1-.667-.667v-.558a2.334 2.334 0 0 1 1-4.442h.667c.5 0 .962.156 1.341.423v.002Zm4.992 4.575v-.448a2.995 2.995 0 0 0-.342-4.13 2.33 2.33 0 0 1 1.342-.422h.667a2.332 2.332 0 0 1 1 4.442v.558a.666.666 0 0 1-.667.667h-1.333a.666.666 0 0 1-.667-.667Zm.167-6.833a1.167 1.167 0 1 1 2.333 0 1.167 1.167 0 0 1-2.333 0Zm2.5 3.285V9.55c.208-.236.333-.544.333-.881a1.32 1.32 0 0 0-.333-.882v-.002ZM8 3.333A1.333 1.333 0 1 1 8 6a1.333 1.333 0 0 1 0-2.667ZM6.333 9c0 .337.125.646.334.881V8.117a1.324 1.324 0 0 0-.333.88V9Zm3-.881v1.764c.209-.235.334-.543.334-.881a1.32 1.32 0 0 0-.333-.881v-.002Zm1.334.88c0 .932-.546 1.734-1.333 2.11v.89a.666.666 0 0 1-.667.668H7.334A.666.666 0 0 1 6.667 12v-.892a2.334 2.334 0 0 1 1-4.441h.667A2.332 2.332 0 0 1 10.667 9Z"/>
  </g>
  <defs>
    <clipPath id="a">
      <path fill="#fff" d="M1.333 2.667h13.333v10.667H1.333z"/>
    </clipPath>
  </defs>
</svg>
