<svg xmlns="http://www.w3.org/2000/svg" width="16" height="16" fill="none" viewBox="0 0 16 16">
  <g clip-path="url(#a)">
    <path fill="#242526" d="M3.333 5.333a2.667 2.667 0 1 1 5.334 0 2.667 2.667 0 0 1-5.333 0Zm-2 7.382A3.714 3.714 0 0 1 5.048 9h1.904a3.714 3.714 0 0 1 3.715 3.715.619.619 0 0 1-.619.618H1.952a.619.619 0 0 1-.619-.618Zm9.813-7.07a.498.498 0 0 1 .706 0l.98.98.979-.98a.5.5 0 0 1 .706.706l-.98.98.98.98a.5.5 0 0 1-.706.706l-.98-.98-.979.98a.5.5 0 0 1-.706-.706l.98-.98-.98-.979a.498.498 0 0 1 0-.706Z"/>
  </g>
  <defs>
    <clipPath id="a">
      <path fill="#fff" d="M1.333 2.667h13.333v10.667H1.333z"/>
    </clipPath>
  </defs>
</svg>
