<svg xmlns="http://www.w3.org/2000/svg" width="24" height="24" fill="none" viewBox="0 0 24 24">
  <g clip-path="url(#a)">
    <path fill="#2563EB" d="M18.5 12a6.5 6.5 0 1 0-13 0 6.5 6.5 0 0 0 13 0ZM4 12a8 8 0 1 1 16 0 8 8 0 0 1-16 0Zm3.697 1.819c-.131-.428.222-.819.669-.819h7.268c.447 0 .8.39.67.819A4.503 4.503 0 0 1 12 17a4.503 4.503 0 0 1-4.303-3.181ZM9.5 9.625a.874.874 0 0 0-.875.875v.25a.627.627 0 0 1-.625.625.627.627 0 0 1-.625-.625v-.25c0-1.175.95-2.125 2.125-2.125s2.125.95 2.125 2.125v.25a.627.627 0 0 1-.625.625.627.627 0 0 1-.625-.625v-.25a.874.874 0 0 0-.875-.875Zm4.125.875v.25a.627.627 0 0 1-.625.625.627.627 0 0 1-.625-.625v-.25c0-1.175.95-2.125 2.125-2.125s2.125.95 2.125 2.125v.25a.627.627 0 0 1-.625.625.627.627 0 0 1-.625-.625v-.25a.874.874 0 0 0-.875-.875.874.874 0 0 0-.875.875Z"/>
  </g>
  <defs>
    <clipPath id="a">
      <path fill="#fff" d="M4 4h16v16H4z"/>
    </clipPath>
  </defs>
</svg>
