<svg xmlns="http://www.w3.org/2000/svg" width="24" height="24" fill="none" viewBox="0 0 24 24">
  <g clip-path="url(#a)">
    <path fill="#2563EB" d="M12 20a8 8 0 1 0 0-16.001A8 8 0 0 0 12 20Zm-4.825-6.188c-.116-.428.234-.812.678-.812h8.294c.444 0 .794.384.678.813a5 5 0 0 1-9.65 0ZM9.5 9.125a.874.874 0 0 0-.875.875v.25a.627.627 0 0 1-.625.625.627.627 0 0 1-.625-.625V10c0-1.175.95-2.125 2.125-2.125s2.125.95 2.125 2.125v.25a.627.627 0 0 1-.625.625.627.627 0 0 1-.625-.625V10a.874.874 0 0 0-.875-.875Zm4.125.875v.25a.627.627 0 0 1-.625.625.627.627 0 0 1-.625-.625V10c0-1.175.95-2.125 2.125-2.125s2.125.95 2.125 2.125v.25a.627.627 0 0 1-.625.625.627.627 0 0 1-.625-.625V10a.874.874 0 0 0-.875-.875.874.874 0 0 0-.875.875Z"/>
  </g>
  <defs>
    <clipPath id="a">
      <path fill="#fff" d="M4 4h16v16H4z"/>
    </clipPath>
  </defs>
</svg>
