<svg xmlns="http://www.w3.org/2000/svg" width="24" height="24" fill="none" viewBox="0 0 24 24">
  <g clip-path="url(#a)">
    <path fill="#242526" d="M14.571 15.75v.75a.75.75 0 0 0 .705-.494l-.705-.256ZM18 9.019h-.75.75ZM9.429 15.75l-.705.256a.75.75 0 0 0 .705.494v-.75ZM18 9.019h.75C18.75 5.365 15.698 2.5 12 2.5V4c2.93 0 5.25 2.253 5.25 5.019H18ZM12 3.25V2.5c-3.698 0-6.75 2.869-6.75 6.519h1.5C6.75 6.256 9.07 4 12 4v-.75Zm-2.571 12.5v.75h5.142V15H9.43v.75ZM6 9.019h-.75c0 1.798.772 3.099 1.566 4.17.198.265.4.522.592.765.194.247.377.48.547.712.342.466.607.896.769 1.34l.705-.256.704-.257c-.232-.639-.593-1.202-.968-1.714a27.556 27.556 0 0 0-.579-.753c-.194-.247-.383-.486-.565-.732-.723-.973-1.271-1.955-1.271-3.275H6Zm8.571 6.731.705.256c.162-.444.427-.874.769-1.34.17-.232.353-.465.547-.712.192-.243.395-.5.592-.766.794-1.07 1.566-2.372 1.566-4.17h-1.5c0 1.321-.548 2.303-1.27 3.276-.183.246-.372.485-.566.732-.193.244-.391.497-.58.753-.374.512-.735 1.075-.967 1.714l.704.257Z"/>
    <path fill="#242526" d="M11.25 12a.75.75 0 0 1 1.5 0v4.5h-1.5V12Z"/>
    <path fill="#242526" d="M9.364 8.106a.75.75 0 0 1 1.03.258l2.25 3.75a.75.75 0 0 1-1.288.772l-2.25-3.75a.75.75 0 0 1 .258-1.03Z"/>
    <path fill="#242526" d="M14.585 8.08a.75.75 0 0 0-1.006.335c-.367.734-.711 1.247-1.077 1.792-.369.549-.76 1.13-1.173 1.958a.75.75 0 0 0 1.342.67c.367-.735.711-1.247 1.077-1.792.369-.549.76-1.13 1.173-1.958a.75.75 0 0 0-.336-1.006ZM14.5 17.5a.75.75 0 0 1 0 1.5h-5a.75.75 0 0 1 0-1.5h5ZM14 20a.75.75 0 0 1 0 1.5h-4a.75.75 0 0 1 0-1.5h4Z"/>
  </g>
  <defs>
    <clipPath id="a">
      <path fill="#fff" d="M0 0h24v24H0z"/>
    </clipPath>
  </defs>
</svg>
