<svg xmlns="http://www.w3.org/2000/svg" width="24" height="24" fill="none" viewBox="0 0 24 24">
  <g clip-path="url(#a)">
    <path fill="#242526" d="M11.431 4.172a1.03 1.03 0 0 1 1.138 0l.556.365c.188.122.406.182.628.17l.666-.041c.412-.025.8.2.984.568l.3.597c.1.2.263.36.46.46l.603.303c.369.184.594.572.569.984l-.041.666c-.013.222.047.443.169.628l.368.556c.229.344.229.794 0 1.138l-.368.559a1.042 1.042 0 0 0-.17.628l.041.666c.026.412-.2.8-.568.984l-.597.3c-.2.1-.36.263-.46.46l-.303.603a1.032 1.032 0 0 1-.984.568l-.666-.04a1.037 1.037 0 0 0-.628.168l-.556.37a1.031 1.031 0 0 1-1.137 0l-.56-.37a1.043 1.043 0 0 0-.628-.168l-.666.04c-.412.025-.8-.2-.984-.568l-.3-.597c-.1-.2-.262-.36-.46-.46l-.602-.303a1.032 1.032 0 0 1-.57-.984l.041-.666a1.037 1.037 0 0 0-.168-.628l-.366-.56a1.03 1.03 0 0 1 0-1.137l.366-.556c.122-.188.18-.406.168-.628l-.04-.666c-.025-.412.2-.8.569-.984l.596-.3c.2-.103.363-.266.463-.466l.3-.597c.184-.368.572-.593.984-.568l.666.04c.222.013.444-.047.628-.169l.56-.365ZM14.501 10a2.5 2.5 0 1 0-5 0 2.5 2.5 0 0 0 5 0Zm-8.46 7.806 1.347-3.203a.022.022 0 0 1 .012.013l.3.597a2.038 2.038 0 0 0 1.938 1.118l.665-.04c.006 0 .016 0 .022.006l.556.369c.16.103.329.184.503.24l-1.175 2.79a.494.494 0 0 1-.415.304.497.497 0 0 1-.463-.225l-1.006-1.54-1.753.259a.498.498 0 0 1-.534-.688h.003Zm7.75 1.888-1.175-2.788a2.01 2.01 0 0 0 .503-.24l.556-.37a.045.045 0 0 1 .022-.005l.666.04a2.038 2.038 0 0 0 1.937-1.118l.3-.597a.024.024 0 0 1 .013-.013l1.35 3.203a.506.506 0 0 1-.066.5.493.493 0 0 1-.469.188l-1.753-.26-1.006 1.538a.5.5 0 0 1-.878-.078Z"/>
  </g>
  <defs>
    <clipPath id="a">
      <path fill="#fff" d="M6 4h12v16H6z"/>
    </clipPath>
  </defs>
</svg>
