<svg xmlns="http://www.w3.org/2000/svg" width="24" height="24" fill="none" viewBox="0 0 24 24">
  <g clip-path="url(#a)">
    <path fill="#000" d="M18.853 4.003c.31-.025.613.094.832.313.218.218.337.521.312.83-.125 1.541-.544 3.945-1.447 6.241a.492.492 0 0 1-.319.291l-2.528.76a.285.285 0 0 0-.203.274c0 .16.128.288.288.288h1.206c.375 0 .616.4.422.722-.125.21-.26.412-.397.612a.506.506 0 0 1-.263.19l-3.053.913a.285.285 0 0 0-.203.275c0 .16.128.288.288.288h.5c.456 0 .656.544.275.794-2.125 1.406-4.303 1.353-5.7.978-.397-.106-.75-.31-1.075-.56L5.5 19.5a.71.71 0 0 1-1 0 .71.71 0 0 1 0-1L7 16l.016.015a.483.483 0 0 1 .084-.112L12 11a.71.71 0 0 0 0-1 .71.71 0 0 0-1 0l-4.197 4.194c-.278.278-.75.137-.78-.257-.135-1.662.29-3.846 2.268-5.825 2.847-2.846 7.944-3.896 10.56-4.109h.002Z"/>
  </g>
  <defs>
    <clipPath id="a">
      <path fill="#fff" d="M4 4h16v16H4z"/>
    </clipPath>
  </defs>
</svg>
