<svg xmlns="http://www.w3.org/2000/svg" width="24" height="24" fill="none" viewBox="0 0 24 24">
  <g clip-path="url(#a)">
    <path fill="#000" d="M11.738 4.969A2.34 2.34 0 0 0 7.5 6.34v.075c0 2.012 2.563 4.168 3.819 5.103a1.13 1.13 0 0 0 1.36 0c1.255-.938 3.818-3.09 3.818-5.103V6.34a2.34 2.34 0 0 0-4.238-1.372L12 5.334l-.262-.365Zm-5.322 9.703L5.084 16H4a1 1 0 0 0-1 1v2a1 1 0 0 0 1 1h10.016c.906 0 1.79-.29 2.522-.828l3.956-2.916a1.249 1.249 0 1 0-1.482-2.012L15.27 17h-3.52a.748.748 0 0 1-.75-.75c0-.416.334-.75.75-.75H14a.999.999 0 1 0 0-2H9.244c-1.06 0-2.078.422-2.828 1.172Z"/>
  </g>
  <defs>
    <clipPath id="a">
      <path fill="#fff" d="M3 4h18v16H3z"/>
    </clipPath>
  </defs>
</svg>
