<svg xmlns="http://www.w3.org/2000/svg" width="24" height="24" fill="none" viewBox="0 0 24 24">
  <g clip-path="url(#a)">
    <path fill="#242526" d="M4.128 5.194A.768.768 0 0 1 4.768 4h3.416c.35 0 .679.184.857.484l2.14 3.566a6.48 6.48 0 0 0-3.856 1.934l-3.197-4.79Zm15.74 0-3.193 4.79a6.48 6.48 0 0 0-3.856-1.934l2.14-3.566c.182-.3.507-.484.857-.484h3.415a.768.768 0 0 1 .64 1.194h-.002ZM6.5 14.5a5.5 5.5 0 1 1 11 0 5.5 5.5 0 0 1-11 0Zm5.762-2.966a.292.292 0 0 0-.524 0l-.7 1.42a.288.288 0 0 1-.22.159l-1.568.228a.293.293 0 0 0-.162.5l1.134 1.106c.069.069.1.162.084.26l-.268 1.559a.293.293 0 0 0 .425.309l1.4-.738a.298.298 0 0 1 .271 0l1.4.738a.293.293 0 0 0 .425-.31l-.268-1.559a.298.298 0 0 1 .084-.26l1.134-1.105a.293.293 0 0 0-.162-.5l-1.566-.228a.29.29 0 0 1-.218-.16l-.7-1.419Z"/>
  </g>
  <defs>
    <clipPath id="a">
      <path fill="#fff" d="M4 4h16v16H4z"/>
    </clipPath>
  </defs>
</svg>
