<svg xmlns="http://www.w3.org/2000/svg" width="24" height="24" fill="none" viewBox="0 0 24 24">
  <g clip-path="url(#a)">
    <path fill="#000" d="M12.419 4.09a1.01 1.01 0 0 0-.838 0L5.697 6.589A1.94 1.94 0 0 0 4.5 8.375c.016 3.1 1.29 8.772 6.675 11.35.522.25 1.128.25 1.65 0 5.387-2.578 6.663-8.25 6.675-11.35a1.94 1.94 0 0 0-1.197-1.787L12.42 4.09ZM11.8 9.735 12 10l.2-.266a1.834 1.834 0 0 1 3.3 1.1V11c0 1.534-2.056 3.066-3.016 3.697a.875.875 0 0 1-.965 0c-.96-.631-3.016-2.166-3.016-3.697v-.166C8.503 9.822 9.325 9 10.338 9c.578 0 1.121.272 1.465.734H11.8Z"/>
  </g>
  <defs>
    <clipPath id="a">
      <path fill="#fff" d="M4 4h16v16H4z"/>
    </clipPath>
  </defs>
</svg>
