<svg xmlns="http://www.w3.org/2000/svg" width="24" height="24" fill="none" viewBox="0 0 24 24">
  <g clip-path="url(#a)">
    <path fill="#000" d="M12 4c.144 0 .287.031.419.09l5.887 2.498c.688.29 1.2.968 1.197 1.787-.016 3.1-1.29 8.772-6.675 11.35-.522.25-1.128.25-1.65 0-5.388-2.578-6.66-8.25-6.675-11.35A1.94 1.94 0 0 1 5.7 6.588l5.884-2.497A.98.98 0 0 1 12 4Zm0 2.088v11.815c4.312-2.087 5.472-6.712 5.5-9.481L12 6.09v-.003Z"/>
  </g>
  <defs>
    <clipPath id="a">
      <path fill="#fff" d="M4 4h16v16H4z"/>
    </clipPath>
  </defs>
</svg>
