<svg xmlns="http://www.w3.org/2000/svg" width="24" height="24" fill="none" viewBox="0 0 24 24">
  <g clip-path="url(#a)">
    <path fill="#242526" d="M12.903 4.563a1.002 1.002 0 0 0-1.8 0l-2.01 4.134-4.487.662a.998.998 0 0 0-.556 1.7l3.256 3.222-.769 4.553a1.003 1.003 0 0 0 1.46 1.05l4.01-2.14 4.008 2.14a1 1 0 0 0 1.46-1.05l-.772-4.553 3.256-3.222a1 1 0 0 0-.556-1.7l-4.49-.662-2.01-4.134Z"/>
  </g>
  <defs>
    <clipPath id="a">
      <path fill="#fff" d="M3 4h18v16H3z"/>
    </clipPath>
  </defs>
</svg>
