<svg xmlns="http://www.w3.org/2000/svg" width="24" height="24" fill="none" viewBox="0 0 24 24">
  <path fill="#000" d="M5.997 4.45A.499.499 0 0 0 5.5 4a.504.504 0 0 0-.5.447l-.44 4.231A2.752 2.752 0 0 0 7 11.988V19a.999.999 0 1 0 2 0v-7.012a2.752 2.752 0 0 0 2.44-3.31l-.443-4.231a.499.499 0 0 0-.994.003l-.425 4.234A.352.352 0 0 1 9.231 9a.353.353 0 0 1-.35-.319l-.384-4.225A.497.497 0 0 0 8 4a.497.497 0 0 0-.497.456L7.12 8.681a.35.35 0 0 1-.697.003L5.997 4.45ZM18 4c-.5 0-4 1-4 5.5V13c0 1.103.897 2 2 2h1v4a.999.999 0 1 0 2 0V5a1 1 0 0 0-1-1Z"/>
</svg>
