<svg xmlns="http://www.w3.org/2000/svg" width="16" height="16" fill="none" viewBox="0 0 16 16">
  <g clip-path="url(#a)">
    <path fill="#000" d="M8 4a4.001 4.001 0 0 0 0 8 .666.666 0 1 1 0 1.333A5.333 5.333 0 1 1 13.333 8v.667A2 2 0 0 1 9.808 9.96a2.666 2.666 0 1 1-.252-4.125.666.666 0 0 1 1.11.498v2.334a.666.666 0 1 0 1.334 0V8c0-2.208-1.792-4-4-4Zm1.333 4a1.333 1.333 0 1 0-2.667 0 1.333 1.333 0 0 0 2.667 0Z"/>
  </g>
  <defs>
    <clipPath id="a">
      <path fill="#fff" d="M2.667 2.667h10.667v10.667H2.667z"/>
    </clipPath>
  </defs>
</svg>
