<svg xmlns="http://www.w3.org/2000/svg" width="16" height="16" fill="none" viewBox="0 0 16 16">
  <g clip-path="url(#a)">
    <path fill="#242526" d="M5.667 10C8.06 10 10 8.358 10 6.333S8.06 2.667 5.667 2.667c-2.394 0-4.334 1.641-4.334 3.666 0 .805.306 1.548.825 2.155a1.934 1.934 0 0 1-.296.514 2.39 2.39 0 0 1-.39.392l-.003.004a.332.332 0 0 0-.12.37.338.338 0 0 0 .318.232c.454 0 .912-.117 1.293-.26.192-.073.371-.155.525-.238A4.925 4.925 0 0 0 5.667 10Zm5-3.667c0 2.34-2.065 4.102-4.51 4.313.505 1.55 2.185 2.687 4.176 2.687.796 0 1.54-.18 2.181-.498.157.084.334.165.526.238.38.144.84.26 1.293.26a.333.333 0 0 0 .196-.604l-.004-.004c-.004-.004-.013-.008-.023-.017-.02-.016-.052-.041-.09-.077a2.383 2.383 0 0 1-.277-.298 1.965 1.965 0 0 1-.296-.514c.52-.604.825-1.348.825-2.154 0-1.934-1.768-3.52-4.012-3.657.008.107.013.215.013.323l.002.002Z"/>
  </g>
  <defs>
    <clipPath id="a">
      <path fill="#fff" d="M1.333 2.667h13.333v10.667H1.333z"/>
    </clipPath>
  </defs>
</svg>
