<svg xmlns="http://www.w3.org/2000/svg" width="16" height="16" fill="none" viewBox="0 0 16 16">
  <g clip-path="url(#a)">
    <path fill="#242526" d="M6 10.333a1 1 0 0 1 1 1v.334l1.51-1.134c.173-.129.384-.2.6-.2H12c.183 0 .333-.15.333-.333V4A.334.334 0 0 0 12 3.667H4A.334.334 0 0 0 3.667 4v6c0 .183.15.333.333.333h2Zm1 2.584-.004.004-.107.08-.356.266a.337.337 0 0 1-.35.031A.328.328 0 0 1 6 13v-1.667H4A1.335 1.335 0 0 1 2.667 10V4c0-.735.597-1.333 1.333-1.333h8c.735 0 1.333.598 1.333 1.333v6c0 .736-.598 1.333-1.333 1.333H9.11L7 12.917Z"/>
  </g>
  <defs>
    <clipPath id="a">
      <path fill="#fff" d="M2.667 2.667h10.667v10.667H2.667z"/>
    </clipPath>
  </defs>
</svg>
