<svg xmlns="http://www.w3.org/2000/svg" width="16" height="16" fill="none" viewBox="0 0 16 16">
  <g clip-path="url(#a)">
    <path fill="#242526" d="M13.043 2.783a.67.67 0 0 1 .282.65L11.99 12.1a.665.665 0 0 1-.916.513l-2.492-1.036-1.427 1.544A.666.666 0 0 1 6 12.667v-1.742c0-.083.03-.162.087-.225L9.58 6.892a.333.333 0 0 0-.467-.473l-4.237 3.765-1.84-.921a.664.664 0 0 1-.369-.577.671.671 0 0 1 .336-.598l9.333-5.334a.669.669 0 0 1 .708.03Z"/>
  </g>
  <defs>
    <clipPath id="a">
      <path fill="#fff" d="M2.667 2.667h10.667v10.667H2.667z"/>
    </clipPath>
  </defs>
</svg>
