<svg xmlns="http://www.w3.org/2000/svg" width="24" height="24" fill="none" viewBox="0 0 24 24">
  <g clip-path="url(#a)">
    <path fill="#242526" d="M12 7.5a.501.501 0 0 1-.5-.5v-.5A2.5 2.5 0 0 1 14 4h.5c.275 0 .5.225.5.5V5a2.5 2.5 0 0 1-2.5 2.5H12ZM5 13c0-2.384 1.116-5 3.5-5 .853 0 1.866.322 2.584.603a2.544 2.544 0 0 0 1.835 0C13.634 8.325 14.65 8 15.503 8c2.384 0 3.5 2.616 3.5 5 0 4-2.5 7-5 7-.515 0-1.19-.206-1.61-.353a1.196 1.196 0 0 0-.78 0c-.42.147-1.094.353-1.61.353-2.5 0-5-3-5-7H5Z"/>
  </g>
  <defs>
    <clipPath id="a">
      <path fill="#fff" d="M5 4h14v16H5z"/>
    </clipPath>
  </defs>
</svg>
