<svg xmlns="http://www.w3.org/2000/svg" width="24" height="24" fill="none" viewBox="0 0 24 24">
  <path fill="#242526" d="M9.5 5.25c0-.416.334-.75.75-.75h.5c.416 0 .75.334.75.75s-.334.75-.75.75h-.5a.748.748 0 0 1-.75-.75Zm.75 1.5h.5c.416 0 .75.334.75.75s-.334.75-.75.75h-.5a.748.748 0 0 1-.75-.75c0-.416.334-.75.75-.75ZM5.75 9h.5c.416 0 .75.334.75.75s-.334.75-.75.75h-.5A.748.748 0 0 1 5 9.75c0-.416.334-.75.75-.75ZM4 12.856c0-.472.384-.856.856-.856h14.285c.472 0 .856.384.856.856a5.146 5.146 0 0 1-3.334 4.816l-.054.453a1 1 0 0 1-.993.875H8.38c-.503 0-.931-.375-.994-.875l-.056-.45A5.155 5.155 0 0 1 4 12.856Zm7-3.106c0-.416.334-.75.75-.75h.5c.416 0 .75.334.75.75s-.334.75-.75.75h-.5a.748.748 0 0 1-.75-.75Zm-3 0c0-.416.334-.75.75-.75h.5c.416 0 .75.334.75.75s-.334.75-.75.75h-.5A.748.748 0 0 1 8 9.75Zm-.75-3h.5c.416 0 .75.334.75.75s-.334.75-.75.75h-.5a.748.748 0 0 1-.75-.75c0-.416.334-.75.75-.75Zm6.75 3c0-.416.334-.75.75-.75h.5c.416 0 .75.334.75.75s-.334.75-.75.75h-.5a.748.748 0 0 1-.75-.75Zm-.75-3h.5c.416 0 .75.334.75.75s-.334.75-.75.75h-.5a.748.748 0 0 1-.75-.75c0-.416.334-.75.75-.75Zm3.75 3c0-.416.334-.75.75-.75h.5c.416 0 .75.334.75.75s-.334.75-.75.75h-.5a.748.748 0 0 1-.75-.75Zm-.75-3h.5c.416 0 .75.334.75.75s-.334.75-.75.75h-.5a.748.748 0 0 1-.75-.75c0-.416.334-.75.75-.75Zm-3-2.25h.5c.416 0 .75.334.75.75s-.334.75-.75.75h-.5a.748.748 0 0 1-.75-.75c0-.416.334-.75.75-.75Z"/>
</svg>
