<svg xmlns="http://www.w3.org/2000/svg" width="24" height="24" fill="none" viewBox="0 0 24 24">
  <g clip-path="url(#a)">
    <path fill="#000" d="M12 20a8 8 0 0 0 8-8c0-.728-.097-1.434-.278-2.103.172-.422.278-.888.278-1.397a3 3 0 0 0-3-3h-.09a2.51 2.51 0 0 0-.232.01A7.962 7.962 0 0 0 12 4a7.96 7.96 0 0 0-4.678 1.51 2.86 2.86 0 0 0-.231-.01H7a3 3 0 0 0-3 3c0 .51.11.975.278 1.397A8.036 8.036 0 0 0 4 12a8 8 0 0 0 8 8Zm4.084-5.847c.372-.116.747.197.613.566A5.004 5.004 0 0 1 12 18.003a5.007 5.007 0 0 1-4.697-3.287c-.134-.37.24-.682.613-.566 1.225.381 2.615.597 4.084.597 1.469 0 2.86-.216 4.084-.597v.003ZM14.091 7c.421 0 .828.169 1.125.466l.284.284.284-.284A1.594 1.594 0 0 1 16.91 7H17a1.5 1.5 0 0 1 1.5 1.5c0 1.669-2.09 2.99-2.781 3.381a.437.437 0 0 1-.438 0c-.69-.39-2.781-1.712-2.781-3.381A1.5 1.5 0 0 1 14 7h.09Zm-5.875.466.284.284.284-.284A1.594 1.594 0 0 1 9.91 7H10a1.5 1.5 0 0 1 1.5 1.5c0 1.669-2.09 2.99-2.781 3.381a.437.437 0 0 1-.438 0C7.591 11.491 5.5 10.17 5.5 8.5A1.5 1.5 0 0 1 7 7h.09c.423 0 .829.169 1.126.466Z"/>
  </g>
  <defs>
    <clipPath id="a">
      <path fill="#fff" d="M4 4h16v16H4z"/>
    </clipPath>
  </defs>
</svg>
