<svg xmlns="http://www.w3.org/2000/svg" width="24" height="24" fill="none" viewBox="0 0 24 24">
  <g clip-path="url(#a)">
    <path fill="#242526" d="M11.997 4c.288 0 .55.162.675.422l2.144 4.416 4.787.706a.753.753 0 0 1 .419 1.275l-3.472 3.443.819 4.863a.752.752 0 0 1-1.094.788l-4.281-2.288-4.275 2.284a.746.746 0 0 1-.79-.053.757.757 0 0 1-.304-.734l.819-4.863-3.472-3.44a.748.748 0 0 1-.184-.766.755.755 0 0 1 .603-.51l4.787-.705 2.144-4.416A.75.75 0 0 1 11.997 4Zm0 2.469-1.64 3.381a.757.757 0 0 1-.566.416l-3.697.543 2.684 2.66a.752.752 0 0 1 .213.656l-.635 3.74 3.288-1.756a.744.744 0 0 1 .706 0l3.288 1.757-.631-3.738a.743.743 0 0 1 .212-.656l2.684-2.66-3.696-.546a.755.755 0 0 1-.566-.416l-1.644-3.381Z"/>
  </g>
  <defs>
    <clipPath id="a">
      <path fill="#fff" d="M3 4h18v16H3z"/>
    </clipPath>
  </defs>
</svg>
