<svg xmlns="http://www.w3.org/2000/svg" width="24" height="24" fill="none" viewBox="0 0 24 24">
  <path fill="#14532D" d="M18.5 4.191a.751.751 0 0 1 1.03.028l.25.25a.751.751 0 0 1 .03 1.031l-2.681 2.997a.502.502 0 0 0-.128.335V9.5c0 .275-.226.5-.5.5h-.494a.492.492 0 0 0-.372.166l-8.488 9.488c-.2.221-.48.346-.778.346a1.03 1.03 0 0 1-.734-.306l-1.331-1.328A1.046 1.046 0 0 1 4 17.632c0-.297.125-.578.346-.775l3.488-3.12a.497.497 0 0 0 .166-.37v-.863c0-.275.225-.5.5-.5h1.08a.51.51 0 0 0 .335-.129L18.5 4.191Zm-1 8.81a.25.25 0 0 1 .24.18l.463 1.616 1.615.463a.251.251 0 0 1 .181.24c0 .113-.075.21-.18.241l-1.616.463-.463 1.615a.251.251 0 0 1-.481 0l-.463-1.615-1.615-.463a.251.251 0 0 1-.181-.24c0-.113.075-.21.18-.241l1.616-.463.463-1.615a.251.251 0 0 1 .24-.182ZM6.74 6.18l.463 1.616 1.615.463A.251.251 0 0 1 9 8.5a.25.25 0 0 1-.182.241l-1.615.463-.463 1.615A.251.251 0 0 1 6.5 11a.251.251 0 0 1-.241-.18l-.463-1.616-1.615-.463A.251.251 0 0 1 4 8.501c0-.113.075-.21.18-.241l1.616-.463.463-1.615A.251.251 0 0 1 6.499 6a.25.25 0 0 1 .241.182ZM10.5 4a.25.25 0 0 1 .243.19l.213.853.853.213a.25.25 0 0 1 0 .487l-.853.213-.213.853a.25.25 0 0 1-.487 0l-.213-.853-.853-.213a.25.25 0 0 1 0-.487l.853-.213.213-.853a.25.25 0 0 1 .243-.19Z"/>
</svg>
