<svg xmlns="http://www.w3.org/2000/svg" width="16" height="16" fill="none" viewBox="0 0 16 16">
  <g clip-path="url(#a)">
    <path fill="#242526" d="M8.804 12.138a.668.668 0 0 1-.943 0L4.527 8.804a.668.668 0 0 1 .944-.943l2.863 2.862 2.862-2.86a.668.668 0 0 1 .944.943L8.807 12.14l-.003-.002Zm3.334-7.334L8.804 8.138a.668.668 0 0 1-.943 0L4.527 4.804a.668.668 0 0 1 .944-.943l2.863 2.862 2.862-2.86a.668.668 0 0 1 .944.943l-.002-.002Z"/>
  </g>
  <defs>
    <clipPath id="a">
      <path fill="#fff" d="M3.333 2.667h9.333v10.667H3.333z"/>
    </clipPath>
  </defs>
</svg>
