<svg xmlns="http://www.w3.org/2000/svg" width="16" height="16" fill="none" viewBox="0 0 16 16">
  <path fill="#242526" d="M7.2 12.156a.35.35 0 0 0 .467-.323V3.971a.285.285 0 0 0-.104-.23C7.154 3.418 6.216 3 5 3c-1.052 0-2.035.277-2.623.502A.61.61 0 0 0 2 4.08v7.715c0 .248.267.42.502.343.656-.218 1.696-.47 2.498-.47.706 0 1.646.291 2.2.49Zm1.6 0c.554-.198 1.494-.49 2.2-.49.802 0 1.842.253 2.498.471.235.08.502-.095.502-.343V4.079a.605.605 0 0 0-.377-.575C13.035 3.277 12.053 3 11 3c-1.217 0-2.154.417-2.563.742a.29.29 0 0 0-.104.229v7.862a.35.35 0 0 0 .467.323Z"/>
</svg>
