<svg xmlns="http://www.w3.org/2000/svg" width="16" height="16" fill="none" viewBox="0 0 16 16">
  <g clip-path="url(#a)">
    <path fill="#242526" d="M9.666 7.667c0 .462-.025.908-.068 1.333h-3.86a13.027 13.027 0 0 1 0-2.667h3.86c.045.425.068.871.068 1.334Zm.6-1.333h2.565a5.316 5.316 0 0 1 0 2.666h-2.565a13.148 13.148 0 0 0 0-2.667Zm2.346-.667h-2.431c-.208-1.331-.62-2.446-1.152-3.158a5.344 5.344 0 0 1 3.581 3.158h.002Zm-3.106 0h-3.68c.128-.758.324-1.43.563-1.973.219-.492.463-.848.698-1.073.234-.22.427-.288.58-.288.151 0 .345.067.579.288.235.225.479.581.697 1.073.242.542.436 1.212.563 1.973Zm-4.354 0H2.72a5.347 5.347 0 0 1 3.583-3.158c-.531.712-.944 1.827-1.152 3.158Zm-2.65.667h2.564a13.163 13.163 0 0 0 0 2.666H2.502a5.315 5.315 0 0 1 0-2.667Zm3.887 5.304c-.241-.542-.435-1.213-.562-1.971h3.679c-.127.758-.323 1.429-.563 1.97-.218.492-.462.849-.697 1.074-.234.223-.428.29-.58.29-.152 0-.345-.067-.579-.288-.235-.225-.479-.582-.698-1.073v-.002ZM5.152 9.667c.208 1.331.62 2.446 1.152 3.158A5.347 5.347 0 0 1 2.72 9.667h2.43Zm7.46 0a5.348 5.348 0 0 1-3.581 3.158c.531-.712.942-1.827 1.152-3.158h2.431-.002Z"/>
  </g>
  <defs>
    <clipPath id="a">
      <path fill="#fff" d="M2.667 2.667h10.667v10.667H2.667z"/>
    </clipPath>
  </defs>
</svg>
