<svg xmlns="http://www.w3.org/2000/svg" width="16" height="16" fill="none" viewBox="0 0 16 16">
  <g clip-path="url(#a)">
    <path fill="#242526" d="M2.333 4.333c0-.368.298-.666.667-.666h8A.666.666 0 1 1 11 5H3a.666.666 0 0 1-.667-.667Zm1.333 3.334c0-.369.298-.667.667-.667h8a.666.666 0 1 1 0 1.333h-8a.666.666 0 0 1-.667-.666Zm8 3.333a.666.666 0 0 1-.666.667H3a.666.666 0 1 1 0-1.334h8c.368 0 .666.298.666.667Z"/>
  </g>
  <defs>
    <clipPath id="a">
      <path fill="#fff" d="M2.667 2.667h10.667v10.667H2.667z"/>
    </clipPath>
  </defs>
</svg>
