<svg xmlns="http://www.w3.org/2000/svg" width="16" height="16" fill="none" viewBox="0 0 16 16">
  <g clip-path="url(#a)">
    <path fill="#242526" d="m3.896 3.896-.709-.708a.5.5 0 0 0-.854.352v2.293c0 .278.223.5.5.5h2.294a.5.5 0 0 0 .354-.854l-.642-.641a4.001 4.001 0 1 1 .542 6.113.668.668 0 0 0-.765 1.093 5.333 5.333 0 1 0-.72-8.148ZM7.666 5c-.277 0-.5.223-.5.5v2.167a.5.5 0 0 0 .146.354l1.5 1.5a.5.5 0 0 0 .706-.706L8.164 7.46V5.5c0-.278-.223-.5-.5-.5h.002Z"/>
  </g>
  <defs>
    <clipPath id="a">
      <path fill="#fff" d="M2.667 2.667h10.667v10.667H2.667z"/>
    </clipPath>
  </defs>
</svg>
