<svg xmlns="http://www.w3.org/2000/svg" width="24" height="24" fill="none" viewBox="0 0 24 24">
  <g clip-path="url(#a)">
    <path fill="#242526" d="M12 5.5a6.5 6.5 0 1 1 0 13 6.5 6.5 0 0 1 0-13ZM12 20a8 8 0 1 0 0-16.001A8 8 0 0 0 12 20ZM10.64 8.61a.747.747 0 0 0-1.14.64v5.5a.75.75 0 0 0 1.144.637l4.5-2.75a.754.754 0 0 0 .36-.64.754.754 0 0 0-.36-.64l-4.5-2.75-.003.002ZM13.313 12 11 13.412v-2.825L13.313 12Z"/>
  </g>
  <defs>
    <clipPath id="a">
      <path fill="#fff" d="M4 4h16v16H4z"/>
    </clipPath>
  </defs>
</svg>
