<svg xmlns="http://www.w3.org/2000/svg" width="24" height="24" fill="none" viewBox="0 0 24 24">
  <path fill="#242526" d="M4 7c0-1.103.897-2 2-2h12c1.103 0 2 .897 2 2v10c0 1.103-.897 2-2 2H6c-1.103 0-2-.897-2-2V7Zm1.5 8.5v1c0 .275.225.5.5.5h1c.275 0 .5-.225.5-.5v-1c0-.275-.225-.5-.5-.5H6c-.275 0-.5.225-.5.5ZM17 15c-.275 0-.5.225-.5.5v1c0 .275.225.5.5.5h1c.275 0 .5-.225.5-.5v-1c0-.275-.225-.5-.5-.5h-1ZM5.5 11.5v1c0 .275.225.5.5.5h1c.275 0 .5-.225.5-.5v-1c0-.275-.225-.5-.5-.5H6c-.275 0-.5.225-.5.5ZM17 11c-.275 0-.5.225-.5.5v1c0 .275.225.5.5.5h1c.275 0 .5-.225.5-.5v-1c0-.275-.225-.5-.5-.5h-1ZM5.5 7.5v1c0 .275.225.5.5.5h1c.275 0 .5-.225.5-.5v-1c0-.275-.225-.5-.5-.5H6c-.275 0-.5.225-.5.5ZM17 7c-.275 0-.5.225-.5.5v1c0 .275.225.5.5.5h1c.275 0 .5-.225.5-.5v-1c0-.275-.225-.5-.5-.5h-1ZM9 8v2a1 1 0 0 0 1 1h4a1 1 0 0 0 1-1V8a1 1 0 0 0-1-1h-4a1 1 0 0 0-1 1Zm1 5a1 1 0 0 0-1 1v2a1 1 0 0 0 1 1h4a1 1 0 0 0 1-1v-2a1 1 0 0 0-1-1h-4Z"/>
</svg>
