<svg xmlns="http://www.w3.org/2000/svg" width="16" height="16" fill="none" viewBox="0 0 16 16">
  <g clip-path="url(#a)">
    <path fill="#242526" d="M5.187 3.333c-.612 0-1.146.417-1.293 1.01l-1.188 4.75c-.027.106-.04.214-.04.323v1.919c0 .735.598 1.333 1.334 1.333h8c.735 0 1.333-.598 1.333-1.333v-1.92c0-.108-.012-.216-.04-.322l-1.187-4.748a1.333 1.333 0 0 0-1.294-1.01H5.187Zm0 1.334h5.625l1 4h-1.066a.664.664 0 0 0-.596.369l-.298.595a.668.668 0 0 1-.596.37H6.748a.664.664 0 0 1-.596-.37l-.298-.595a.668.668 0 0 0-.596-.37h-1.07l1-4Z"/>
  </g>
  <defs>
    <clipPath id="a">
      <path fill="#fff" d="M2.667 2.667h10.667v10.667H2.667z"/>
    </clipPath>
  </defs>
</svg>
