<svg xmlns="http://www.w3.org/2000/svg" width="16" height="16" fill="none" viewBox="0 0 16 16">
  <g clip-path="url(#a)">
    <path fill="#242526" d="M6.937 3.392c.24.106.396.346.396.608v1.333h2.333A3.667 3.667 0 0 1 13.333 9a4.085 4.085 0 0 1-2.087 3.627.342.342 0 0 1-.17.04.411.411 0 0 1-.41-.41c0-.157.09-.3.205-.407.195-.183.462-.55.462-1.181a2 2 0 0 0-2-2h-2v1.333a.669.669 0 0 1-1.112.496l-3.334-3a.67.67 0 0 1 0-.994l3.334-3a.662.662 0 0 1 .716-.112Z"/>
  </g>
  <defs>
    <clipPath id="a">
      <path fill="#fff" d="M2.667 2.667h10.667v10.667H2.667z"/>
    </clipPath>
  </defs>
</svg>
