<svg xmlns="http://www.w3.org/2000/svg" width="16" height="16" fill="none" viewBox="0 0 16 16">
  <g clip-path="url(#a)">
    <path fill="#242526" d="M7.11 3.342c.363.06.609.404.548.767l-.204 1.225h1.982l.24-1.444a.667.667 0 0 1 1.314.219l-.202 1.225H12a.666.666 0 1 1 0 1.333h-1.435l-.444 2.667h1.213a.666.666 0 1 1 0 1.333H9.898l-.24 1.444a.667.667 0 0 1-1.314-.22l.204-1.222H6.567l-.24 1.444a.667.667 0 0 1-1.314-.219l.2-1.227H4a.666.666 0 1 1 0-1.333h1.436l.443-2.667H4.667a.666.666 0 1 1 0-1.333h1.435l.24-1.444a.667.667 0 0 1 .767-.548h.002Zm.121 3.325-.443 2.667h1.98l.445-2.667H7.23Z"/>
    <path fill="#242526" stroke="#fff" stroke-width=".467" d="M11.416 7.767c.451 0 .818.366.818.816v2.625c0 .45-.367.817-.818.817H10.23l-1.064.8h-.002a.38.38 0 0 1-.605-.305v-.495h-.642a.818.818 0 0 1-.817-.817V8.583c0-.45.366-.816.817-.816h3.5Z"/>
  </g>
  <defs>
    <clipPath id="a">
      <path fill="#fff" d="M3.333 2.667h9.333v10.667H3.333z"/>
    </clipPath>
  </defs>
</svg>
