<svg xmlns="http://www.w3.org/2000/svg" width="24" height="24" fill="none" viewBox="0 0 24 24">
  <g clip-path="url(#a)">
    <path fill="#242526" d="M8.5 15c3.59 0 6.5-2.463 6.5-5.5S12.09 4 8.5 4 2 6.463 2 9.5c0 1.206.46 2.322 1.237 3.231a2.913 2.913 0 0 1-.443.772 3.58 3.58 0 0 1-.585.588l-.006.006a.498.498 0 0 0-.178.556c.069.203.26.347.475.347.681 0 1.369-.175 1.94-.39.288-.11.557-.232.788-.357A7.388 7.388 0 0 0 8.5 15ZM16 9.5c0 3.51-3.097 6.153-6.766 6.469C9.994 18.294 12.512 20 15.5 20c1.194 0 2.31-.272 3.272-.747.234.125.5.247.787.356.572.216 1.26.391 1.94.391a.5.5 0 0 0 .295-.906l-.007-.007c-.006-.006-.018-.012-.034-.024a3.594 3.594 0 0 1-.55-.563 2.952 2.952 0 0 1-.444-.772c.778-.906 1.238-2.022 1.238-3.231 0-2.9-2.653-5.278-6.019-5.485.013.16.019.322.019.485L16 9.5Z"/>
  </g>
  <defs>
    <clipPath id="a">
      <path fill="#fff" d="M2 4h20v16H2z"/>
    </clipPath>
  </defs>
</svg>
