<svg xmlns="http://www.w3.org/2000/svg" width="24" height="24" fill="none" viewBox="0 0 24 24">
  <g clip-path="url(#a)">
    <path fill="#242526" d="M9 15.5a1.5 1.5 0 0 1 1.5 1.5v.5l2.266-1.7c.259-.194.575-.3.9-.3H18c.275 0 .5-.225.5-.5V6c0-.275-.225-.5-.5-.5H6c-.275 0-.5.225-.5.5v9c0 .275.225.5.5.5h3Zm1.5 3.875-.006.006-.16.119-.534.4a.505.505 0 0 1-.525.047A.492.492 0 0 1 9 19.5V17H6c-1.103 0-2-.897-2-2V6c0-1.103.897-2 2-2h12c1.103 0 2 .897 2 2v9c0 1.103-.897 2-2 2h-4.334L10.5 19.375Z"/>
  </g>
  <defs>
    <clipPath id="a">
      <path fill="#fff" d="M4 4h16v16H4z"/>
    </clipPath>
  </defs>
</svg>
