<svg xmlns="http://www.w3.org/2000/svg" width="24" height="24" fill="none" viewBox="0 0 24 24">
  <g clip-path="url(#a)">
    <path fill="#242526" d="M19.566 4.175a1 1 0 0 1 .421.975l-2 13a.998.998 0 0 1-1.375.769l-3.737-1.553-2.14 2.315A1 1 0 0 1 9 19.001v-2.613c0-.125.047-.244.131-.338l5.238-5.712a.5.5 0 0 0-.7-.71l-6.357 5.647-2.759-1.381A.996.996 0 0 1 4 13.028c-.01-.369.184-.712.503-.897l14-8c.334-.19.747-.172 1.063.044Z"/>
  </g>
  <defs>
    <clipPath id="a">
      <path fill="#fff" d="M4 4h16v16H4z"/>
    </clipPath>
  </defs>
</svg>
