<svg xmlns="http://www.w3.org/2000/svg" width="24" height="24" fill="none" viewBox="0 0 24 24">
  <rect width="23" height="23" x=".5" y=".5" fill="#F0F8FF" rx="11.5"/>
  <rect width="23" height="23" x=".5" y=".5" stroke="#fff" rx="11.5"/>
  <path fill="#2A7AB7" d="M11.666 17a5.333 5.333 0 1 0 0-10.667 5.333 5.333 0 0 0 0 10.667ZM8.45 12.875c-.077-.285.156-.541.452-.541h5.529c.296 0 .53.256.452.541a3.334 3.334 0 0 1-6.433 0ZM10 9.75a.582.582 0 0 0-.584.584v.166c0 .23-.187.417-.416.417a.418.418 0 0 1-.417-.417v-.166a1.415 1.415 0 1 1 2.833 0v.166c0 .23-.187.417-.416.417a.418.418 0 0 1-.417-.417v-.166A.582.582 0 0 0 10 9.75Zm2.75.584v.166a.418.418 0 0 1-.833 0v-.166a1.416 1.416 0 1 1 2.833 0v.166a.418.418 0 0 1-.833 0v-.166a.582.582 0 1 0-1.167 0Z"/>
</svg>
