<svg xmlns="http://www.w3.org/2000/svg" width="24" height="24" fill="none" viewBox="0 0 24 24">
  <rect width="23" height="23" x=".5" y=".5" fill="#D1F7CC" rx="11.5"/>
  <rect width="23" height="23" x=".5" y=".5" stroke="#fff" rx="11.5"/>
  <g clip-path="url(#a)">
    <path fill="#22C55E" stroke="#22C55E" d="M6.667 9.833A3.333 3.333 0 0 1 10 6.5h4a3.333 3.333 0 0 1 3.333 3.333v2.328A3.333 3.333 0 0 1 14 15.495h-.303a.333.333 0 0 0-.21.075l-2.715 2.209a.167.167 0 0 1-.272-.13v-1.988a.167.167 0 0 0-.167-.166H10a3.333 3.333 0 0 1-3.333-3.334V9.833Z"/>
    <path fill="#14532D" d="M14.243 8.854a.5.5 0 0 1 .781.625l-3.2 4a.5.5 0 0 1-.69.088l-1.6-1.2a.5.5 0 0 1 .6-.8l1.211.91 2.898-3.623Z"/>
  </g>
  <defs>
    <clipPath id="a">
      <path fill="#fff" d="M4 4h16v16H4z"/>
    </clipPath>
  </defs>
</svg>
