<svg xmlns="http://www.w3.org/2000/svg" width="24" height="24" fill="none" viewBox="0 0 24 24">
  <rect width="23" height="23" x=".5" y=".5" fill="#FFF6E7" rx="11.5"/>
  <rect width="23" height="23" x=".5" y=".5" stroke="#fff" rx="11.5"/>
  <g clip-path="url(#a)">
    <circle cx="12" cy="12" r="4.5" fill="#FF7858" stroke="#FF7858" stroke-linecap="square"/>
    <path fill="#7B2211" d="M11.5 5.667v-1a.5.5 0 0 1 1 0v1a.5.5 0 0 1-1 0Zm0 13.666v-1a.5.5 0 1 1 1 0v1a.5.5 0 0 1-1 0Zm7.834-7.833a.5.5 0 0 1 0 1h-1a.5.5 0 0 1 0-1h1Zm-13.667 0a.5.5 0 0 1 0 1h-1a.5.5 0 0 1 0-1h1Z"/>
    <path fill="#FF7858" d="m16.125 7.168.707-.707a.5.5 0 1 1 .707.707l-.707.707a.5.5 0 1 1-.707-.707ZM6.46 16.832l.708-.707a.5.5 0 1 1 .707.707l-.707.707a.5.5 0 1 1-.707-.707Zm11.08 0a.5.5 0 0 1-.708.707l-.707-.707a.5.5 0 1 1 .707-.707l.707.707ZM7.875 7.168a.5.5 0 1 1-.707.707l-.707-.707a.5.5 0 1 1 .707-.707l.707.707Z"/>
    <path fill="#7B2211" d="M10.366 13.294A2.2 2.2 0 0 0 12 14c.775 0 1.316-.365 1.633-.706a.5.5 0 0 1 .736.677A3.19 3.19 0 0 1 12.002 15a3.179 3.179 0 0 1-2.367-1.03.498.498 0 0 1 .03-.706.498.498 0 0 1 .706.03h-.005ZM9.675 11a.667.667 0 1 1 1.333 0 .667.667 0 0 1-1.333 0Zm4-.667a.667.667 0 1 1 0 1.334.667.667 0 0 1 0-1.334Z"/>
  </g>
  <defs>
    <clipPath id="a">
      <path fill="#fff" d="M4 4h16v16H4z"/>
    </clipPath>
  </defs>
</svg>
