<svg xmlns="http://www.w3.org/2000/svg" width="24" height="24" fill="none" viewBox="0 0 24 24">
  <g clip-path="url(#a)">
    <path fill="#242526" d="M12 4a1 1 0 0 0-1 1v.6a5.002 5.002 0 0 0-4 4.9v.794a6.256 6.256 0 0 1-1.369 3.903l-.466.584A.748.748 0 0 0 5.75 17h12.5a.75.75 0 0 0 .584-1.219l-.465-.581a6.271 6.271 0 0 1-1.37-3.906V10.5a5.002 5.002 0 0 0-4-4.9V5c0-.553-.446-1-1-1Zm0 3c1.934 0 3.5 1.566 3.5 3.5v.794c0 1.497.434 2.956 1.24 4.206H7.26a7.761 7.761 0 0 0 1.24-4.206V10.5C8.5 8.566 10.065 7 12 7Zm2 11h-4a2 2 0 0 0 .584 1.416A2 2 0 0 0 12 20a2 2 0 0 0 1.415-.584A2 2 0 0 0 14 18Z"/>
  </g>
  <defs>
    <clipPath id="a">
      <path fill="#fff" d="M5 4h14v16H5z"/>
    </clipPath>
  </defs>
</svg>
