<svg xmlns="http://www.w3.org/2000/svg" width="24" height="24" fill="none" viewBox="0 0 24 24">
  <g clip-path="url(#a)">
    <path fill="#242526" d="M20 11.5c0 3.59-3.581 6.5-8 6.5-1.16 0-2.26-.2-3.253-.56a9.254 9.254 0 0 1-1.697.957C6.3 18.722 5.397 19 4.5 19a.5.5 0 0 1-.356-.853l.01-.01c.008-.009.021-.021.04-.043.034-.038.087-.097.153-.178.128-.157.3-.388.475-.675.312-.52.61-1.2.669-1.966C4.553 14.212 4 12.909 4 11.5 4 7.91 7.58 5 12 5c4.419 0 8 2.91 8 6.5Z"/>
  </g>
  <defs>
    <clipPath id="a">
      <path fill="#fff" d="M4 4h16v16H4z"/>
    </clipPath>
  </defs>
</svg>
