<svg xmlns="http://www.w3.org/2000/svg" width="24" height="24" fill="none" viewBox="0 0 24 24">
  <path fill="#242526" d="M0 12C0 5.373 5.373 0 12 0s12 5.373 12 12-5.373 12-12 12S0 18.627 0 12Z"/>
  <g clip-path="url(#a)">
    <path fill="#fff" d="M12.833 7.417a.832.832 0 1 0-1.667 0v3.75h-3.75a.832.832 0 1 0 0 1.666h3.75v3.75a.832.832 0 1 0 1.667 0v-3.75h3.75a.832.832 0 1 0 0-1.666h-3.75v-3.75Z"/>
  </g>
  <defs>
    <clipPath id="a">
      <path fill="#fff" d="M6.167 5.333h11.667v13.333H6.167z"/>
    </clipPath>
  </defs>
</svg>
