<svg xmlns="http://www.w3.org/2000/svg" width="24" height="24" fill="none" viewBox="0 0 24 24">
  <g clip-path="url(#a)">
    <path fill="#242526" stroke="#242526" d="M12.013 4.5c.134 0 .257.04.332.1l7.974 7.01h.001c.168.147.185.247.177.319l-.004.028v.027a.51.51 0 0 1-.5.503h-1.502l.002.502.023 5.007a1.8 1.8 0 0 1-.013.195l-.003.028v.534a.75.75 0 0 1-.75.75h-.5l-.058-.001-.04-.004-.04.003c-.024.002-.05.001-.096.001L16 19.5h-.751a.75.75 0 0 1-.75-.75V16c0-.83-.67-1.5-1.5-1.5h-2c-.83 0-1.5.67-1.5 1.5v2.75a.75.75 0 0 1-.75.75H7.003c-.028 0-.058-.002-.107-.005l-.038-.003-.038.003-.07.005h-.5a.75.75 0 0 1-.75-.75v-3.532l.003-.028v-2.706h-1.5a.488.488 0 0 1-.5-.503c0-.151.043-.271.161-.391l7.99-6.963.025-.023a.307.307 0 0 1 .133-.083.706.706 0 0 1 .2-.021Z"/>
  </g>
  <defs>
    <clipPath id="a">
      <path fill="#fff" d="M3 4h18v16H3z"/>
    </clipPath>
  </defs>
</svg>
