<svg xmlns="http://www.w3.org/2000/svg" width="24" height="24" fill="none" viewBox="0 0 24 24">
  <path fill="#242526" d="M4 17V7.75c0-.416.334-.75.75-.75s.75.334.75.75v9c0 .416.334.75.75.75s.75-.334.75-.75V7c0-1.103.897-2 2-2h9c1.103 0 2 .897 2 2v10c0 1.103-.897 2-2 2H6c-1.103 0-2-.897-2-2Zm5-9v2a1 1 0 0 0 1 1h2a1 1 0 0 0 1-1V8a1 1 0 0 0-1-1h-2a1 1 0 0 0-1 1Zm.75 7.5a.748.748 0 0 0-.75.75c0 .416.334.75.75.75h7.5c.416 0 .75-.334.75-.75a.748.748 0 0 0-.75-.75h-7.5ZM9 13.25c0 .416.334.75.75.75h7.5c.416 0 .75-.334.75-.75a.748.748 0 0 0-.75-.75h-7.5a.748.748 0 0 0-.75.75Zm6.25-3.75a.748.748 0 0 0-.75.75c0 .416.334.75.75.75h2c.416 0 .75-.334.75-.75a.748.748 0 0 0-.75-.75h-2Z"/>
</svg>
